%TF.GenerationSoftware,KiCad,Pcbnew,(6.0.4)*%
%TF.CreationDate,2022-08-01T11:19:28+10:00*%
%TF.ProjectId,GSR + ST V2,47535220-2b20-4535-9420-56322e6b6963,rev?*%
%TF.SameCoordinates,Original*%
%TF.FileFunction,Copper,L2,Bot*%
%TF.FilePolarity,Positive*%
%FSLAX46Y46*%
G04 Gerber Fmt 4.6, Leading zero omitted, Abs format (unit mm)*
G04 Created by KiCad (PCBNEW (6.0.4)) date 2022-08-01 11:19:28*
%MOMM*%
%LPD*%
G01*
G04 APERTURE LIST*
G04 Aperture macros list*
%AMRoundRect*
0 Rectangle with rounded corners*
0 $1 Rounding radius*
0 $2 $3 $4 $5 $6 $7 $8 $9 X,Y pos of 4 corners*
0 Add a 4 corners polygon primitive as box body*
4,1,4,$2,$3,$4,$5,$6,$7,$8,$9,$2,$3,0*
0 Add four circle primitives for the rounded corners*
1,1,$1+$1,$2,$3*
1,1,$1+$1,$4,$5*
1,1,$1+$1,$6,$7*
1,1,$1+$1,$8,$9*
0 Add four rect primitives between the rounded corners*
20,1,$1+$1,$2,$3,$4,$5,0*
20,1,$1+$1,$4,$5,$6,$7,0*
20,1,$1+$1,$6,$7,$8,$9,0*
20,1,$1+$1,$8,$9,$2,$3,0*%
G04 Aperture macros list end*
%TA.AperFunction,ComponentPad*%
%ADD10R,1.700000X1.700000*%
%TD*%
%TA.AperFunction,ComponentPad*%
%ADD11O,1.700000X1.700000*%
%TD*%
%TA.AperFunction,SMDPad,CuDef*%
%ADD12RoundRect,0.037100X0.317900X0.227900X-0.317900X0.227900X-0.317900X-0.227900X0.317900X-0.227900X0*%
%TD*%
%TA.AperFunction,SMDPad,CuDef*%
%ADD13RoundRect,1.250000X-1.250000X3.750000X-1.250000X-3.750000X1.250000X-3.750000X1.250000X3.750000X0*%
%TD*%
%TA.AperFunction,SMDPad,CuDef*%
%ADD14C,1.000000*%
%TD*%
%TA.AperFunction,ViaPad*%
%ADD15C,0.800000*%
%TD*%
%TA.AperFunction,Conductor*%
%ADD16C,0.250000*%
%TD*%
G04 APERTURE END LIST*
D10*
%TO.P,J2,1,Pin_1*%
%TO.N,Net-(J2-Pad1)*%
X198200000Y-108000000D03*
D11*
%TO.P,J2,2,Pin_2*%
%TO.N,Net-(J2-Pad2)*%
X200740000Y-108000000D03*
%TD*%
D10*
%TO.P,J1,1,Pin_1*%
%TO.N,+3V3*%
X186675000Y-108000000D03*
D11*
%TO.P,J1,2,Pin_2*%
%TO.N,Net-(C7-Pad1)*%
X189215000Y-108000000D03*
%TO.P,J1,3,Pin_3*%
%TO.N,GND*%
X191755000Y-108000000D03*
%TD*%
D12*
%TO.P,U4,1,NC*%
%TO.N,unconnected-(U4-Pad1)*%
X197985000Y-115200000D03*
%TO.P,U4,2,VDD*%
%TO.N,Net-(C8-Pad1)*%
X197985000Y-116200000D03*
%TO.P,U4,3,SCL*%
%TO.N,Net-(J2-Pad2)*%
X197985000Y-117200000D03*
%TO.P,U4,4,SDA*%
%TO.N,Net-(J2-Pad1)*%
X196015000Y-117200000D03*
%TO.P,U4,5,GND*%
%TO.N,GND*%
X196015000Y-116200000D03*
%TO.P,U4,6,NC*%
%TO.N,unconnected-(U4-Pad6)*%
X196015000Y-115200000D03*
%TD*%
D13*
%TO.P,U2,1,Electrode_1*%
%TO.N,GND*%
X210905000Y-116695000D03*
%TD*%
D14*
%TO.P,TP1,1,1*%
%TO.N,Net-(C8-Pad1)*%
X200400000Y-118600000D03*
%TD*%
D13*
%TO.P,U1,1,Electrode_1*%
%TO.N,Net-(C3-Pad2)*%
X182400000Y-116800000D03*
%TD*%
D15*
%TO.N,GND*%
X178600000Y-118200000D03*
X187200000Y-114500000D03*
X182000000Y-108100000D03*
X179600000Y-106900000D03*
X194400000Y-108200000D03*
X178400000Y-122000000D03*
X186800000Y-122000000D03*
X215000000Y-106500000D03*
X213000000Y-106500000D03*
X179600000Y-109200000D03*
X207100000Y-113300000D03*
X195600000Y-109700000D03*
X180800000Y-108100000D03*
X197900000Y-110700000D03*
X207100000Y-114200000D03*
X193900000Y-122000000D03*
X195600000Y-111700000D03*
X202600000Y-119000000D03*
X180800000Y-106900000D03*
X197900000Y-111700000D03*
X207100000Y-115100000D03*
X202600000Y-117800000D03*
X180800000Y-109200000D03*
X197900000Y-113700000D03*
X190000000Y-122000000D03*
X188200000Y-114500000D03*
X182000000Y-106900000D03*
X214900000Y-121900000D03*
X179600000Y-108100000D03*
X195600000Y-110700000D03*
X214000000Y-106500000D03*
X194400000Y-109200000D03*
X197900000Y-112700000D03*
X186200000Y-114500000D03*
X212000000Y-106500000D03*
%TO.N,Net-(C3-Pad2)*%
X188400000Y-110400000D03*
%TO.N,Net-(C7-Pad1)*%
X198100000Y-121100497D03*
%TO.N,Net-(C8-Pad1)*%
X192200000Y-116800000D03*
%TO.N,Net-(J2-Pad1)*%
X185400000Y-110400000D03*
%TD*%
D16*
%TO.N,Net-(C3-Pad2)*%
X182400000Y-116800000D02*
X182400000Y-116400000D01*
X182400000Y-116400000D02*
X188400000Y-110400000D01*
%TO.N,Net-(C7-Pad1)*%
X192000000Y-120800000D02*
X189215000Y-118015000D01*
X198100000Y-121100497D02*
X197799503Y-120800000D01*
X189215000Y-118015000D02*
X189215000Y-108000000D01*
X197799503Y-120800000D02*
X192000000Y-120800000D01*
%TO.N,Net-(C8-Pad1)*%
X193200000Y-117800000D02*
X192200000Y-116800000D01*
X196694520Y-117433273D02*
X196694520Y-117577687D01*
X196472207Y-117800000D02*
X193200000Y-117800000D01*
X197716833Y-118600000D02*
X196694520Y-117577687D01*
X200400000Y-118600000D02*
X197716833Y-118600000D01*
X196694520Y-117577687D02*
X196472207Y-117800000D01*
X197927793Y-116200000D02*
X196694520Y-117433273D01*
X197985000Y-116200000D02*
X197927793Y-116200000D01*
%TO.N,Net-(J2-Pad1)*%
X187024022Y-110000000D02*
X187849511Y-109174511D01*
X187849511Y-107550489D02*
X188574511Y-106825489D01*
X198200000Y-108000000D02*
X196900000Y-109300000D01*
X188574511Y-106825489D02*
X197025489Y-106825489D01*
X196900000Y-116500000D02*
X196200000Y-117200000D01*
X185400000Y-110400000D02*
X185800000Y-110000000D01*
X197025489Y-106825489D02*
X198200000Y-108000000D01*
X196900000Y-109300000D02*
X196900000Y-116500000D01*
X187849511Y-109174511D02*
X187849511Y-107550489D01*
X185800000Y-110000000D02*
X187024022Y-110000000D01*
X196200000Y-117200000D02*
X196015000Y-117200000D01*
%TO.N,Net-(J2-Pad2)*%
X198179822Y-117200000D02*
X200740000Y-114639822D01*
X197985000Y-117200000D02*
X198179822Y-117200000D01*
X200740000Y-114639822D02*
X200740000Y-108000000D01*
%TD*%
%TA.AperFunction,Conductor*%
%TO.N,GND*%
G36*
X218833621Y-105928502D02*
G01*
X218880114Y-105982158D01*
X218891500Y-106034500D01*
X218891500Y-122365500D01*
X218871498Y-122433621D01*
X218817842Y-122480114D01*
X218765500Y-122491500D01*
X217535946Y-122491500D01*
X217467825Y-122471498D01*
X217421332Y-122417842D01*
X217411228Y-122347568D01*
X217440722Y-122282988D01*
X217482696Y-122251305D01*
X217483501Y-122250930D01*
X217506550Y-122240182D01*
X217567731Y-122211653D01*
X217567735Y-122211651D01*
X217572313Y-122209516D01*
X217581901Y-122203000D01*
X217775552Y-122071395D01*
X217775556Y-122071392D01*
X217779739Y-122068549D01*
X217807015Y-122042756D01*
X217958279Y-121899713D01*
X217961959Y-121896233D01*
X217965490Y-121891615D01*
X218111212Y-121701019D01*
X218111215Y-121701015D01*
X218114285Y-121696999D01*
X218232797Y-121475974D01*
X218236312Y-121465768D01*
X218312799Y-121243633D01*
X218314448Y-121238844D01*
X218332331Y-121135311D01*
X218356460Y-120995620D01*
X218356461Y-120995614D01*
X218357135Y-120991710D01*
X218358500Y-120961650D01*
X218358500Y-107886985D01*
X218358298Y-107884472D01*
X218343863Y-107705056D01*
X218343862Y-107705051D01*
X218343457Y-107700015D01*
X218322744Y-107615685D01*
X218284841Y-107461375D01*
X218283634Y-107456461D01*
X218239078Y-107351492D01*
X218187617Y-107230259D01*
X218187617Y-107230258D01*
X218185641Y-107225604D01*
X218078704Y-107055791D01*
X218054696Y-107017666D01*
X218054695Y-107017665D01*
X218052000Y-107013385D01*
X217886147Y-106825262D01*
X217692351Y-106666076D01*
X217475596Y-106539922D01*
X217470873Y-106538109D01*
X217470871Y-106538108D01*
X217246181Y-106451857D01*
X217246183Y-106451857D01*
X217241461Y-106450045D01*
X217236515Y-106449012D01*
X217236509Y-106449010D01*
X217000921Y-106399794D01*
X217000922Y-106399794D01*
X216995967Y-106398759D01*
X216990918Y-106398530D01*
X216990912Y-106398529D01*
X216876494Y-106393334D01*
X216745432Y-106387382D01*
X216740412Y-106387963D01*
X216740408Y-106387963D01*
X216649093Y-106398529D01*
X216496301Y-106416208D01*
X216491427Y-106417587D01*
X216491423Y-106417588D01*
X216259852Y-106483116D01*
X216259850Y-106483117D01*
X216254983Y-106484494D01*
X216250408Y-106486628D01*
X216250401Y-106486630D01*
X216032269Y-106588347D01*
X216032265Y-106588349D01*
X216027687Y-106590484D01*
X216023506Y-106593326D01*
X216023505Y-106593326D01*
X215824448Y-106728605D01*
X215824444Y-106728608D01*
X215820261Y-106731451D01*
X215816584Y-106734928D01*
X215816583Y-106734929D01*
X215761795Y-106786739D01*
X215638041Y-106903767D01*
X215634963Y-106907793D01*
X215634962Y-106907794D01*
X215488788Y-107098981D01*
X215488785Y-107098985D01*
X215485715Y-107103001D01*
X215367203Y-107324026D01*
X215365557Y-107328807D01*
X215365555Y-107328811D01*
X215313844Y-107478991D01*
X215285552Y-107561156D01*
X215284690Y-107566148D01*
X215251658Y-107757386D01*
X215242865Y-107808290D01*
X215241500Y-107838350D01*
X215241500Y-120913015D01*
X215241702Y-120915523D01*
X215241702Y-120915528D01*
X215247832Y-120991710D01*
X215256543Y-121099985D01*
X215257748Y-121104893D01*
X215257749Y-121104896D01*
X215294285Y-121253643D01*
X215316366Y-121343539D01*
X215318341Y-121348191D01*
X215318342Y-121348195D01*
X215378404Y-121489691D01*
X215414359Y-121574396D01*
X215494880Y-121702262D01*
X215540341Y-121774452D01*
X215548000Y-121786615D01*
X215713853Y-121974738D01*
X215907649Y-122133924D01*
X216110078Y-122251740D01*
X216118430Y-122256601D01*
X216167244Y-122308155D01*
X216180437Y-122377915D01*
X216153820Y-122443733D01*
X216095845Y-122484713D01*
X216055050Y-122491500D01*
X184169217Y-122491500D01*
X184101096Y-122471498D01*
X184054603Y-122417842D01*
X184044499Y-122347568D01*
X184073993Y-122282988D01*
X184127054Y-122246764D01*
X184239951Y-122206674D01*
X184361624Y-122163468D01*
X184365748Y-122161271D01*
X184365754Y-122161268D01*
X184546293Y-122065071D01*
X184592293Y-122040561D01*
X184738262Y-121932353D01*
X184798514Y-121887688D01*
X184798519Y-121887684D01*
X184802262Y-121884909D01*
X184805555Y-121881611D01*
X184805560Y-121881606D01*
X184983615Y-121703240D01*
X184983616Y-121703238D01*
X184986918Y-121699931D01*
X185142203Y-121489691D01*
X185152020Y-121471189D01*
X185262519Y-121262933D01*
X185262520Y-121262931D01*
X185264708Y-121258807D01*
X185322574Y-121094944D01*
X185350183Y-121016763D01*
X185350184Y-121016759D01*
X185351740Y-121012353D01*
X185354978Y-120995620D01*
X185400594Y-120759844D01*
X185401388Y-120755741D01*
X185408500Y-120634241D01*
X185408499Y-114339595D01*
X185428501Y-114271474D01*
X185445404Y-114250500D01*
X188350499Y-111345405D01*
X188412811Y-111311379D01*
X188439594Y-111308500D01*
X188455500Y-111308500D01*
X188523621Y-111328502D01*
X188570114Y-111382158D01*
X188581500Y-111434500D01*
X188581500Y-117936233D01*
X188580973Y-117947416D01*
X188579298Y-117954909D01*
X188579547Y-117962835D01*
X188579547Y-117962836D01*
X188581438Y-118022986D01*
X188581500Y-118026945D01*
X188581500Y-118054856D01*
X188581997Y-118058790D01*
X188581997Y-118058791D01*
X188582005Y-118058856D01*
X188582938Y-118070693D01*
X188584327Y-118114889D01*
X188589978Y-118134339D01*
X188593987Y-118153700D01*
X188596526Y-118173797D01*
X188599445Y-118181168D01*
X188599445Y-118181170D01*
X188612804Y-118214912D01*
X188616649Y-118226142D01*
X188628982Y-118268593D01*
X188633015Y-118275412D01*
X188633017Y-118275417D01*
X188639293Y-118286028D01*
X188647988Y-118303776D01*
X188655448Y-118322617D01*
X188660110Y-118329033D01*
X188660110Y-118329034D01*
X188681436Y-118358387D01*
X188687952Y-118368307D01*
X188704133Y-118395667D01*
X188710458Y-118406362D01*
X188724779Y-118420683D01*
X188737619Y-118435716D01*
X188749528Y-118452107D01*
X188783605Y-118480298D01*
X188792384Y-118488288D01*
X191496348Y-121192253D01*
X191503888Y-121200539D01*
X191508000Y-121207018D01*
X191513777Y-121212443D01*
X191557651Y-121253643D01*
X191560493Y-121256398D01*
X191580230Y-121276135D01*
X191583427Y-121278615D01*
X191592447Y-121286318D01*
X191624679Y-121316586D01*
X191631625Y-121320405D01*
X191631628Y-121320407D01*
X191642434Y-121326348D01*
X191658953Y-121337199D01*
X191674959Y-121349614D01*
X191682228Y-121352759D01*
X191682232Y-121352762D01*
X191715537Y-121367174D01*
X191726187Y-121372391D01*
X191764940Y-121393695D01*
X191772615Y-121395666D01*
X191772616Y-121395666D01*
X191784562Y-121398733D01*
X191803267Y-121405137D01*
X191821855Y-121413181D01*
X191829678Y-121414420D01*
X191829688Y-121414423D01*
X191865524Y-121420099D01*
X191877144Y-121422505D01*
X191912289Y-121431528D01*
X191919970Y-121433500D01*
X191940224Y-121433500D01*
X191959934Y-121435051D01*
X191979943Y-121438220D01*
X191987835Y-121437474D01*
X192023961Y-121434059D01*
X192035819Y-121433500D01*
X197170469Y-121433500D01*
X197238590Y-121453502D01*
X197279587Y-121496499D01*
X197360960Y-121637441D01*
X197365378Y-121642348D01*
X197365379Y-121642349D01*
X197484325Y-121774452D01*
X197488747Y-121779363D01*
X197643248Y-121891615D01*
X197649276Y-121894299D01*
X197649278Y-121894300D01*
X197811681Y-121966606D01*
X197817712Y-121969291D01*
X197911112Y-121989144D01*
X197998056Y-122007625D01*
X197998061Y-122007625D01*
X198004513Y-122008997D01*
X198195487Y-122008997D01*
X198201939Y-122007625D01*
X198201944Y-122007625D01*
X198288888Y-121989144D01*
X198382288Y-121969291D01*
X198388319Y-121966606D01*
X198550722Y-121894300D01*
X198550724Y-121894299D01*
X198556752Y-121891615D01*
X198711253Y-121779363D01*
X198715675Y-121774452D01*
X198834621Y-121642349D01*
X198834622Y-121642348D01*
X198839040Y-121637441D01*
X198897314Y-121536507D01*
X198931223Y-121477776D01*
X198931224Y-121477775D01*
X198934527Y-121472053D01*
X198993542Y-121290425D01*
X198996432Y-121262933D01*
X199012814Y-121107062D01*
X199013504Y-121100497D01*
X198993542Y-120910569D01*
X198934527Y-120728941D01*
X198839040Y-120563553D01*
X198806414Y-120527318D01*
X207897000Y-120527318D01*
X207897114Y-120531116D01*
X207904220Y-120649555D01*
X207905274Y-120657851D01*
X207953657Y-120905601D01*
X207956118Y-120914598D01*
X208040424Y-121152011D01*
X208044189Y-121160549D01*
X208162665Y-121382902D01*
X208167647Y-121390781D01*
X208317692Y-121593187D01*
X208323774Y-121600233D01*
X208502087Y-121778235D01*
X208509160Y-121784318D01*
X208711815Y-121934001D01*
X208719705Y-121938970D01*
X208942268Y-122057060D01*
X208950801Y-122060805D01*
X209188369Y-122144700D01*
X209197367Y-122147145D01*
X209445215Y-122195096D01*
X209453488Y-122196134D01*
X209568960Y-122202893D01*
X209572609Y-122203000D01*
X210632885Y-122203000D01*
X210648124Y-122198525D01*
X210649329Y-122197135D01*
X210651000Y-122189452D01*
X210651000Y-122184885D01*
X211159000Y-122184885D01*
X211163475Y-122200124D01*
X211164865Y-122201329D01*
X211172548Y-122203000D01*
X212237318Y-122203000D01*
X212241116Y-122202886D01*
X212359555Y-122195780D01*
X212367851Y-122194726D01*
X212615601Y-122146343D01*
X212624598Y-122143882D01*
X212862011Y-122059576D01*
X212870549Y-122055811D01*
X213092902Y-121937335D01*
X213100781Y-121932353D01*
X213303187Y-121782308D01*
X213310233Y-121776226D01*
X213488235Y-121597913D01*
X213494318Y-121590840D01*
X213644001Y-121388185D01*
X213648970Y-121380295D01*
X213767060Y-121157732D01*
X213770805Y-121149199D01*
X213854700Y-120911631D01*
X213857145Y-120902633D01*
X213905096Y-120654785D01*
X213906134Y-120646512D01*
X213912893Y-120531040D01*
X213913000Y-120527391D01*
X213913000Y-116967115D01*
X213908525Y-116951876D01*
X213907135Y-116950671D01*
X213899452Y-116949000D01*
X211177115Y-116949000D01*
X211161876Y-116953475D01*
X211160671Y-116954865D01*
X211159000Y-116962548D01*
X211159000Y-122184885D01*
X210651000Y-122184885D01*
X210651000Y-116967115D01*
X210646525Y-116951876D01*
X210645135Y-116950671D01*
X210637452Y-116949000D01*
X207915115Y-116949000D01*
X207899876Y-116953475D01*
X207898671Y-116954865D01*
X207897000Y-116962548D01*
X207897000Y-120527318D01*
X198806414Y-120527318D01*
X198711253Y-120421631D01*
X198556752Y-120309379D01*
X198550724Y-120306695D01*
X198550722Y-120306694D01*
X198388319Y-120234388D01*
X198388318Y-120234388D01*
X198382288Y-120231703D01*
X198288887Y-120211850D01*
X198201944Y-120193369D01*
X198201939Y-120193369D01*
X198195487Y-120191997D01*
X198009843Y-120191997D01*
X197979698Y-120187706D01*
X197977648Y-120186819D01*
X197969825Y-120185580D01*
X197969815Y-120185577D01*
X197933979Y-120179901D01*
X197922359Y-120177495D01*
X197887214Y-120168472D01*
X197887213Y-120168472D01*
X197879533Y-120166500D01*
X197859279Y-120166500D01*
X197839568Y-120164949D01*
X197827389Y-120163020D01*
X197819560Y-120161780D01*
X197811668Y-120162526D01*
X197775542Y-120165941D01*
X197763684Y-120166500D01*
X192314594Y-120166500D01*
X192246473Y-120146498D01*
X192225499Y-120129595D01*
X189885405Y-117789500D01*
X189851379Y-117727188D01*
X189848500Y-117700405D01*
X189848500Y-109280427D01*
X189868502Y-109212306D01*
X189909618Y-109172550D01*
X189912994Y-109170896D01*
X190094860Y-109041173D01*
X190109888Y-109026198D01*
X190238616Y-108897918D01*
X190253096Y-108883489D01*
X190271663Y-108857651D01*
X190383453Y-108702077D01*
X190384640Y-108702930D01*
X190431960Y-108659362D01*
X190501897Y-108647145D01*
X190567338Y-108674678D01*
X190595166Y-108706511D01*
X190652694Y-108800388D01*
X190658777Y-108808699D01*
X190798213Y-108969667D01*
X190805580Y-108976883D01*
X190969434Y-109112916D01*
X190977881Y-109118831D01*
X191161756Y-109226279D01*
X191171042Y-109230729D01*
X191370001Y-109306703D01*
X191379899Y-109309579D01*
X191483250Y-109330606D01*
X191497299Y-109329410D01*
X191501000Y-109319065D01*
X191501000Y-109318517D01*
X192009000Y-109318517D01*
X192013064Y-109332359D01*
X192026478Y-109334393D01*
X192033184Y-109333534D01*
X192043262Y-109331392D01*
X192247255Y-109270191D01*
X192256842Y-109266433D01*
X192448095Y-109172739D01*
X192456945Y-109167464D01*
X192630328Y-109043792D01*
X192638200Y-109037139D01*
X192789052Y-108886812D01*
X192795730Y-108878965D01*
X192920003Y-108706020D01*
X192925313Y-108697183D01*
X193019670Y-108506267D01*
X193023469Y-108496672D01*
X193085377Y-108292910D01*
X193087555Y-108282837D01*
X193088986Y-108271962D01*
X193086775Y-108257778D01*
X193073617Y-108254000D01*
X192027115Y-108254000D01*
X192011876Y-108258475D01*
X192010671Y-108259865D01*
X192009000Y-108267548D01*
X192009000Y-109318517D01*
X191501000Y-109318517D01*
X191501000Y-107872000D01*
X191521002Y-107803879D01*
X191574658Y-107757386D01*
X191627000Y-107746000D01*
X193073344Y-107746000D01*
X193086875Y-107742027D01*
X193088180Y-107732947D01*
X193058726Y-107615685D01*
X193061530Y-107544743D01*
X193102243Y-107486580D01*
X193167938Y-107459661D01*
X193180930Y-107458989D01*
X196710895Y-107458989D01*
X196779016Y-107478991D01*
X196799990Y-107495894D01*
X196804595Y-107500499D01*
X196838621Y-107562811D01*
X196841500Y-107589594D01*
X196841500Y-108410405D01*
X196821498Y-108478526D01*
X196804595Y-108499500D01*
X196507747Y-108796348D01*
X196499461Y-108803888D01*
X196492982Y-108808000D01*
X196487557Y-108813777D01*
X196446357Y-108857651D01*
X196443602Y-108860493D01*
X196423865Y-108880230D01*
X196421385Y-108883427D01*
X196413682Y-108892447D01*
X196383414Y-108924679D01*
X196379595Y-108931625D01*
X196379593Y-108931628D01*
X196373652Y-108942434D01*
X196362801Y-108958953D01*
X196350386Y-108974959D01*
X196347241Y-108982228D01*
X196347238Y-108982232D01*
X196332826Y-109015537D01*
X196327609Y-109026187D01*
X196306305Y-109064940D01*
X196304334Y-109072615D01*
X196304334Y-109072616D01*
X196301267Y-109084562D01*
X196294863Y-109103266D01*
X196286819Y-109121855D01*
X196285580Y-109129678D01*
X196285577Y-109129688D01*
X196279901Y-109165524D01*
X196277495Y-109177144D01*
X196266500Y-109219970D01*
X196266500Y-109240224D01*
X196264949Y-109259934D01*
X196261780Y-109279943D01*
X196262526Y-109287835D01*
X196265941Y-109323961D01*
X196266500Y-109335819D01*
X196266500Y-114300500D01*
X196246498Y-114368621D01*
X196192842Y-114415114D01*
X196140500Y-114426500D01*
X195672596Y-114426501D01*
X195654708Y-114426501D01*
X195609502Y-114431971D01*
X195573762Y-114436295D01*
X195573759Y-114436296D01*
X195565732Y-114437267D01*
X195558215Y-114440243D01*
X195558212Y-114440244D01*
X195434728Y-114489135D01*
X195434726Y-114489136D01*
X195426745Y-114492296D01*
X195307675Y-114582675D01*
X195217296Y-114701745D01*
X195162267Y-114840732D01*
X195151500Y-114929707D01*
X195151501Y-115470292D01*
X195162267Y-115559268D01*
X195165244Y-115566787D01*
X195165245Y-115566791D01*
X195199891Y-115654297D01*
X195206370Y-115724997D01*
X195199891Y-115747063D01*
X195165737Y-115833329D01*
X195161786Y-115848887D01*
X195152456Y-115925985D01*
X195152283Y-115928848D01*
X195156475Y-115943124D01*
X195157865Y-115944329D01*
X195165548Y-115946000D01*
X195499434Y-115946000D01*
X195545816Y-115954848D01*
X195565732Y-115962733D01*
X195654707Y-115973500D01*
X195672567Y-115973500D01*
X196140501Y-115973499D01*
X196208621Y-115993501D01*
X196255114Y-116047156D01*
X196266500Y-116099499D01*
X196266500Y-116185405D01*
X196246498Y-116253526D01*
X196229595Y-116274500D01*
X196114500Y-116389595D01*
X196052188Y-116423621D01*
X196025405Y-116426500D01*
X195683374Y-116426501D01*
X195654708Y-116426501D01*
X195592085Y-116434078D01*
X195573764Y-116436295D01*
X195573763Y-116436295D01*
X195565732Y-116437267D01*
X195545816Y-116445152D01*
X195499434Y-116454000D01*
X195170115Y-116454000D01*
X195154876Y-116458475D01*
X195153671Y-116459865D01*
X195152051Y-116467312D01*
X195152456Y-116474015D01*
X195161786Y-116551113D01*
X195165737Y-116566671D01*
X195199891Y-116652937D01*
X195206370Y-116723638D01*
X195199891Y-116745703D01*
X195188176Y-116775293D01*
X195162267Y-116840732D01*
X195151500Y-116929707D01*
X195151500Y-117040500D01*
X195131498Y-117108621D01*
X195077842Y-117155114D01*
X195025500Y-117166500D01*
X193514594Y-117166500D01*
X193446473Y-117146498D01*
X193425499Y-117129595D01*
X193147122Y-116851218D01*
X193113096Y-116788906D01*
X193110907Y-116775293D01*
X193094232Y-116616635D01*
X193094232Y-116616633D01*
X193093542Y-116610072D01*
X193034527Y-116428444D01*
X193012098Y-116389595D01*
X192942341Y-116268774D01*
X192939040Y-116263056D01*
X192811253Y-116121134D01*
X192656752Y-116008882D01*
X192650724Y-116006198D01*
X192650722Y-116006197D01*
X192488319Y-115933891D01*
X192488318Y-115933891D01*
X192482288Y-115931206D01*
X192388887Y-115911353D01*
X192301944Y-115892872D01*
X192301939Y-115892872D01*
X192295487Y-115891500D01*
X192104513Y-115891500D01*
X192098061Y-115892872D01*
X192098056Y-115892872D01*
X192011113Y-115911353D01*
X191917712Y-115931206D01*
X191911682Y-115933891D01*
X191911681Y-115933891D01*
X191749278Y-116006197D01*
X191749276Y-116006198D01*
X191743248Y-116008882D01*
X191588747Y-116121134D01*
X191460960Y-116263056D01*
X191457659Y-116268774D01*
X191387903Y-116389595D01*
X191365473Y-116428444D01*
X191306458Y-116610072D01*
X191286496Y-116800000D01*
X191287186Y-116806565D01*
X191302459Y-116951876D01*
X191306458Y-116989928D01*
X191365473Y-117171556D01*
X191460960Y-117336944D01*
X191465378Y-117341851D01*
X191465379Y-117341852D01*
X191584325Y-117473955D01*
X191588747Y-117478866D01*
X191743248Y-117591118D01*
X191749276Y-117593802D01*
X191749278Y-117593803D01*
X191911681Y-117666109D01*
X191917712Y-117668794D01*
X192011112Y-117688647D01*
X192098056Y-117707128D01*
X192098061Y-117707128D01*
X192104513Y-117708500D01*
X192160406Y-117708500D01*
X192228527Y-117728502D01*
X192249501Y-117745405D01*
X192696343Y-118192247D01*
X192703887Y-118200537D01*
X192708000Y-118207018D01*
X192713777Y-118212443D01*
X192757667Y-118253658D01*
X192760509Y-118256413D01*
X192780231Y-118276135D01*
X192783355Y-118278558D01*
X192783359Y-118278562D01*
X192783424Y-118278612D01*
X192792445Y-118286317D01*
X192824679Y-118316586D01*
X192831627Y-118320405D01*
X192831629Y-118320407D01*
X192842432Y-118326346D01*
X192858959Y-118337202D01*
X192868698Y-118344757D01*
X192868700Y-118344758D01*
X192874960Y-118349614D01*
X192915540Y-118367174D01*
X192926188Y-118372391D01*
X192964940Y-118393695D01*
X192972616Y-118395666D01*
X192972619Y-118395667D01*
X192984562Y-118398733D01*
X193003266Y-118405137D01*
X193012889Y-118409301D01*
X193021855Y-118413181D01*
X193029678Y-118414420D01*
X193029688Y-118414423D01*
X193065524Y-118420099D01*
X193077144Y-118422505D01*
X193102353Y-118428977D01*
X193119970Y-118433500D01*
X193140224Y-118433500D01*
X193159934Y-118435051D01*
X193179943Y-118438220D01*
X193187835Y-118437474D01*
X193206580Y-118435702D01*
X193223962Y-118434059D01*
X193235819Y-118433500D01*
X196393440Y-118433500D01*
X196404623Y-118434027D01*
X196412116Y-118435702D01*
X196420042Y-118435453D01*
X196420043Y-118435453D01*
X196480193Y-118433562D01*
X196484152Y-118433500D01*
X196512063Y-118433500D01*
X196515998Y-118433003D01*
X196516063Y-118432995D01*
X196527900Y-118432062D01*
X196572096Y-118430673D01*
X196577478Y-118429109D01*
X196646864Y-118438077D01*
X196685259Y-118464331D01*
X197213181Y-118992253D01*
X197220721Y-119000539D01*
X197224833Y-119007018D01*
X197230610Y-119012443D01*
X197274484Y-119053643D01*
X197277326Y-119056398D01*
X197297063Y-119076135D01*
X197300260Y-119078615D01*
X197309280Y-119086318D01*
X197341512Y-119116586D01*
X197348458Y-119120405D01*
X197348461Y-119120407D01*
X197359267Y-119126348D01*
X197375786Y-119137199D01*
X197391792Y-119149614D01*
X197399061Y-119152759D01*
X197399065Y-119152762D01*
X197432370Y-119167174D01*
X197443020Y-119172391D01*
X197481773Y-119193695D01*
X197489448Y-119195666D01*
X197489449Y-119195666D01*
X197501395Y-119198733D01*
X197520100Y-119205137D01*
X197538688Y-119213181D01*
X197546511Y-119214420D01*
X197546521Y-119214423D01*
X197582357Y-119220099D01*
X197593977Y-119222505D01*
X197629122Y-119231528D01*
X197636803Y-119233500D01*
X197657057Y-119233500D01*
X197676767Y-119235051D01*
X197696776Y-119238220D01*
X197704668Y-119237474D01*
X197740794Y-119234059D01*
X197752652Y-119233500D01*
X199554284Y-119233500D01*
X199622405Y-119253502D01*
X199653029Y-119281235D01*
X199671035Y-119303953D01*
X199821650Y-119432136D01*
X199994294Y-119528624D01*
X200182392Y-119589740D01*
X200378777Y-119613158D01*
X200384912Y-119612686D01*
X200384914Y-119612686D01*
X200569830Y-119598457D01*
X200569834Y-119598456D01*
X200575972Y-119597984D01*
X200766463Y-119544798D01*
X200771967Y-119542018D01*
X200771969Y-119542017D01*
X200937495Y-119458404D01*
X200937497Y-119458403D01*
X200942996Y-119455625D01*
X201098847Y-119333861D01*
X201209958Y-119205137D01*
X201224049Y-119188813D01*
X201224050Y-119188811D01*
X201228078Y-119184145D01*
X201325769Y-119012179D01*
X201388197Y-118824513D01*
X201412985Y-118628295D01*
X201413380Y-118600000D01*
X201394080Y-118403167D01*
X201336916Y-118213831D01*
X201244066Y-118039204D01*
X201160085Y-117936233D01*
X201122960Y-117890713D01*
X201122957Y-117890710D01*
X201119065Y-117885938D01*
X201112718Y-117880687D01*
X200971425Y-117763799D01*
X200971421Y-117763797D01*
X200966675Y-117759870D01*
X200792701Y-117665802D01*
X200603768Y-117607318D01*
X200597643Y-117606674D01*
X200597642Y-117606674D01*
X200413204Y-117587289D01*
X200413202Y-117587289D01*
X200407075Y-117586645D01*
X200328422Y-117593803D01*
X200216251Y-117604011D01*
X200216248Y-117604012D01*
X200210112Y-117604570D01*
X200204206Y-117606308D01*
X200204202Y-117606309D01*
X200099076Y-117637249D01*
X200020381Y-117660410D01*
X200014923Y-117663263D01*
X200014919Y-117663265D01*
X199943878Y-117700405D01*
X199845110Y-117752040D01*
X199690975Y-117875968D01*
X199652776Y-117921492D01*
X199593667Y-117960818D01*
X199556255Y-117966500D01*
X198832920Y-117966500D01*
X198764799Y-117946498D01*
X198718306Y-117892842D01*
X198708202Y-117822568D01*
X198732556Y-117764323D01*
X198782704Y-117698255D01*
X198794369Y-117668794D01*
X198820018Y-117604011D01*
X198837733Y-117559268D01*
X198848500Y-117470293D01*
X198848893Y-117470341D01*
X198872204Y-117405630D01*
X198884819Y-117390907D01*
X199852841Y-116422885D01*
X207897000Y-116422885D01*
X207901475Y-116438124D01*
X207902865Y-116439329D01*
X207910548Y-116441000D01*
X210632885Y-116441000D01*
X210648124Y-116436525D01*
X210649329Y-116435135D01*
X210651000Y-116427452D01*
X210651000Y-116422885D01*
X211159000Y-116422885D01*
X211163475Y-116438124D01*
X211164865Y-116439329D01*
X211172548Y-116441000D01*
X213894885Y-116441000D01*
X213910124Y-116436525D01*
X213911329Y-116435135D01*
X213913000Y-116427452D01*
X213913000Y-112862682D01*
X213912886Y-112858884D01*
X213905780Y-112740445D01*
X213904726Y-112732149D01*
X213856343Y-112484399D01*
X213853882Y-112475402D01*
X213769576Y-112237989D01*
X213765811Y-112229451D01*
X213647335Y-112007098D01*
X213642353Y-111999219D01*
X213492308Y-111796813D01*
X213486226Y-111789767D01*
X213307913Y-111611765D01*
X213300840Y-111605682D01*
X213098185Y-111455999D01*
X213090295Y-111451030D01*
X212867732Y-111332940D01*
X212859199Y-111329195D01*
X212621631Y-111245300D01*
X212612633Y-111242855D01*
X212364785Y-111194904D01*
X212356512Y-111193866D01*
X212241040Y-111187107D01*
X212237391Y-111187000D01*
X211177115Y-111187000D01*
X211161876Y-111191475D01*
X211160671Y-111192865D01*
X211159000Y-111200548D01*
X211159000Y-116422885D01*
X210651000Y-116422885D01*
X210651000Y-111205115D01*
X210646525Y-111189876D01*
X210645135Y-111188671D01*
X210637452Y-111187000D01*
X209572682Y-111187000D01*
X209568884Y-111187114D01*
X209450445Y-111194220D01*
X209442149Y-111195274D01*
X209194399Y-111243657D01*
X209185402Y-111246118D01*
X208947989Y-111330424D01*
X208939451Y-111334189D01*
X208717098Y-111452665D01*
X208709219Y-111457647D01*
X208506813Y-111607692D01*
X208499767Y-111613774D01*
X208321765Y-111792087D01*
X208315682Y-111799160D01*
X208165999Y-112001815D01*
X208161030Y-112009705D01*
X208042940Y-112232268D01*
X208039195Y-112240801D01*
X207955300Y-112478369D01*
X207952855Y-112487367D01*
X207904904Y-112735215D01*
X207903866Y-112743488D01*
X207897107Y-112858960D01*
X207897000Y-112862609D01*
X207897000Y-116422885D01*
X199852841Y-116422885D01*
X201132247Y-115143479D01*
X201140537Y-115135935D01*
X201147018Y-115131822D01*
X201193659Y-115082154D01*
X201196413Y-115079313D01*
X201216134Y-115059592D01*
X201218612Y-115056397D01*
X201226318Y-115047375D01*
X201251158Y-115020923D01*
X201256586Y-115015143D01*
X201266346Y-114997390D01*
X201277199Y-114980867D01*
X201284753Y-114971128D01*
X201289613Y-114964863D01*
X201307176Y-114924279D01*
X201312383Y-114913649D01*
X201333695Y-114874882D01*
X201335666Y-114867205D01*
X201335668Y-114867200D01*
X201338732Y-114855264D01*
X201345138Y-114836552D01*
X201346584Y-114833212D01*
X201353181Y-114817967D01*
X201360097Y-114774303D01*
X201362504Y-114762682D01*
X201371528Y-114727533D01*
X201371528Y-114727532D01*
X201373500Y-114719852D01*
X201373500Y-114699591D01*
X201375051Y-114679880D01*
X201376979Y-114667707D01*
X201378219Y-114659879D01*
X201374059Y-114615868D01*
X201373500Y-114604011D01*
X201373500Y-109280427D01*
X201393502Y-109212306D01*
X201434618Y-109172550D01*
X201437994Y-109170896D01*
X201619860Y-109041173D01*
X201634888Y-109026198D01*
X201763616Y-108897918D01*
X201778096Y-108883489D01*
X201796663Y-108857651D01*
X201905435Y-108706277D01*
X201908453Y-108702077D01*
X201921995Y-108674678D01*
X202005136Y-108506453D01*
X202005137Y-108506451D01*
X202007430Y-108501811D01*
X202072370Y-108288069D01*
X202101529Y-108066590D01*
X202103156Y-108000000D01*
X202084852Y-107777361D01*
X202030431Y-107560702D01*
X201941354Y-107355840D01*
X201820014Y-107168277D01*
X201669670Y-107003051D01*
X201665619Y-106999852D01*
X201665615Y-106999848D01*
X201498414Y-106867800D01*
X201498410Y-106867798D01*
X201494359Y-106864598D01*
X201298789Y-106756638D01*
X201293920Y-106754914D01*
X201293916Y-106754912D01*
X201093087Y-106683795D01*
X201093083Y-106683794D01*
X201088212Y-106682069D01*
X201083119Y-106681162D01*
X201083116Y-106681161D01*
X200873373Y-106643800D01*
X200873367Y-106643799D01*
X200868284Y-106642894D01*
X200794452Y-106641992D01*
X200650081Y-106640228D01*
X200650079Y-106640228D01*
X200644911Y-106640165D01*
X200424091Y-106673955D01*
X200211756Y-106743357D01*
X200181443Y-106759137D01*
X200060585Y-106822052D01*
X200013607Y-106846507D01*
X200009474Y-106849610D01*
X200009471Y-106849612D01*
X199839100Y-106977530D01*
X199834965Y-106980635D01*
X199778537Y-107039684D01*
X199754283Y-107065064D01*
X199692759Y-107100494D01*
X199621846Y-107097037D01*
X199564060Y-107055791D01*
X199545207Y-107022243D01*
X199503767Y-106911703D01*
X199500615Y-106903295D01*
X199413261Y-106786739D01*
X199296705Y-106699385D01*
X199160316Y-106648255D01*
X199098134Y-106641500D01*
X197789595Y-106641500D01*
X197721474Y-106621498D01*
X197700500Y-106604595D01*
X197529141Y-106433236D01*
X197521601Y-106424950D01*
X197517489Y-106418471D01*
X197467837Y-106371845D01*
X197464996Y-106369091D01*
X197445259Y-106349354D01*
X197442062Y-106346874D01*
X197433040Y-106339169D01*
X197419611Y-106326558D01*
X197400810Y-106308903D01*
X197393864Y-106305084D01*
X197393861Y-106305082D01*
X197383055Y-106299141D01*
X197366536Y-106288290D01*
X197366072Y-106287930D01*
X197350530Y-106275875D01*
X197343261Y-106272730D01*
X197343257Y-106272727D01*
X197309952Y-106258315D01*
X197299302Y-106253098D01*
X197260549Y-106231794D01*
X197240926Y-106226756D01*
X197222223Y-106220352D01*
X197210909Y-106215456D01*
X197210908Y-106215456D01*
X197203634Y-106212308D01*
X197195811Y-106211069D01*
X197195801Y-106211066D01*
X197159965Y-106205390D01*
X197148345Y-106202984D01*
X197113200Y-106193961D01*
X197113199Y-106193961D01*
X197105519Y-106191989D01*
X197085265Y-106191989D01*
X197065554Y-106190438D01*
X197053375Y-106188509D01*
X197045546Y-106187269D01*
X197016275Y-106190036D01*
X197001528Y-106191430D01*
X196989670Y-106191989D01*
X188653278Y-106191989D01*
X188642095Y-106191462D01*
X188634602Y-106189787D01*
X188626676Y-106190036D01*
X188626675Y-106190036D01*
X188566512Y-106191927D01*
X188562554Y-106191989D01*
X188534655Y-106191989D01*
X188530665Y-106192493D01*
X188518831Y-106193425D01*
X188474622Y-106194815D01*
X188467008Y-106197027D01*
X188467003Y-106197028D01*
X188455170Y-106200466D01*
X188435807Y-106204477D01*
X188415714Y-106207015D01*
X188408347Y-106209932D01*
X188408342Y-106209933D01*
X188374603Y-106223291D01*
X188363376Y-106227135D01*
X188320918Y-106239471D01*
X188314092Y-106243508D01*
X188303483Y-106249782D01*
X188285735Y-106258477D01*
X188266894Y-106265937D01*
X188260478Y-106270599D01*
X188260477Y-106270599D01*
X188231124Y-106291925D01*
X188221204Y-106298441D01*
X188189976Y-106316909D01*
X188189973Y-106316911D01*
X188183149Y-106320947D01*
X188168828Y-106335268D01*
X188153795Y-106348108D01*
X188137404Y-106360017D01*
X188114285Y-106387963D01*
X188109223Y-106394082D01*
X188101233Y-106402863D01*
X187853074Y-106651021D01*
X187790762Y-106685046D01*
X187719750Y-106679907D01*
X187642718Y-106651029D01*
X187642712Y-106651027D01*
X187635316Y-106648255D01*
X187573134Y-106641500D01*
X185776866Y-106641500D01*
X185714684Y-106648255D01*
X185578295Y-106699385D01*
X185461739Y-106786739D01*
X185374385Y-106903295D01*
X185323255Y-107039684D01*
X185316500Y-107101866D01*
X185316500Y-108898134D01*
X185323255Y-108960316D01*
X185374385Y-109096705D01*
X185461739Y-109213261D01*
X185494144Y-109237547D01*
X185536657Y-109294406D01*
X185541682Y-109365224D01*
X185507622Y-109427517D01*
X185491676Y-109439476D01*
X185492382Y-109440448D01*
X185456615Y-109466434D01*
X185446708Y-109472943D01*
X185445006Y-109473949D01*
X185380861Y-109491500D01*
X185304513Y-109491500D01*
X185298061Y-109492872D01*
X185298056Y-109492872D01*
X185218499Y-109509783D01*
X185117712Y-109531206D01*
X185111682Y-109533891D01*
X185111681Y-109533891D01*
X184949278Y-109606197D01*
X184949276Y-109606198D01*
X184943248Y-109608882D01*
X184788747Y-109721134D01*
X184660960Y-109863056D01*
X184565473Y-110028444D01*
X184506458Y-110210072D01*
X184486496Y-110400000D01*
X184506458Y-110589928D01*
X184565473Y-110771556D01*
X184660960Y-110936944D01*
X184788747Y-111078866D01*
X184943248Y-111191118D01*
X184949276Y-111193802D01*
X184949278Y-111193803D01*
X185111681Y-111266109D01*
X185117712Y-111268794D01*
X185211113Y-111288647D01*
X185298056Y-111307128D01*
X185298061Y-111307128D01*
X185304513Y-111308500D01*
X185495487Y-111308500D01*
X185501939Y-111307128D01*
X185501944Y-111307128D01*
X185588887Y-111288647D01*
X185682288Y-111268794D01*
X185688319Y-111266109D01*
X185850722Y-111193803D01*
X185850724Y-111193802D01*
X185856752Y-111191118D01*
X186011253Y-111078866D01*
X186139040Y-110936944D01*
X186234527Y-110771556D01*
X186251095Y-110720565D01*
X186291168Y-110661959D01*
X186356564Y-110634321D01*
X186370928Y-110633500D01*
X186945255Y-110633500D01*
X186956438Y-110634027D01*
X186963931Y-110635702D01*
X186971857Y-110635453D01*
X186976438Y-110635886D01*
X187042374Y-110662212D01*
X187083610Y-110720006D01*
X187087054Y-110790919D01*
X187053673Y-110850422D01*
X185483743Y-112420352D01*
X185421431Y-112454378D01*
X185350616Y-112449313D01*
X185293780Y-112406766D01*
X185275912Y-112373420D01*
X185265034Y-112342787D01*
X185263468Y-112338376D01*
X185261271Y-112334252D01*
X185261268Y-112334246D01*
X185142756Y-112111827D01*
X185140561Y-112107707D01*
X185060138Y-111999219D01*
X184987688Y-111901486D01*
X184987684Y-111901481D01*
X184984909Y-111897738D01*
X184981611Y-111894445D01*
X184981606Y-111894440D01*
X184803240Y-111716385D01*
X184803238Y-111716384D01*
X184799931Y-111713082D01*
X184589691Y-111557797D01*
X184585562Y-111555606D01*
X184362933Y-111437481D01*
X184362931Y-111437480D01*
X184358807Y-111435292D01*
X184208344Y-111382158D01*
X184116763Y-111349817D01*
X184116759Y-111349816D01*
X184112353Y-111348260D01*
X184107769Y-111347373D01*
X184107765Y-111347372D01*
X183861762Y-111299777D01*
X183855741Y-111298612D01*
X183734241Y-111291500D01*
X182426106Y-111291500D01*
X181065760Y-111291501D01*
X180959791Y-111297859D01*
X180945386Y-111298723D01*
X180945385Y-111298723D01*
X180941203Y-111298974D01*
X180937093Y-111299777D01*
X180937090Y-111299777D01*
X180799308Y-111326684D01*
X180684678Y-111349070D01*
X180680273Y-111350634D01*
X180680270Y-111350635D01*
X180591499Y-111382158D01*
X180438376Y-111436532D01*
X180434252Y-111438729D01*
X180434246Y-111438732D01*
X180279288Y-111521299D01*
X180207707Y-111559439D01*
X180137121Y-111611765D01*
X180001486Y-111712312D01*
X180001481Y-111712316D01*
X179997738Y-111715091D01*
X179994445Y-111718389D01*
X179994440Y-111718394D01*
X179916158Y-111796813D01*
X179813082Y-111900069D01*
X179657797Y-112110309D01*
X179655607Y-112114436D01*
X179655606Y-112114438D01*
X179593087Y-112232268D01*
X179535292Y-112341193D01*
X179512136Y-112406766D01*
X179457521Y-112561423D01*
X179448260Y-112587647D01*
X179398612Y-112844259D01*
X179391500Y-112965759D01*
X179391501Y-120634240D01*
X179398974Y-120758797D01*
X179449070Y-121015322D01*
X179536532Y-121261624D01*
X179538729Y-121265748D01*
X179538732Y-121265754D01*
X179617286Y-121413181D01*
X179659439Y-121492293D01*
X179732493Y-121590840D01*
X179812312Y-121698514D01*
X179812316Y-121698519D01*
X179815091Y-121702262D01*
X179818389Y-121705555D01*
X179818394Y-121705560D01*
X179996760Y-121883615D01*
X180000069Y-121886918D01*
X180210309Y-122042203D01*
X180214436Y-122044393D01*
X180214438Y-122044394D01*
X180434710Y-122161268D01*
X180441193Y-122164708D01*
X180526197Y-122194726D01*
X180673349Y-122246691D01*
X180730922Y-122288234D01*
X180756895Y-122354309D01*
X180743022Y-122423937D01*
X180693708Y-122475012D01*
X180631393Y-122491500D01*
X177335946Y-122491500D01*
X177267825Y-122471498D01*
X177221332Y-122417842D01*
X177211228Y-122347568D01*
X177240722Y-122282988D01*
X177282696Y-122251305D01*
X177283501Y-122250930D01*
X177306550Y-122240182D01*
X177367731Y-122211653D01*
X177367735Y-122211651D01*
X177372313Y-122209516D01*
X177381901Y-122203000D01*
X177575552Y-122071395D01*
X177575556Y-122071392D01*
X177579739Y-122068549D01*
X177607015Y-122042756D01*
X177758279Y-121899713D01*
X177761959Y-121896233D01*
X177765490Y-121891615D01*
X177911212Y-121701019D01*
X177911215Y-121701015D01*
X177914285Y-121696999D01*
X178032797Y-121475974D01*
X178036312Y-121465768D01*
X178112799Y-121243633D01*
X178114448Y-121238844D01*
X178132331Y-121135311D01*
X178156460Y-120995620D01*
X178156461Y-120995614D01*
X178157135Y-120991710D01*
X178158500Y-120961650D01*
X178158500Y-107886985D01*
X178158298Y-107884472D01*
X178143863Y-107705056D01*
X178143862Y-107705051D01*
X178143457Y-107700015D01*
X178122744Y-107615685D01*
X178084841Y-107461375D01*
X178083634Y-107456461D01*
X178039078Y-107351492D01*
X177987617Y-107230259D01*
X177987617Y-107230258D01*
X177985641Y-107225604D01*
X177878704Y-107055791D01*
X177854696Y-107017666D01*
X177854695Y-107017665D01*
X177852000Y-107013385D01*
X177686147Y-106825262D01*
X177492351Y-106666076D01*
X177275596Y-106539922D01*
X177270873Y-106538109D01*
X177270871Y-106538108D01*
X177046181Y-106451857D01*
X177046183Y-106451857D01*
X177041461Y-106450045D01*
X177036515Y-106449012D01*
X177036509Y-106449010D01*
X176800921Y-106399794D01*
X176800922Y-106399794D01*
X176795967Y-106398759D01*
X176790918Y-106398530D01*
X176790912Y-106398529D01*
X176676494Y-106393334D01*
X176545432Y-106387382D01*
X176540412Y-106387963D01*
X176540408Y-106387963D01*
X176449093Y-106398529D01*
X176296301Y-106416208D01*
X176291427Y-106417587D01*
X176291423Y-106417588D01*
X176059852Y-106483116D01*
X176059850Y-106483117D01*
X176054983Y-106484494D01*
X176050408Y-106486628D01*
X176050401Y-106486630D01*
X175832269Y-106588347D01*
X175832265Y-106588349D01*
X175827687Y-106590484D01*
X175823506Y-106593326D01*
X175823505Y-106593326D01*
X175624448Y-106728605D01*
X175624444Y-106728608D01*
X175620261Y-106731451D01*
X175616584Y-106734928D01*
X175616583Y-106734929D01*
X175561795Y-106786739D01*
X175438041Y-106903767D01*
X175434963Y-106907793D01*
X175434962Y-106907794D01*
X175288788Y-107098981D01*
X175288785Y-107098985D01*
X175285715Y-107103001D01*
X175167203Y-107324026D01*
X175165557Y-107328807D01*
X175165555Y-107328811D01*
X175113844Y-107478991D01*
X175085552Y-107561156D01*
X175084690Y-107566148D01*
X175051658Y-107757386D01*
X175042865Y-107808290D01*
X175041500Y-107838350D01*
X175041500Y-120913015D01*
X175041702Y-120915523D01*
X175041702Y-120915528D01*
X175047832Y-120991710D01*
X175056543Y-121099985D01*
X175057748Y-121104893D01*
X175057749Y-121104896D01*
X175094285Y-121253643D01*
X175116366Y-121343539D01*
X175118341Y-121348191D01*
X175118342Y-121348195D01*
X175178404Y-121489691D01*
X175214359Y-121574396D01*
X175294880Y-121702262D01*
X175340341Y-121774452D01*
X175348000Y-121786615D01*
X175513853Y-121974738D01*
X175707649Y-122133924D01*
X175910078Y-122251740D01*
X175918430Y-122256601D01*
X175967244Y-122308155D01*
X175980437Y-122377915D01*
X175953820Y-122443733D01*
X175895845Y-122484713D01*
X175855050Y-122491500D01*
X174634500Y-122491500D01*
X174566379Y-122471498D01*
X174519886Y-122417842D01*
X174508500Y-122365500D01*
X174508500Y-106034500D01*
X174528502Y-105966379D01*
X174582158Y-105919886D01*
X174634500Y-105908500D01*
X218765500Y-105908500D01*
X218833621Y-105928502D01*
G37*
%TD.AperFunction*%
%TA.AperFunction,Conductor*%
G36*
X199723150Y-108913126D02*
G01*
X199757817Y-108941114D01*
X199786250Y-108973938D01*
X199958126Y-109116632D01*
X200044070Y-109166853D01*
X200092794Y-109218491D01*
X200106500Y-109275641D01*
X200106500Y-114325227D01*
X200086498Y-114393348D01*
X200069595Y-114414322D01*
X199063595Y-115420322D01*
X199001283Y-115454348D01*
X198930468Y-115449283D01*
X198873632Y-115406736D01*
X198848821Y-115340216D01*
X198848500Y-115331227D01*
X198848499Y-114933503D01*
X198848499Y-114929708D01*
X198840936Y-114867200D01*
X198838705Y-114848762D01*
X198838704Y-114848759D01*
X198837733Y-114840732D01*
X198834754Y-114833206D01*
X198785865Y-114709728D01*
X198785864Y-114709726D01*
X198782704Y-114701745D01*
X198692325Y-114582675D01*
X198573255Y-114492296D01*
X198565274Y-114489136D01*
X198565272Y-114489135D01*
X198496568Y-114461933D01*
X198434268Y-114437267D01*
X198426230Y-114436294D01*
X198426229Y-114436294D01*
X198394556Y-114432461D01*
X198345293Y-114426500D01*
X198274525Y-114426500D01*
X197659500Y-114426501D01*
X197591379Y-114406499D01*
X197544886Y-114352843D01*
X197533500Y-114300501D01*
X197533500Y-109614594D01*
X197553502Y-109546473D01*
X197570405Y-109525499D01*
X197700499Y-109395405D01*
X197762811Y-109361379D01*
X197789594Y-109358500D01*
X199098134Y-109358500D01*
X199160316Y-109351745D01*
X199296705Y-109300615D01*
X199413261Y-109213261D01*
X199500615Y-109096705D01*
X199522799Y-109037529D01*
X199544598Y-108979382D01*
X199587240Y-108922618D01*
X199653802Y-108897918D01*
X199723150Y-108913126D01*
G37*
%TD.AperFunction*%
%TD*%
M02*
