M48
; DRILL file {KiCad (6.0.4)} date Mon Aug  1 11:19:32 2022
; FORMAT={-:-/ absolute / inch / decimal}
; #@! TF.CreationDate,2022-08-01T11:19:32+10:00
; #@! TF.GenerationSoftware,Kicad,Pcbnew,(6.0.4)
; #@! TF.FileFunction,MixedPlating,1,2
FMAT,2
INCH
; #@! TA.AperFunction,Plated,PTH,ViaDrill
T1C0.0157
; #@! TA.AperFunction,Plated,PTH,ComponentDrill
T2C0.0394
; #@! TA.AperFunction,NonPlated,NPTH,ComponentDrill
T3C0.0827
%
G90
G05
T1
X7.0236Y-4.8031
X7.0315Y-4.6535
X7.0709Y-4.2087
X7.0709Y-4.2559
X7.0709Y-4.2992
X7.1181Y-4.2087
X7.1181Y-4.2559
X7.1181Y-4.2992
X7.1654Y-4.2087
X7.1654Y-4.2559
X7.2992Y-4.3465
X7.3307Y-4.5079
X7.3543Y-4.8031
X7.3701Y-4.5079
X7.4094Y-4.5079
X7.4173Y-4.3465
X7.4803Y-4.8031
X7.5669Y-4.5984
X7.6339Y-4.8031
X7.6535Y-4.2598
X7.6535Y-4.2992
X7.7008Y-4.3189
X7.7008Y-4.3583
X7.7008Y-4.3976
X7.7913Y-4.3583
X7.7913Y-4.3976
X7.7913Y-4.437
X7.7913Y-4.4764
X7.7992Y-4.7677
X7.9764Y-4.6378
X7.9764Y-4.685
X8.1535Y-4.4606
X8.1535Y-4.4961
X8.1535Y-4.5315
X8.3465Y-4.1929
X8.3858Y-4.1929
X8.4252Y-4.1929
X8.4606Y-4.7992
X8.4646Y-4.1929
T2
X7.3494Y-4.252
X7.4494Y-4.252
X7.5494Y-4.252
X7.8031Y-4.252
X7.9031Y-4.252
T3
G00X6.9528Y-4.25
M15
G01X6.9528Y-4.7579
M16
G05
G00X8.5354Y-4.25
M15
G01X8.5354Y-4.7579
M16
G05
T0
M30
