%TF.GenerationSoftware,KiCad,Pcbnew,(6.0.4)*%
%TF.CreationDate,2022-08-02T16:27:21+10:00*%
%TF.ProjectId,GSR + ST V2,47535220-2b20-4535-9420-56322e6b6963,rev?*%
%TF.SameCoordinates,Original*%
%TF.FileFunction,Soldermask,Top*%
%TF.FilePolarity,Negative*%
%FSLAX46Y46*%
G04 Gerber Fmt 4.6, Leading zero omitted, Abs format (unit mm)*
G04 Created by KiCad (PCBNEW (6.0.4)) date 2022-08-02 16:27:21*
%MOMM*%
%LPD*%
G01*
G04 APERTURE LIST*
G04 Aperture macros list*
%AMRoundRect*
0 Rectangle with rounded corners*
0 $1 Rounding radius*
0 $2 $3 $4 $5 $6 $7 $8 $9 X,Y pos of 4 corners*
0 Add a 4 corners polygon primitive as box body*
4,1,4,$2,$3,$4,$5,$6,$7,$8,$9,$2,$3,0*
0 Add four circle primitives for the rounded corners*
1,1,$1+$1,$2,$3*
1,1,$1+$1,$4,$5*
1,1,$1+$1,$6,$7*
1,1,$1+$1,$8,$9*
0 Add four rect primitives between the rounded corners*
20,1,$1+$1,$2,$3,$4,$5,0*
20,1,$1+$1,$4,$5,$6,$7,0*
20,1,$1+$1,$6,$7,$8,$9,0*
20,1,$1+$1,$8,$9,$2,$3,0*%
G04 Aperture macros list end*
%ADD10C,1.000000*%
%ADD11R,1.700000X1.700000*%
%ADD12O,1.700000X1.700000*%
%ADD13RoundRect,0.250000X-0.325000X-0.650000X0.325000X-0.650000X0.325000X0.650000X-0.325000X0.650000X0*%
%ADD14RoundRect,0.250000X0.625000X-0.400000X0.625000X0.400000X-0.625000X0.400000X-0.625000X-0.400000X0*%
%ADD15RoundRect,0.150000X-0.825000X-0.150000X0.825000X-0.150000X0.825000X0.150000X-0.825000X0.150000X0*%
%ADD16O,2.100000X15.000000*%
%ADD17RoundRect,0.250000X-0.400000X-0.625000X0.400000X-0.625000X0.400000X0.625000X-0.400000X0.625000X0*%
%ADD18RoundRect,0.250000X-0.625000X0.400000X-0.625000X-0.400000X0.625000X-0.400000X0.625000X0.400000X0*%
%ADD19RoundRect,0.250000X0.650000X-0.325000X0.650000X0.325000X-0.650000X0.325000X-0.650000X-0.325000X0*%
G04 APERTURE END LIST*
D10*
%TO.C,TP2*%
X204100000Y-107700000D03*
%TD*%
D11*
%TO.C,J2*%
X198200000Y-108000000D03*
D12*
X200740000Y-108000000D03*
%TD*%
D13*
%TO.C,C2*%
X179925000Y-116400000D03*
X182875000Y-116400000D03*
%TD*%
%TO.C,C1*%
X180000000Y-112400000D03*
X182950000Y-112400000D03*
%TD*%
D14*
%TO.C,R4*%
X192000000Y-121350000D03*
X192000000Y-118250000D03*
%TD*%
%TO.C,R5*%
X208300000Y-120050000D03*
X208300000Y-116950000D03*
%TD*%
D13*
%TO.C,C8*%
X185325000Y-120200000D03*
X188275000Y-120200000D03*
%TD*%
%TO.C,C9*%
X185325000Y-116400000D03*
X188275000Y-116400000D03*
%TD*%
D15*
%TO.C,U3*%
X199925000Y-113190000D03*
X199925000Y-114460000D03*
X199925000Y-115730000D03*
X199925000Y-117000000D03*
X199925000Y-118270000D03*
X199925000Y-119540000D03*
X199925000Y-120810000D03*
X204875000Y-120810000D03*
X204875000Y-119540000D03*
X204875000Y-118270000D03*
X204875000Y-117000000D03*
X204875000Y-115730000D03*
X204875000Y-114460000D03*
X204875000Y-113190000D03*
%TD*%
D14*
%TO.C,R1*%
X190600000Y-115350000D03*
X190600000Y-112250000D03*
%TD*%
D13*
%TO.C,C4*%
X210450000Y-117200000D03*
X213400000Y-117200000D03*
%TD*%
D16*
%TO.C,REF\u002A\u002A*%
X216800000Y-114400000D03*
%TD*%
D11*
%TO.C,J1*%
X186675000Y-108000000D03*
D12*
X189215000Y-108000000D03*
X191755000Y-108000000D03*
%TD*%
D17*
%TO.C,R7*%
X185250000Y-112400000D03*
X188350000Y-112400000D03*
%TD*%
%TO.C,R6*%
X179850000Y-120200000D03*
X182950000Y-120200000D03*
%TD*%
D16*
%TO.C,REF\u002A\u002A*%
X176600000Y-114400000D03*
%TD*%
D13*
%TO.C,C5*%
X210525000Y-109600000D03*
X213475000Y-109600000D03*
%TD*%
D10*
%TO.C,TP3*%
X210500000Y-107100000D03*
%TD*%
D13*
%TO.C,C7*%
X210425000Y-119800000D03*
X213375000Y-119800000D03*
%TD*%
D18*
%TO.C,R8*%
X206800000Y-106650000D03*
X206800000Y-109750000D03*
%TD*%
D17*
%TO.C,R3*%
X201050000Y-111000000D03*
X204150000Y-111000000D03*
%TD*%
D18*
%TO.C,R2*%
X195800000Y-118250000D03*
X195800000Y-121350000D03*
%TD*%
D19*
%TO.C,C3*%
X193200000Y-115075000D03*
X193200000Y-112125000D03*
%TD*%
D13*
%TO.C,C6*%
X210450000Y-113400000D03*
X213400000Y-113400000D03*
%TD*%
M02*
