%TF.GenerationSoftware,KiCad,Pcbnew,(6.0.4)*%
%TF.CreationDate,2022-08-02T16:27:21+10:00*%
%TF.ProjectId,GSR + ST V2,47535220-2b20-4535-9420-56322e6b6963,rev?*%
%TF.SameCoordinates,Original*%
%TF.FileFunction,Legend,Bot*%
%TF.FilePolarity,Positive*%
%FSLAX46Y46*%
G04 Gerber Fmt 4.6, Leading zero omitted, Abs format (unit mm)*
G04 Created by KiCad (PCBNEW (6.0.4)) date 2022-08-02 16:27:21*
%MOMM*%
%LPD*%
G01*
G04 APERTURE LIST*
%ADD10C,0.150000*%
%ADD11C,0.127000*%
%ADD12C,0.200000*%
%ADD13C,0.120000*%
G04 APERTURE END LIST*
D10*
X199114285Y-106804761D02*
X198971428Y-106852380D01*
X198733333Y-106852380D01*
X198638095Y-106804761D01*
X198590476Y-106757142D01*
X198542857Y-106661904D01*
X198542857Y-106566666D01*
X198590476Y-106471428D01*
X198638095Y-106423809D01*
X198733333Y-106376190D01*
X198923809Y-106328571D01*
X199019047Y-106280952D01*
X199066666Y-106233333D01*
X199114285Y-106138095D01*
X199114285Y-106042857D01*
X199066666Y-105947619D01*
X199019047Y-105900000D01*
X198923809Y-105852380D01*
X198685714Y-105852380D01*
X198542857Y-105900000D01*
X198114285Y-106852380D02*
X198114285Y-105852380D01*
X197876190Y-105852380D01*
X197733333Y-105900000D01*
X197638095Y-105995238D01*
X197590476Y-106090476D01*
X197542857Y-106280952D01*
X197542857Y-106423809D01*
X197590476Y-106614285D01*
X197638095Y-106709523D01*
X197733333Y-106804761D01*
X197876190Y-106852380D01*
X198114285Y-106852380D01*
X197161904Y-106566666D02*
X196685714Y-106566666D01*
X197257142Y-106852380D02*
X196923809Y-105852380D01*
X196590476Y-106852380D01*
X202490476Y-106804761D02*
X202347619Y-106852380D01*
X202109523Y-106852380D01*
X202014285Y-106804761D01*
X201966666Y-106757142D01*
X201919047Y-106661904D01*
X201919047Y-106566666D01*
X201966666Y-106471428D01*
X202014285Y-106423809D01*
X202109523Y-106376190D01*
X202300000Y-106328571D01*
X202395238Y-106280952D01*
X202442857Y-106233333D01*
X202490476Y-106138095D01*
X202490476Y-106042857D01*
X202442857Y-105947619D01*
X202395238Y-105900000D01*
X202300000Y-105852380D01*
X202061904Y-105852380D01*
X201919047Y-105900000D01*
X200919047Y-106757142D02*
X200966666Y-106804761D01*
X201109523Y-106852380D01*
X201204761Y-106852380D01*
X201347619Y-106804761D01*
X201442857Y-106709523D01*
X201490476Y-106614285D01*
X201538095Y-106423809D01*
X201538095Y-106280952D01*
X201490476Y-106090476D01*
X201442857Y-105995238D01*
X201347619Y-105900000D01*
X201204761Y-105852380D01*
X201109523Y-105852380D01*
X200966666Y-105900000D01*
X200919047Y-105947619D01*
X200014285Y-106852380D02*
X200490476Y-106852380D01*
X200490476Y-105852380D01*
X189485714Y-106704761D02*
X189342857Y-106752380D01*
X189104761Y-106752380D01*
X189009523Y-106704761D01*
X188961904Y-106657142D01*
X188914285Y-106561904D01*
X188914285Y-106466666D01*
X188961904Y-106371428D01*
X189009523Y-106323809D01*
X189104761Y-106276190D01*
X189295238Y-106228571D01*
X189390476Y-106180952D01*
X189438095Y-106133333D01*
X189485714Y-106038095D01*
X189485714Y-105942857D01*
X189438095Y-105847619D01*
X189390476Y-105800000D01*
X189295238Y-105752380D01*
X189057142Y-105752380D01*
X188914285Y-105800000D01*
X212938095Y-108900000D02*
X213033333Y-108852380D01*
X213176190Y-108852380D01*
X213319047Y-108900000D01*
X213414285Y-108995238D01*
X213461904Y-109090476D01*
X213509523Y-109280952D01*
X213509523Y-109423809D01*
X213461904Y-109614285D01*
X213414285Y-109709523D01*
X213319047Y-109804761D01*
X213176190Y-109852380D01*
X213080952Y-109852380D01*
X212938095Y-109804761D01*
X212890476Y-109757142D01*
X212890476Y-109423809D01*
X213080952Y-109423809D01*
X212509523Y-109804761D02*
X212366666Y-109852380D01*
X212128571Y-109852380D01*
X212033333Y-109804761D01*
X211985714Y-109757142D01*
X211938095Y-109661904D01*
X211938095Y-109566666D01*
X211985714Y-109471428D01*
X212033333Y-109423809D01*
X212128571Y-109376190D01*
X212319047Y-109328571D01*
X212414285Y-109280952D01*
X212461904Y-109233333D01*
X212509523Y-109138095D01*
X212509523Y-109042857D01*
X212461904Y-108947619D01*
X212414285Y-108900000D01*
X212319047Y-108852380D01*
X212080952Y-108852380D01*
X211938095Y-108900000D01*
X210938095Y-109852380D02*
X211271428Y-109376190D01*
X211509523Y-109852380D02*
X211509523Y-108852380D01*
X211128571Y-108852380D01*
X211033333Y-108900000D01*
X210985714Y-108947619D01*
X210938095Y-109042857D01*
X210938095Y-109185714D01*
X210985714Y-109280952D01*
X211033333Y-109328571D01*
X211128571Y-109376190D01*
X211509523Y-109376190D01*
X209747619Y-109471428D02*
X208985714Y-109471428D01*
X209366666Y-109852380D02*
X209366666Y-109090476D01*
X207795238Y-109804761D02*
X207652380Y-109852380D01*
X207414285Y-109852380D01*
X207319047Y-109804761D01*
X207271428Y-109757142D01*
X207223809Y-109661904D01*
X207223809Y-109566666D01*
X207271428Y-109471428D01*
X207319047Y-109423809D01*
X207414285Y-109376190D01*
X207604761Y-109328571D01*
X207700000Y-109280952D01*
X207747619Y-109233333D01*
X207795238Y-109138095D01*
X207795238Y-109042857D01*
X207747619Y-108947619D01*
X207700000Y-108900000D01*
X207604761Y-108852380D01*
X207366666Y-108852380D01*
X207223809Y-108900000D01*
X206938095Y-108852380D02*
X206366666Y-108852380D01*
X206652380Y-109852380D02*
X206652380Y-108852380D01*
X205414285Y-108852380D02*
X205080952Y-109852380D01*
X204747619Y-108852380D01*
X204461904Y-108947619D02*
X204414285Y-108900000D01*
X204319047Y-108852380D01*
X204080952Y-108852380D01*
X203985714Y-108900000D01*
X203938095Y-108947619D01*
X203890476Y-109042857D01*
X203890476Y-109138095D01*
X203938095Y-109280952D01*
X204509523Y-109852380D01*
X203890476Y-109852380D01*
X192180952Y-106371428D02*
X191419047Y-106371428D01*
X187080952Y-106271428D02*
X186319047Y-106271428D01*
X186700000Y-106652380D02*
X186700000Y-105890476D01*
%TO.C,U4*%
X196336904Y-112517380D02*
X196336904Y-113326904D01*
X196289285Y-113422142D01*
X196241666Y-113469761D01*
X196146428Y-113517380D01*
X195955952Y-113517380D01*
X195860714Y-113469761D01*
X195813095Y-113422142D01*
X195765476Y-113326904D01*
X195765476Y-112517380D01*
X194860714Y-112850714D02*
X194860714Y-113517380D01*
X195098809Y-112469761D02*
X195336904Y-113184047D01*
X194717857Y-113184047D01*
%TO.C,U2*%
X205952380Y-110738095D02*
X206761904Y-110738095D01*
X206857142Y-110785714D01*
X206904761Y-110833333D01*
X206952380Y-110928571D01*
X206952380Y-111119047D01*
X206904761Y-111214285D01*
X206857142Y-111261904D01*
X206761904Y-111309523D01*
X205952380Y-111309523D01*
X206047619Y-111738095D02*
X206000000Y-111785714D01*
X205952380Y-111880952D01*
X205952380Y-112119047D01*
X206000000Y-112214285D01*
X206047619Y-112261904D01*
X206142857Y-112309523D01*
X206238095Y-112309523D01*
X206380952Y-112261904D01*
X206952380Y-111690476D01*
X206952380Y-112309523D01*
%TO.C,TP1*%
X201661904Y-116604380D02*
X201090476Y-116604380D01*
X201376190Y-117604380D02*
X201376190Y-116604380D01*
X200757142Y-117604380D02*
X200757142Y-116604380D01*
X200376190Y-116604380D01*
X200280952Y-116652000D01*
X200233333Y-116699619D01*
X200185714Y-116794857D01*
X200185714Y-116937714D01*
X200233333Y-117032952D01*
X200280952Y-117080571D01*
X200376190Y-117128190D01*
X200757142Y-117128190D01*
X199233333Y-117604380D02*
X199804761Y-117604380D01*
X199519047Y-117604380D02*
X199519047Y-116604380D01*
X199614285Y-116747238D01*
X199709523Y-116842476D01*
X199804761Y-116890095D01*
%TO.C,U1*%
X186252380Y-111638095D02*
X187061904Y-111638095D01*
X187157142Y-111685714D01*
X187204761Y-111733333D01*
X187252380Y-111828571D01*
X187252380Y-112019047D01*
X187204761Y-112114285D01*
X187157142Y-112161904D01*
X187061904Y-112209523D01*
X186252380Y-112209523D01*
X187252380Y-113209523D02*
X187252380Y-112638095D01*
X187252380Y-112923809D02*
X186252380Y-112923809D01*
X186395238Y-112828571D01*
X186490476Y-112733333D01*
X186538095Y-112638095D01*
D11*
%TO.C,U4*%
X198500000Y-114615000D02*
X195500000Y-114615000D01*
X195500000Y-117785000D02*
X198500000Y-117785000D01*
D12*
X199355000Y-115200000D02*
G75*
G03*
X199355000Y-115200000I-100000J0D01*
G01*
D13*
%TO.C,U2*%
X207405000Y-120695000D02*
X207405000Y-122695000D01*
X207405000Y-110695000D02*
X207405000Y-112695000D01*
X212405000Y-122695000D02*
X214405000Y-122695000D01*
X214405000Y-122695000D02*
X214405000Y-120695000D01*
X214405000Y-110695000D02*
X214405000Y-112695000D01*
X207405000Y-122695000D02*
X209405000Y-122695000D01*
X209405000Y-110695000D02*
X207405000Y-110695000D01*
X214405000Y-110695000D02*
X212405000Y-110695000D01*
%TO.C,TP1*%
X201100000Y-118600000D02*
G75*
G03*
X201100000Y-118600000I-700000J0D01*
G01*
%TO.C,U1*%
X185900000Y-122800000D02*
X185900000Y-120800000D01*
X185900000Y-110800000D02*
X183900000Y-110800000D01*
X178900000Y-122800000D02*
X180900000Y-122800000D01*
X180900000Y-110800000D02*
X178900000Y-110800000D01*
X183900000Y-122800000D02*
X185900000Y-122800000D01*
X178900000Y-120800000D02*
X178900000Y-122800000D01*
X185900000Y-110800000D02*
X185900000Y-112800000D01*
X178900000Y-110800000D02*
X178900000Y-112800000D01*
%TD*%
M02*
