%TF.GenerationSoftware,KiCad,Pcbnew,(6.0.4)*%
%TF.CreationDate,2022-08-01T11:19:28+10:00*%
%TF.ProjectId,GSR + ST V2,47535220-2b20-4535-9420-56322e6b6963,rev?*%
%TF.SameCoordinates,Original*%
%TF.FileFunction,Copper,L1,Top*%
%TF.FilePolarity,Positive*%
%FSLAX46Y46*%
G04 Gerber Fmt 4.6, Leading zero omitted, Abs format (unit mm)*
G04 Created by KiCad (PCBNEW (6.0.4)) date 2022-08-01 11:19:28*
%MOMM*%
%LPD*%
G01*
G04 APERTURE LIST*
G04 Aperture macros list*
%AMRoundRect*
0 Rectangle with rounded corners*
0 $1 Rounding radius*
0 $2 $3 $4 $5 $6 $7 $8 $9 X,Y pos of 4 corners*
0 Add a 4 corners polygon primitive as box body*
4,1,4,$2,$3,$4,$5,$6,$7,$8,$9,$2,$3,0*
0 Add four circle primitives for the rounded corners*
1,1,$1+$1,$2,$3*
1,1,$1+$1,$4,$5*
1,1,$1+$1,$6,$7*
1,1,$1+$1,$8,$9*
0 Add four rect primitives between the rounded corners*
20,1,$1+$1,$2,$3,$4,$5,0*
20,1,$1+$1,$4,$5,$6,$7,0*
20,1,$1+$1,$6,$7,$8,$9,0*
20,1,$1+$1,$8,$9,$2,$3,0*%
G04 Aperture macros list end*
%TA.AperFunction,SMDPad,CuDef*%
%ADD10C,1.000000*%
%TD*%
%TA.AperFunction,ComponentPad*%
%ADD11R,1.700000X1.700000*%
%TD*%
%TA.AperFunction,ComponentPad*%
%ADD12O,1.700000X1.700000*%
%TD*%
%TA.AperFunction,SMDPad,CuDef*%
%ADD13RoundRect,0.250000X-0.325000X-0.650000X0.325000X-0.650000X0.325000X0.650000X-0.325000X0.650000X0*%
%TD*%
%TA.AperFunction,SMDPad,CuDef*%
%ADD14RoundRect,0.250000X0.625000X-0.400000X0.625000X0.400000X-0.625000X0.400000X-0.625000X-0.400000X0*%
%TD*%
%TA.AperFunction,SMDPad,CuDef*%
%ADD15RoundRect,0.150000X-0.825000X-0.150000X0.825000X-0.150000X0.825000X0.150000X-0.825000X0.150000X0*%
%TD*%
%TA.AperFunction,SMDPad,CuDef*%
%ADD16RoundRect,0.250000X-0.400000X-0.625000X0.400000X-0.625000X0.400000X0.625000X-0.400000X0.625000X0*%
%TD*%
%TA.AperFunction,SMDPad,CuDef*%
%ADD17RoundRect,0.250000X-0.625000X0.400000X-0.625000X-0.400000X0.625000X-0.400000X0.625000X0.400000X0*%
%TD*%
%TA.AperFunction,SMDPad,CuDef*%
%ADD18RoundRect,0.250000X0.650000X-0.325000X0.650000X0.325000X-0.650000X0.325000X-0.650000X-0.325000X0*%
%TD*%
%TA.AperFunction,ViaPad*%
%ADD19C,0.800000*%
%TD*%
%TA.AperFunction,Conductor*%
%ADD20C,0.750000*%
%TD*%
%TA.AperFunction,Conductor*%
%ADD21C,0.250000*%
%TD*%
G04 APERTURE END LIST*
D10*
%TO.P,TP2,1,1*%
%TO.N,Net-(R3-Pad1)*%
X204100000Y-107700000D03*
%TD*%
D11*
%TO.P,J2,1,Pin_1*%
%TO.N,Net-(J2-Pad1)*%
X198200000Y-108000000D03*
D12*
%TO.P,J2,2,Pin_2*%
%TO.N,Net-(J2-Pad2)*%
X200740000Y-108000000D03*
%TD*%
D13*
%TO.P,C2,1*%
%TO.N,+3V3*%
X179925000Y-116400000D03*
%TO.P,C2,2*%
%TO.N,GND*%
X182875000Y-116400000D03*
%TD*%
%TO.P,C1,1*%
%TO.N,+3V3*%
X180000000Y-112400000D03*
%TO.P,C1,2*%
%TO.N,GND*%
X182950000Y-112400000D03*
%TD*%
D14*
%TO.P,R4,1*%
%TO.N,Net-(R4-Pad1)*%
X192000000Y-121350000D03*
%TO.P,R4,2*%
%TO.N,GND*%
X192000000Y-118250000D03*
%TD*%
%TO.P,R5,1*%
%TO.N,Net-(C7-Pad1)*%
X208300000Y-120050000D03*
%TO.P,R5,2*%
%TO.N,Net-(R4-Pad1)*%
X208300000Y-116950000D03*
%TD*%
D13*
%TO.P,C8,1*%
%TO.N,Net-(C8-Pad1)*%
X185325000Y-120200000D03*
%TO.P,C8,2*%
%TO.N,GND*%
X188275000Y-120200000D03*
%TD*%
%TO.P,C9,1*%
%TO.N,Net-(C8-Pad1)*%
X185325000Y-116400000D03*
%TO.P,C9,2*%
%TO.N,GND*%
X188275000Y-116400000D03*
%TD*%
D15*
%TO.P,U3,1*%
%TO.N,Net-(R3-Pad1)*%
X199925000Y-113190000D03*
%TO.P,U3,2,-*%
X199925000Y-114460000D03*
%TO.P,U3,3,+*%
%TO.N,Net-(C3-Pad2)*%
X199925000Y-115730000D03*
%TO.P,U3,4,V+*%
%TO.N,+3V3*%
X199925000Y-117000000D03*
%TO.P,U3,5,+*%
%TO.N,Net-(C4-Pad1)*%
X199925000Y-118270000D03*
%TO.P,U3,6,-*%
%TO.N,Net-(R4-Pad1)*%
X199925000Y-119540000D03*
%TO.P,U3,7*%
%TO.N,Net-(C7-Pad1)*%
X199925000Y-120810000D03*
%TO.P,U3,8*%
%TO.N,N/C*%
X204875000Y-120810000D03*
%TO.P,U3,9*%
X204875000Y-119540000D03*
%TO.P,U3,10*%
X204875000Y-118270000D03*
%TO.P,U3,11,V-*%
%TO.N,GND*%
X204875000Y-117000000D03*
%TO.P,U3,12*%
%TO.N,N/C*%
X204875000Y-115730000D03*
%TO.P,U3,13*%
X204875000Y-114460000D03*
%TO.P,U3,14*%
X204875000Y-113190000D03*
%TD*%
D14*
%TO.P,R1,1*%
%TO.N,+3V3*%
X190600000Y-115350000D03*
%TO.P,R1,2*%
%TO.N,Net-(C3-Pad2)*%
X190600000Y-112250000D03*
%TD*%
D13*
%TO.P,C4,1*%
%TO.N,Net-(C4-Pad1)*%
X210450000Y-117200000D03*
%TO.P,C4,2*%
%TO.N,GND*%
X213400000Y-117200000D03*
%TD*%
D11*
%TO.P,J1,1,Pin_1*%
%TO.N,+3V3*%
X186675000Y-108000000D03*
D12*
%TO.P,J1,2,Pin_2*%
%TO.N,Net-(C7-Pad1)*%
X189215000Y-108000000D03*
%TO.P,J1,3,Pin_3*%
%TO.N,GND*%
X191755000Y-108000000D03*
%TD*%
D16*
%TO.P,R7,1*%
%TO.N,Net-(J2-Pad1)*%
X185250000Y-112400000D03*
%TO.P,R7,2*%
%TO.N,+3V3*%
X188350000Y-112400000D03*
%TD*%
%TO.P,R6,1*%
%TO.N,+3V3*%
X179850000Y-120200000D03*
%TO.P,R6,2*%
%TO.N,Net-(C8-Pad1)*%
X182950000Y-120200000D03*
%TD*%
D13*
%TO.P,C5,1*%
%TO.N,Net-(C4-Pad1)*%
X209725000Y-109500000D03*
%TO.P,C5,2*%
%TO.N,GND*%
X212675000Y-109500000D03*
%TD*%
D10*
%TO.P,TP3,1,1*%
%TO.N,Net-(C4-Pad1)*%
X210400000Y-107100000D03*
%TD*%
D13*
%TO.P,C7,1*%
%TO.N,Net-(C7-Pad1)*%
X210525000Y-119800000D03*
%TO.P,C7,2*%
%TO.N,GND*%
X213475000Y-119800000D03*
%TD*%
D17*
%TO.P,R8,1*%
%TO.N,Net-(J2-Pad2)*%
X206800000Y-106650000D03*
%TO.P,R8,2*%
%TO.N,+3V3*%
X206800000Y-109750000D03*
%TD*%
D16*
%TO.P,R3,1*%
%TO.N,Net-(R3-Pad1)*%
X201050000Y-111000000D03*
%TO.P,R3,2*%
%TO.N,Net-(C4-Pad1)*%
X204150000Y-111000000D03*
%TD*%
D17*
%TO.P,R2,1*%
%TO.N,Net-(C3-Pad2)*%
X195800000Y-118250000D03*
%TO.P,R2,2*%
%TO.N,GND*%
X195800000Y-121350000D03*
%TD*%
D18*
%TO.P,C3,1*%
%TO.N,+3V3*%
X193200000Y-115075000D03*
%TO.P,C3,2*%
%TO.N,Net-(C3-Pad2)*%
X193200000Y-112125000D03*
%TD*%
D13*
%TO.P,C6,1*%
%TO.N,Net-(C4-Pad1)*%
X210450000Y-113400000D03*
%TO.P,C6,2*%
%TO.N,GND*%
X213400000Y-113400000D03*
%TD*%
D19*
%TO.N,GND*%
X178600000Y-118200000D03*
X187200000Y-114500000D03*
X182000000Y-108100000D03*
X179600000Y-106900000D03*
X194400000Y-108200000D03*
X178400000Y-122000000D03*
X186800000Y-122000000D03*
X215000000Y-106500000D03*
X213000000Y-106500000D03*
X179600000Y-109200000D03*
X207100000Y-113300000D03*
X195600000Y-109700000D03*
X180800000Y-108100000D03*
X197900000Y-110700000D03*
X207100000Y-114200000D03*
X193900000Y-122000000D03*
X195600000Y-111700000D03*
X202600000Y-119000000D03*
X180800000Y-106900000D03*
X197900000Y-111700000D03*
X207100000Y-115100000D03*
X202600000Y-117800000D03*
X180800000Y-109200000D03*
X197900000Y-113700000D03*
X190000000Y-122000000D03*
X188200000Y-114500000D03*
X182000000Y-106900000D03*
X214900000Y-121900000D03*
X179600000Y-108100000D03*
X195600000Y-110700000D03*
X214000000Y-106500000D03*
X194400000Y-109200000D03*
X197900000Y-112700000D03*
X186200000Y-114500000D03*
X212000000Y-106500000D03*
%TO.N,Net-(C3-Pad2)*%
X188400000Y-110400000D03*
%TO.N,Net-(C7-Pad1)*%
X198100000Y-121100497D03*
%TO.N,Net-(C8-Pad1)*%
X192200000Y-116800000D03*
%TO.N,Net-(J2-Pad1)*%
X185400000Y-110400000D03*
%TD*%
D20*
%TO.N,+3V3*%
X203300000Y-109300000D02*
X206350000Y-109300000D01*
X186675000Y-110725000D02*
X186675000Y-108000000D01*
X188350000Y-112400000D02*
X186675000Y-110725000D01*
X194500480Y-119600480D02*
X197199520Y-119600480D01*
X198300000Y-117000000D02*
X199925000Y-117000000D01*
X190600000Y-115350000D02*
X190750000Y-115200000D01*
X188350000Y-112950000D02*
X190600000Y-115200000D01*
X180000000Y-112400000D02*
X180000000Y-116325000D01*
X197199520Y-119600480D02*
X197600000Y-119200000D01*
X206350000Y-109300000D02*
X206800000Y-109750000D01*
X199925000Y-117000000D02*
X200654626Y-117000000D01*
X180000000Y-116325000D02*
X179925000Y-116400000D01*
X193900000Y-115775000D02*
X193900000Y-119000000D01*
X193200000Y-115075000D02*
X193900000Y-115775000D01*
X202500000Y-115154626D02*
X202500000Y-110100000D01*
X197600000Y-119200000D02*
X197600000Y-117700000D01*
X200654626Y-117000000D02*
X202500000Y-115154626D01*
X188350000Y-112400000D02*
X188350000Y-112950000D01*
X193900000Y-119000000D02*
X194500480Y-119600480D01*
X190600000Y-115200000D02*
X190600000Y-115350000D01*
X179925000Y-116400000D02*
X179850000Y-116475000D01*
X184400000Y-108000000D02*
X180000000Y-112400000D01*
X197600000Y-117700000D02*
X198300000Y-117000000D01*
X186675000Y-108000000D02*
X184400000Y-108000000D01*
X202500000Y-110100000D02*
X203300000Y-109300000D01*
X190750000Y-115200000D02*
X193075000Y-115200000D01*
X193075000Y-115200000D02*
X193200000Y-115075000D01*
X179850000Y-116475000D02*
X179850000Y-120200000D01*
D21*
%TO.N,Net-(R4-Pad1)*%
X206700000Y-119700000D02*
X206700000Y-120631072D01*
X201140000Y-119540000D02*
X199925000Y-119540000D01*
X206700000Y-120631072D02*
X205896552Y-121434520D01*
X197489270Y-120300000D02*
X198249270Y-119540000D01*
X208300000Y-116950000D02*
X208300000Y-118100000D01*
X192000000Y-121350000D02*
X193050000Y-120300000D01*
X193050000Y-120300000D02*
X197489270Y-120300000D01*
X203034520Y-121434520D02*
X201140000Y-119540000D01*
X208300000Y-118100000D02*
X206700000Y-119700000D01*
X205896552Y-121434520D02*
X203034520Y-121434520D01*
X198249270Y-119540000D02*
X199925000Y-119540000D01*
%TO.N,Net-(C3-Pad2)*%
X195800000Y-118000000D02*
X195800000Y-118250000D01*
X193200000Y-112125000D02*
X193075000Y-112250000D01*
X195200000Y-114125000D02*
X193200000Y-112125000D01*
X190250000Y-112250000D02*
X190600000Y-112250000D01*
X198070000Y-115730000D02*
X195800000Y-118000000D01*
X195200000Y-114125000D02*
X195200000Y-117650000D01*
X199925000Y-115730000D02*
X198070000Y-115730000D01*
X188400000Y-110400000D02*
X190250000Y-112250000D01*
X193075000Y-112250000D02*
X190600000Y-112250000D01*
X195200000Y-117650000D02*
X195800000Y-118250000D01*
%TO.N,Net-(C4-Pad1)*%
X203200000Y-115443896D02*
X203200000Y-111950000D01*
X210500000Y-110275000D02*
X210500000Y-113350000D01*
X208225000Y-111000000D02*
X204150000Y-111000000D01*
X210500000Y-113350000D02*
X210450000Y-113400000D01*
X200373896Y-118270000D02*
X203200000Y-115443896D01*
X209725000Y-109500000D02*
X210400000Y-108825000D01*
X199925000Y-118270000D02*
X200373896Y-118270000D01*
X210400000Y-108825000D02*
X210400000Y-107100000D01*
X203200000Y-111950000D02*
X204150000Y-111000000D01*
X209725000Y-109500000D02*
X210500000Y-110275000D01*
X209725000Y-109500000D02*
X208225000Y-111000000D01*
X210450000Y-117200000D02*
X210450000Y-113400000D01*
%TO.N,Net-(C7-Pad1)*%
X199925000Y-120810000D02*
X201774282Y-120810000D01*
X198400497Y-120800000D02*
X199915000Y-120800000D01*
X207916790Y-120050000D02*
X208300000Y-120050000D01*
X206082750Y-121884040D02*
X207916790Y-120050000D01*
X208300000Y-120050000D02*
X210275000Y-120050000D01*
X198100000Y-121100497D02*
X198400497Y-120800000D01*
X201774282Y-120810000D02*
X202848322Y-121884040D01*
X210275000Y-120050000D02*
X210525000Y-119800000D01*
X202848322Y-121884040D02*
X206082750Y-121884040D01*
X199915000Y-120800000D02*
X199925000Y-120810000D01*
%TO.N,Net-(C8-Pad1)*%
X186549520Y-117624520D02*
X189375480Y-117624520D01*
X185325000Y-116400000D02*
X185325000Y-120200000D01*
X185325000Y-116400000D02*
X186549520Y-117624520D01*
X185325000Y-120200000D02*
X182950000Y-120200000D01*
X190200000Y-116800000D02*
X192200000Y-116800000D01*
X189375480Y-117624520D02*
X190200000Y-116800000D01*
%TO.N,Net-(J2-Pad1)*%
X185250000Y-110550000D02*
X185250000Y-112400000D01*
X185400000Y-110400000D02*
X185250000Y-110550000D01*
%TO.N,Net-(J2-Pad2)*%
X200740000Y-108000000D02*
X200740000Y-107760000D01*
X200740000Y-107760000D02*
X201850000Y-106650000D01*
X201850000Y-106650000D02*
X206800000Y-106650000D01*
%TO.N,Net-(R3-Pad1)*%
X201050000Y-110560730D02*
X203910730Y-107700000D01*
X201050000Y-112065000D02*
X199925000Y-113190000D01*
X199925000Y-114460000D02*
X199925000Y-113190000D01*
X201050000Y-111000000D02*
X201050000Y-112065000D01*
X201050000Y-111000000D02*
X201050000Y-110560730D01*
X203910730Y-107700000D02*
X204100000Y-107700000D01*
%TD*%
%TA.AperFunction,Conductor*%
%TO.N,GND*%
G36*
X218833621Y-105928502D02*
G01*
X218880114Y-105982158D01*
X218891500Y-106034500D01*
X218891500Y-122365500D01*
X218871498Y-122433621D01*
X218817842Y-122480114D01*
X218765500Y-122491500D01*
X217535946Y-122491500D01*
X217467825Y-122471498D01*
X217421332Y-122417842D01*
X217411228Y-122347568D01*
X217440722Y-122282988D01*
X217482696Y-122251305D01*
X217567731Y-122211653D01*
X217567735Y-122211651D01*
X217572313Y-122209516D01*
X217683543Y-122133924D01*
X217775552Y-122071395D01*
X217775556Y-122071392D01*
X217779739Y-122068549D01*
X217961959Y-121896233D01*
X218032784Y-121803598D01*
X218111212Y-121701019D01*
X218111215Y-121701015D01*
X218114285Y-121696999D01*
X218143426Y-121642652D01*
X218230405Y-121480435D01*
X218232797Y-121475974D01*
X218237092Y-121463502D01*
X218312799Y-121243633D01*
X218314448Y-121238844D01*
X218337585Y-121104896D01*
X218356460Y-120995620D01*
X218356461Y-120995614D01*
X218357135Y-120991710D01*
X218357673Y-120979861D01*
X218358436Y-120963069D01*
X218358436Y-120963050D01*
X218358500Y-120961650D01*
X218358500Y-107886985D01*
X218357797Y-107878249D01*
X218343863Y-107705056D01*
X218343862Y-107705051D01*
X218343457Y-107700015D01*
X218331002Y-107649305D01*
X218284841Y-107461375D01*
X218283634Y-107456461D01*
X218279160Y-107445919D01*
X218187617Y-107230259D01*
X218187617Y-107230258D01*
X218185641Y-107225604D01*
X218078704Y-107055791D01*
X218054696Y-107017666D01*
X218054695Y-107017665D01*
X218052000Y-107013385D01*
X217886147Y-106825262D01*
X217692351Y-106666076D01*
X217475596Y-106539922D01*
X217470873Y-106538109D01*
X217470871Y-106538108D01*
X217246181Y-106451857D01*
X217246183Y-106451857D01*
X217241461Y-106450045D01*
X217236515Y-106449012D01*
X217236509Y-106449010D01*
X217000921Y-106399794D01*
X217000922Y-106399794D01*
X216995967Y-106398759D01*
X216990918Y-106398530D01*
X216990912Y-106398529D01*
X216876494Y-106393334D01*
X216745432Y-106387382D01*
X216740412Y-106387963D01*
X216740408Y-106387963D01*
X216649093Y-106398529D01*
X216496301Y-106416208D01*
X216491427Y-106417587D01*
X216491423Y-106417588D01*
X216259852Y-106483116D01*
X216259850Y-106483117D01*
X216254983Y-106484494D01*
X216250408Y-106486628D01*
X216250401Y-106486630D01*
X216032269Y-106588347D01*
X216032265Y-106588349D01*
X216027687Y-106590484D01*
X216023506Y-106593326D01*
X216023505Y-106593326D01*
X215824448Y-106728605D01*
X215824444Y-106728608D01*
X215820261Y-106731451D01*
X215816584Y-106734928D01*
X215816583Y-106734929D01*
X215761795Y-106786739D01*
X215638041Y-106903767D01*
X215634963Y-106907793D01*
X215634962Y-106907794D01*
X215488788Y-107098981D01*
X215488785Y-107098985D01*
X215485715Y-107103001D01*
X215483325Y-107107459D01*
X215483324Y-107107460D01*
X215448387Y-107172617D01*
X215367203Y-107324026D01*
X215365557Y-107328807D01*
X215365555Y-107328811D01*
X215307551Y-107497267D01*
X215285552Y-107561156D01*
X215270326Y-107649305D01*
X215254959Y-107738275D01*
X215242865Y-107808290D01*
X215242685Y-107812251D01*
X215242685Y-107812252D01*
X215241704Y-107833861D01*
X215241500Y-107838350D01*
X215241500Y-120913015D01*
X215241702Y-120915523D01*
X215241702Y-120915528D01*
X215253286Y-121059500D01*
X215256543Y-121099985D01*
X215257748Y-121104893D01*
X215257749Y-121104896D01*
X215292262Y-121245405D01*
X215316366Y-121343539D01*
X215318341Y-121348191D01*
X215318342Y-121348195D01*
X215402357Y-121546121D01*
X215414359Y-121574396D01*
X215501524Y-121712812D01*
X215540341Y-121774452D01*
X215548000Y-121786615D01*
X215713853Y-121974738D01*
X215907649Y-122133924D01*
X216118430Y-122256601D01*
X216167244Y-122308155D01*
X216180437Y-122377915D01*
X216153820Y-122443733D01*
X216095845Y-122484713D01*
X216055050Y-122491500D01*
X206675384Y-122491500D01*
X206607263Y-122471498D01*
X206560770Y-122417842D01*
X206550666Y-122347568D01*
X206580160Y-122282988D01*
X206586289Y-122276405D01*
X207617289Y-121245405D01*
X207679601Y-121211379D01*
X207706384Y-121208500D01*
X208975400Y-121208500D01*
X208978646Y-121208163D01*
X208978650Y-121208163D01*
X209074308Y-121198238D01*
X209074312Y-121198237D01*
X209081166Y-121197526D01*
X209087702Y-121195345D01*
X209087704Y-121195345D01*
X209230398Y-121147738D01*
X209248946Y-121141550D01*
X209399348Y-121048478D01*
X209466543Y-120981166D01*
X209473306Y-120974391D01*
X209535589Y-120940312D01*
X209606409Y-120945315D01*
X209651497Y-120974236D01*
X209672918Y-120995620D01*
X209726697Y-121049305D01*
X209732927Y-121053145D01*
X209732928Y-121053146D01*
X209870288Y-121137816D01*
X209877262Y-121142115D01*
X209894215Y-121147738D01*
X210038611Y-121195632D01*
X210038613Y-121195632D01*
X210045139Y-121197797D01*
X210051975Y-121198497D01*
X210051978Y-121198498D01*
X210095031Y-121202909D01*
X210149600Y-121208500D01*
X210900400Y-121208500D01*
X210903646Y-121208163D01*
X210903650Y-121208163D01*
X210999308Y-121198238D01*
X210999312Y-121198237D01*
X211006166Y-121197526D01*
X211012702Y-121195345D01*
X211012704Y-121195345D01*
X211155398Y-121147738D01*
X211173946Y-121141550D01*
X211324348Y-121048478D01*
X211449305Y-120923303D01*
X211455647Y-120913015D01*
X211538275Y-120778968D01*
X211538276Y-120778966D01*
X211542115Y-120772738D01*
X211590367Y-120627262D01*
X211595632Y-120611389D01*
X211595632Y-120611387D01*
X211597797Y-120604861D01*
X211598662Y-120596426D01*
X211603419Y-120549992D01*
X211608500Y-120500400D01*
X211608500Y-120497095D01*
X212392001Y-120497095D01*
X212392338Y-120503614D01*
X212402257Y-120599206D01*
X212405149Y-120612600D01*
X212456588Y-120766784D01*
X212462761Y-120779962D01*
X212548063Y-120917807D01*
X212557099Y-120929208D01*
X212671829Y-121043739D01*
X212683240Y-121052751D01*
X212821243Y-121137816D01*
X212834424Y-121143963D01*
X212988710Y-121195138D01*
X213002086Y-121198005D01*
X213096438Y-121207672D01*
X213102854Y-121208000D01*
X213202885Y-121208000D01*
X213218124Y-121203525D01*
X213219329Y-121202135D01*
X213221000Y-121194452D01*
X213221000Y-121189884D01*
X213729000Y-121189884D01*
X213733475Y-121205123D01*
X213734865Y-121206328D01*
X213742548Y-121207999D01*
X213847095Y-121207999D01*
X213853614Y-121207662D01*
X213949206Y-121197743D01*
X213962600Y-121194851D01*
X214116784Y-121143412D01*
X214129962Y-121137239D01*
X214267807Y-121051937D01*
X214279208Y-121042901D01*
X214393739Y-120928171D01*
X214402751Y-120916760D01*
X214487816Y-120778757D01*
X214493963Y-120765576D01*
X214545138Y-120611290D01*
X214548005Y-120597914D01*
X214557672Y-120503562D01*
X214558000Y-120497146D01*
X214558000Y-120072115D01*
X214553525Y-120056876D01*
X214552135Y-120055671D01*
X214544452Y-120054000D01*
X213747115Y-120054000D01*
X213731876Y-120058475D01*
X213730671Y-120059865D01*
X213729000Y-120067548D01*
X213729000Y-121189884D01*
X213221000Y-121189884D01*
X213221000Y-120072115D01*
X213216525Y-120056876D01*
X213215135Y-120055671D01*
X213207452Y-120054000D01*
X212410116Y-120054000D01*
X212394877Y-120058475D01*
X212393672Y-120059865D01*
X212392001Y-120067548D01*
X212392001Y-120497095D01*
X211608500Y-120497095D01*
X211608500Y-119099600D01*
X211608163Y-119096350D01*
X211598238Y-119000692D01*
X211598237Y-119000688D01*
X211597526Y-118993834D01*
X211595326Y-118987238D01*
X211543868Y-118833002D01*
X211541550Y-118826054D01*
X211448478Y-118675652D01*
X211401355Y-118628611D01*
X211324326Y-118551716D01*
X211290247Y-118489433D01*
X211295250Y-118418613D01*
X211324170Y-118373526D01*
X211369133Y-118328484D01*
X211374305Y-118323303D01*
X211385073Y-118305834D01*
X211463275Y-118178968D01*
X211463276Y-118178966D01*
X211467115Y-118172738D01*
X211510220Y-118042781D01*
X211520632Y-118011389D01*
X211520632Y-118011387D01*
X211522797Y-118004861D01*
X211533500Y-117900400D01*
X211533500Y-117897095D01*
X212317001Y-117897095D01*
X212317338Y-117903614D01*
X212327257Y-117999206D01*
X212330149Y-118012600D01*
X212381588Y-118166784D01*
X212387761Y-118179962D01*
X212473063Y-118317807D01*
X212482099Y-118329208D01*
X212601382Y-118448284D01*
X212635461Y-118510567D01*
X212630458Y-118581387D01*
X212601536Y-118626476D01*
X212556261Y-118671829D01*
X212547249Y-118683240D01*
X212462184Y-118821243D01*
X212456037Y-118834424D01*
X212404862Y-118988710D01*
X212401995Y-119002086D01*
X212392328Y-119096438D01*
X212392000Y-119102855D01*
X212392000Y-119527885D01*
X212396475Y-119543124D01*
X212397865Y-119544329D01*
X212405548Y-119546000D01*
X213202885Y-119546000D01*
X213218124Y-119541525D01*
X213219329Y-119540135D01*
X213221000Y-119532452D01*
X213221000Y-118666115D01*
X213216525Y-118650876D01*
X213190830Y-118628611D01*
X213192062Y-118627189D01*
X213182900Y-118622185D01*
X213148878Y-118559871D01*
X213146000Y-118533094D01*
X213146000Y-118333885D01*
X213654000Y-118333885D01*
X213658475Y-118349124D01*
X213684170Y-118371389D01*
X213682938Y-118372811D01*
X213692100Y-118377815D01*
X213726122Y-118440129D01*
X213729000Y-118466906D01*
X213729000Y-119527885D01*
X213733475Y-119543124D01*
X213734865Y-119544329D01*
X213742548Y-119546000D01*
X214539884Y-119546000D01*
X214555123Y-119541525D01*
X214556328Y-119540135D01*
X214557999Y-119532452D01*
X214557999Y-119102905D01*
X214557662Y-119096386D01*
X214547743Y-119000794D01*
X214544851Y-118987400D01*
X214493412Y-118833216D01*
X214487239Y-118820038D01*
X214401937Y-118682193D01*
X214392901Y-118670792D01*
X214273618Y-118551716D01*
X214239539Y-118489433D01*
X214244542Y-118418613D01*
X214273464Y-118373524D01*
X214318739Y-118328171D01*
X214327751Y-118316760D01*
X214412816Y-118178757D01*
X214418963Y-118165576D01*
X214470138Y-118011290D01*
X214473005Y-117997914D01*
X214482672Y-117903562D01*
X214483000Y-117897145D01*
X214483000Y-117472115D01*
X214478525Y-117456876D01*
X214477135Y-117455671D01*
X214469452Y-117454000D01*
X213672115Y-117454000D01*
X213656876Y-117458475D01*
X213655671Y-117459865D01*
X213654000Y-117467548D01*
X213654000Y-118333885D01*
X213146000Y-118333885D01*
X213146000Y-117472115D01*
X213141525Y-117456876D01*
X213140135Y-117455671D01*
X213132452Y-117454000D01*
X212335116Y-117454000D01*
X212319877Y-117458475D01*
X212318672Y-117459865D01*
X212317001Y-117467548D01*
X212317001Y-117897095D01*
X211533500Y-117897095D01*
X211533500Y-116927885D01*
X212317000Y-116927885D01*
X212321475Y-116943124D01*
X212322865Y-116944329D01*
X212330548Y-116946000D01*
X213127885Y-116946000D01*
X213143124Y-116941525D01*
X213144329Y-116940135D01*
X213146000Y-116932452D01*
X213146000Y-116927885D01*
X213654000Y-116927885D01*
X213658475Y-116943124D01*
X213659865Y-116944329D01*
X213667548Y-116946000D01*
X214464884Y-116946000D01*
X214480123Y-116941525D01*
X214481328Y-116940135D01*
X214482999Y-116932452D01*
X214482999Y-116502905D01*
X214482662Y-116496386D01*
X214472743Y-116400794D01*
X214469851Y-116387400D01*
X214418412Y-116233216D01*
X214412239Y-116220038D01*
X214326937Y-116082193D01*
X214317901Y-116070792D01*
X214203171Y-115956261D01*
X214191760Y-115947249D01*
X214053757Y-115862184D01*
X214040576Y-115856037D01*
X213886290Y-115804862D01*
X213872914Y-115801995D01*
X213778562Y-115792328D01*
X213772145Y-115792000D01*
X213672115Y-115792000D01*
X213656876Y-115796475D01*
X213655671Y-115797865D01*
X213654000Y-115805548D01*
X213654000Y-116927885D01*
X213146000Y-116927885D01*
X213146000Y-115810116D01*
X213141525Y-115794877D01*
X213140135Y-115793672D01*
X213132452Y-115792001D01*
X213027905Y-115792001D01*
X213021386Y-115792338D01*
X212925794Y-115802257D01*
X212912400Y-115805149D01*
X212758216Y-115856588D01*
X212745038Y-115862761D01*
X212607193Y-115948063D01*
X212595792Y-115957099D01*
X212481261Y-116071829D01*
X212472249Y-116083240D01*
X212387184Y-116221243D01*
X212381037Y-116234424D01*
X212329862Y-116388710D01*
X212326995Y-116402086D01*
X212317328Y-116496438D01*
X212317000Y-116502855D01*
X212317000Y-116927885D01*
X211533500Y-116927885D01*
X211533500Y-116499600D01*
X211532415Y-116489145D01*
X211523238Y-116400692D01*
X211523237Y-116400688D01*
X211522526Y-116393834D01*
X211493534Y-116306933D01*
X211468868Y-116233002D01*
X211466550Y-116226054D01*
X211373478Y-116075652D01*
X211248303Y-115950695D01*
X211143383Y-115886021D01*
X211095891Y-115833250D01*
X211083500Y-115778762D01*
X211083500Y-114821311D01*
X211103502Y-114753190D01*
X211143196Y-114714167D01*
X211249348Y-114648478D01*
X211374305Y-114523303D01*
X211388153Y-114500838D01*
X211463275Y-114378968D01*
X211463276Y-114378966D01*
X211467115Y-114372738D01*
X211499317Y-114275652D01*
X211520632Y-114211389D01*
X211520632Y-114211387D01*
X211522797Y-114204861D01*
X211523814Y-114194942D01*
X211529225Y-114142123D01*
X211533500Y-114100400D01*
X211533500Y-114097095D01*
X212317001Y-114097095D01*
X212317338Y-114103614D01*
X212327257Y-114199206D01*
X212330149Y-114212600D01*
X212381588Y-114366784D01*
X212387761Y-114379962D01*
X212473063Y-114517807D01*
X212482099Y-114529208D01*
X212596829Y-114643739D01*
X212608240Y-114652751D01*
X212746243Y-114737816D01*
X212759424Y-114743963D01*
X212913710Y-114795138D01*
X212927086Y-114798005D01*
X213021438Y-114807672D01*
X213027854Y-114808000D01*
X213127885Y-114808000D01*
X213143124Y-114803525D01*
X213144329Y-114802135D01*
X213146000Y-114794452D01*
X213146000Y-114789884D01*
X213654000Y-114789884D01*
X213658475Y-114805123D01*
X213659865Y-114806328D01*
X213667548Y-114807999D01*
X213772095Y-114807999D01*
X213778614Y-114807662D01*
X213874206Y-114797743D01*
X213887600Y-114794851D01*
X214041784Y-114743412D01*
X214054962Y-114737239D01*
X214192807Y-114651937D01*
X214204208Y-114642901D01*
X214318739Y-114528171D01*
X214327751Y-114516760D01*
X214412816Y-114378757D01*
X214418963Y-114365576D01*
X214470138Y-114211290D01*
X214473005Y-114197914D01*
X214482672Y-114103562D01*
X214483000Y-114097145D01*
X214483000Y-113672115D01*
X214478525Y-113656876D01*
X214477135Y-113655671D01*
X214469452Y-113654000D01*
X213672115Y-113654000D01*
X213656876Y-113658475D01*
X213655671Y-113659865D01*
X213654000Y-113667548D01*
X213654000Y-114789884D01*
X213146000Y-114789884D01*
X213146000Y-113672115D01*
X213141525Y-113656876D01*
X213140135Y-113655671D01*
X213132452Y-113654000D01*
X212335116Y-113654000D01*
X212319877Y-113658475D01*
X212318672Y-113659865D01*
X212317001Y-113667548D01*
X212317001Y-114097095D01*
X211533500Y-114097095D01*
X211533500Y-113127885D01*
X212317000Y-113127885D01*
X212321475Y-113143124D01*
X212322865Y-113144329D01*
X212330548Y-113146000D01*
X213127885Y-113146000D01*
X213143124Y-113141525D01*
X213144329Y-113140135D01*
X213146000Y-113132452D01*
X213146000Y-113127885D01*
X213654000Y-113127885D01*
X213658475Y-113143124D01*
X213659865Y-113144329D01*
X213667548Y-113146000D01*
X214464884Y-113146000D01*
X214480123Y-113141525D01*
X214481328Y-113140135D01*
X214482999Y-113132452D01*
X214482999Y-112702905D01*
X214482662Y-112696386D01*
X214472743Y-112600794D01*
X214469851Y-112587400D01*
X214418412Y-112433216D01*
X214412239Y-112420038D01*
X214326937Y-112282193D01*
X214317901Y-112270792D01*
X214203171Y-112156261D01*
X214191760Y-112147249D01*
X214053757Y-112062184D01*
X214040576Y-112056037D01*
X213886290Y-112004862D01*
X213872914Y-112001995D01*
X213778562Y-111992328D01*
X213772145Y-111992000D01*
X213672115Y-111992000D01*
X213656876Y-111996475D01*
X213655671Y-111997865D01*
X213654000Y-112005548D01*
X213654000Y-113127885D01*
X213146000Y-113127885D01*
X213146000Y-112010116D01*
X213141525Y-111994877D01*
X213140135Y-111993672D01*
X213132452Y-111992001D01*
X213027905Y-111992001D01*
X213021386Y-111992338D01*
X212925794Y-112002257D01*
X212912400Y-112005149D01*
X212758216Y-112056588D01*
X212745038Y-112062761D01*
X212607193Y-112148063D01*
X212595792Y-112157099D01*
X212481261Y-112271829D01*
X212472249Y-112283240D01*
X212387184Y-112421243D01*
X212381037Y-112434424D01*
X212329862Y-112588710D01*
X212326995Y-112602086D01*
X212317328Y-112696438D01*
X212317000Y-112702855D01*
X212317000Y-113127885D01*
X211533500Y-113127885D01*
X211533500Y-112699600D01*
X211530648Y-112672115D01*
X211523238Y-112600692D01*
X211523237Y-112600688D01*
X211522526Y-112593834D01*
X211516401Y-112575473D01*
X211468868Y-112433002D01*
X211466550Y-112426054D01*
X211373478Y-112275652D01*
X211248303Y-112150695D01*
X211242075Y-112146856D01*
X211242070Y-112146852D01*
X211193383Y-112116841D01*
X211145890Y-112064069D01*
X211133500Y-112009582D01*
X211133500Y-110353768D01*
X211134027Y-110342585D01*
X211135702Y-110335092D01*
X211133562Y-110267001D01*
X211133500Y-110263044D01*
X211133500Y-110235144D01*
X211132996Y-110231153D01*
X211132063Y-110219311D01*
X211131576Y-110203794D01*
X211131365Y-110197095D01*
X211592001Y-110197095D01*
X211592338Y-110203614D01*
X211602257Y-110299206D01*
X211605149Y-110312600D01*
X211656588Y-110466784D01*
X211662761Y-110479962D01*
X211748063Y-110617807D01*
X211757099Y-110629208D01*
X211871829Y-110743739D01*
X211883240Y-110752751D01*
X212021243Y-110837816D01*
X212034424Y-110843963D01*
X212188710Y-110895138D01*
X212202086Y-110898005D01*
X212296438Y-110907672D01*
X212302854Y-110908000D01*
X212402885Y-110908000D01*
X212418124Y-110903525D01*
X212419329Y-110902135D01*
X212421000Y-110894452D01*
X212421000Y-110889884D01*
X212929000Y-110889884D01*
X212933475Y-110905123D01*
X212934865Y-110906328D01*
X212942548Y-110907999D01*
X213047095Y-110907999D01*
X213053614Y-110907662D01*
X213149206Y-110897743D01*
X213162600Y-110894851D01*
X213316784Y-110843412D01*
X213329962Y-110837239D01*
X213467807Y-110751937D01*
X213479208Y-110742901D01*
X213593739Y-110628171D01*
X213602751Y-110616760D01*
X213687816Y-110478757D01*
X213693963Y-110465576D01*
X213745138Y-110311290D01*
X213748005Y-110297914D01*
X213757672Y-110203562D01*
X213758000Y-110197146D01*
X213758000Y-109772115D01*
X213753525Y-109756876D01*
X213752135Y-109755671D01*
X213744452Y-109754000D01*
X212947115Y-109754000D01*
X212931876Y-109758475D01*
X212930671Y-109759865D01*
X212929000Y-109767548D01*
X212929000Y-110889884D01*
X212421000Y-110889884D01*
X212421000Y-109772115D01*
X212416525Y-109756876D01*
X212415135Y-109755671D01*
X212407452Y-109754000D01*
X211610116Y-109754000D01*
X211594877Y-109758475D01*
X211593672Y-109759865D01*
X211592001Y-109767548D01*
X211592001Y-110197095D01*
X211131365Y-110197095D01*
X211130674Y-110175111D01*
X211125021Y-110155652D01*
X211121012Y-110136293D01*
X211120846Y-110134983D01*
X211118474Y-110116203D01*
X211115558Y-110108837D01*
X211115556Y-110108831D01*
X211102200Y-110075098D01*
X211098355Y-110063868D01*
X211088230Y-110029017D01*
X211088230Y-110029016D01*
X211086019Y-110021407D01*
X211075705Y-110003966D01*
X211067008Y-109986213D01*
X211062472Y-109974758D01*
X211059552Y-109967383D01*
X211033563Y-109931612D01*
X211027047Y-109921692D01*
X211015222Y-109901697D01*
X211004542Y-109883638D01*
X210990221Y-109869317D01*
X210977380Y-109854283D01*
X210965472Y-109837893D01*
X210959367Y-109832842D01*
X210959362Y-109832837D01*
X210931402Y-109809706D01*
X210922624Y-109801719D01*
X210845405Y-109724500D01*
X210811380Y-109662189D01*
X210808500Y-109635405D01*
X210808500Y-109365309D01*
X210828502Y-109297188D01*
X210842648Y-109279058D01*
X210853658Y-109267333D01*
X210856415Y-109264489D01*
X210876134Y-109244770D01*
X210878612Y-109241575D01*
X210886318Y-109232553D01*
X210890702Y-109227885D01*
X211592000Y-109227885D01*
X211596475Y-109243124D01*
X211597865Y-109244329D01*
X211605548Y-109246000D01*
X212402885Y-109246000D01*
X212418124Y-109241525D01*
X212419329Y-109240135D01*
X212421000Y-109232452D01*
X212421000Y-109227885D01*
X212929000Y-109227885D01*
X212933475Y-109243124D01*
X212934865Y-109244329D01*
X212942548Y-109246000D01*
X213739884Y-109246000D01*
X213755123Y-109241525D01*
X213756328Y-109240135D01*
X213757999Y-109232452D01*
X213757999Y-108802905D01*
X213757662Y-108796386D01*
X213747743Y-108700794D01*
X213744851Y-108687400D01*
X213693412Y-108533216D01*
X213687239Y-108520038D01*
X213601937Y-108382193D01*
X213592901Y-108370792D01*
X213478171Y-108256261D01*
X213466760Y-108247249D01*
X213328757Y-108162184D01*
X213315576Y-108156037D01*
X213161290Y-108104862D01*
X213147914Y-108101995D01*
X213053562Y-108092328D01*
X213047145Y-108092000D01*
X212947115Y-108092000D01*
X212931876Y-108096475D01*
X212930671Y-108097865D01*
X212929000Y-108105548D01*
X212929000Y-109227885D01*
X212421000Y-109227885D01*
X212421000Y-108110116D01*
X212416525Y-108094877D01*
X212415135Y-108093672D01*
X212407452Y-108092001D01*
X212302905Y-108092001D01*
X212296386Y-108092338D01*
X212200794Y-108102257D01*
X212187400Y-108105149D01*
X212033216Y-108156588D01*
X212020038Y-108162761D01*
X211882193Y-108248063D01*
X211870792Y-108257099D01*
X211756261Y-108371829D01*
X211747249Y-108383240D01*
X211662184Y-108521243D01*
X211656037Y-108534424D01*
X211604862Y-108688710D01*
X211601995Y-108702086D01*
X211592328Y-108796438D01*
X211592000Y-108802855D01*
X211592000Y-109227885D01*
X210890702Y-109227885D01*
X210911158Y-109206101D01*
X210916586Y-109200321D01*
X210922732Y-109189142D01*
X210926346Y-109182568D01*
X210937199Y-109166045D01*
X210944753Y-109156306D01*
X210949613Y-109150041D01*
X210967176Y-109109457D01*
X210972383Y-109098827D01*
X210993695Y-109060060D01*
X210995666Y-109052383D01*
X210995668Y-109052378D01*
X210998732Y-109040442D01*
X211005138Y-109021730D01*
X211010033Y-109010419D01*
X211013181Y-109003145D01*
X211014421Y-108995317D01*
X211014423Y-108995310D01*
X211020099Y-108959476D01*
X211022505Y-108947856D01*
X211031528Y-108912711D01*
X211031528Y-108912710D01*
X211033500Y-108905030D01*
X211033500Y-108884776D01*
X211035051Y-108865065D01*
X211036980Y-108852886D01*
X211038220Y-108845057D01*
X211034059Y-108801038D01*
X211033500Y-108789181D01*
X211033500Y-107946370D01*
X211053502Y-107878249D01*
X211081926Y-107847082D01*
X211098847Y-107833861D01*
X211178116Y-107742027D01*
X211224049Y-107688813D01*
X211224050Y-107688811D01*
X211228078Y-107684145D01*
X211325769Y-107512179D01*
X211388197Y-107324513D01*
X211412985Y-107128295D01*
X211413380Y-107100000D01*
X211394080Y-106903167D01*
X211383530Y-106868222D01*
X211349319Y-106754912D01*
X211336916Y-106713831D01*
X211244066Y-106539204D01*
X211170505Y-106449010D01*
X211122960Y-106390713D01*
X211122957Y-106390710D01*
X211119065Y-106385938D01*
X211112724Y-106380692D01*
X210971425Y-106263799D01*
X210971421Y-106263797D01*
X210966675Y-106259870D01*
X210792701Y-106165802D01*
X210757369Y-106154865D01*
X210698209Y-106115614D01*
X210669662Y-106050610D01*
X210680790Y-105980491D01*
X210728062Y-105927519D01*
X210794628Y-105908500D01*
X218765500Y-105908500D01*
X218833621Y-105928502D01*
G37*
%TD.AperFunction*%
%TA.AperFunction,Conductor*%
G36*
X194359121Y-120953502D02*
G01*
X194405614Y-121007158D01*
X194417000Y-121059500D01*
X194417000Y-121077885D01*
X194421475Y-121093124D01*
X194422865Y-121094329D01*
X194430548Y-121096000D01*
X195928000Y-121096000D01*
X195996121Y-121116002D01*
X196042614Y-121169658D01*
X196054000Y-121222000D01*
X196054000Y-121478000D01*
X196033998Y-121546121D01*
X195980342Y-121592614D01*
X195928000Y-121604000D01*
X194435116Y-121604000D01*
X194419877Y-121608475D01*
X194418672Y-121609865D01*
X194417001Y-121617548D01*
X194417001Y-121797095D01*
X194417338Y-121803614D01*
X194427257Y-121899206D01*
X194430149Y-121912600D01*
X194481588Y-122066784D01*
X194487761Y-122079962D01*
X194573063Y-122217807D01*
X194582099Y-122229208D01*
X194629300Y-122276327D01*
X194663379Y-122338610D01*
X194658376Y-122409430D01*
X194615879Y-122466303D01*
X194549380Y-122491171D01*
X194540282Y-122491500D01*
X193260392Y-122491500D01*
X193192271Y-122471498D01*
X193145778Y-122417842D01*
X193135674Y-122347568D01*
X193165168Y-122282988D01*
X193171219Y-122276483D01*
X193219130Y-122228488D01*
X193219134Y-122228483D01*
X193224305Y-122223303D01*
X193231486Y-122211653D01*
X193313275Y-122078968D01*
X193313276Y-122078966D01*
X193317115Y-122072738D01*
X193372797Y-121904861D01*
X193383500Y-121800400D01*
X193383500Y-121059500D01*
X193403502Y-120991379D01*
X193457158Y-120944886D01*
X193509500Y-120933500D01*
X194291000Y-120933500D01*
X194359121Y-120953502D01*
G37*
%TD.AperFunction*%
%TA.AperFunction,Conductor*%
G36*
X201466855Y-105928502D02*
G01*
X201513348Y-105982158D01*
X201523452Y-106052432D01*
X201493958Y-106117012D01*
X201471256Y-106135956D01*
X201471727Y-106136563D01*
X201465466Y-106141420D01*
X201458638Y-106145458D01*
X201444317Y-106159779D01*
X201429284Y-106172619D01*
X201412893Y-106184528D01*
X201384702Y-106218605D01*
X201376712Y-106227384D01*
X200993632Y-106610464D01*
X200931320Y-106644490D01*
X200882442Y-106645416D01*
X200868284Y-106642894D01*
X200794452Y-106641992D01*
X200650081Y-106640228D01*
X200650079Y-106640228D01*
X200644911Y-106640165D01*
X200424091Y-106673955D01*
X200211756Y-106743357D01*
X200138757Y-106781358D01*
X200060585Y-106822052D01*
X200013607Y-106846507D01*
X200009474Y-106849610D01*
X200009471Y-106849612D01*
X199839100Y-106977530D01*
X199834965Y-106980635D01*
X199778537Y-107039684D01*
X199754283Y-107065064D01*
X199692759Y-107100494D01*
X199621846Y-107097037D01*
X199564060Y-107055791D01*
X199545207Y-107022243D01*
X199503767Y-106911703D01*
X199500615Y-106903295D01*
X199413261Y-106786739D01*
X199296705Y-106699385D01*
X199160316Y-106648255D01*
X199098134Y-106641500D01*
X197301866Y-106641500D01*
X197239684Y-106648255D01*
X197103295Y-106699385D01*
X196986739Y-106786739D01*
X196899385Y-106903295D01*
X196848255Y-107039684D01*
X196841500Y-107101866D01*
X196841500Y-108898134D01*
X196848255Y-108960316D01*
X196899385Y-109096705D01*
X196986739Y-109213261D01*
X197103295Y-109300615D01*
X197239684Y-109351745D01*
X197301866Y-109358500D01*
X199098134Y-109358500D01*
X199160316Y-109351745D01*
X199296705Y-109300615D01*
X199413261Y-109213261D01*
X199500615Y-109096705D01*
X199514353Y-109060060D01*
X199544598Y-108979382D01*
X199587240Y-108922618D01*
X199653802Y-108897918D01*
X199723150Y-108913126D01*
X199757817Y-108941114D01*
X199786250Y-108973938D01*
X199958126Y-109116632D01*
X200151000Y-109229338D01*
X200155825Y-109231180D01*
X200155826Y-109231181D01*
X200159419Y-109232553D01*
X200359692Y-109309030D01*
X200364760Y-109310061D01*
X200364763Y-109310062D01*
X200430956Y-109323529D01*
X200578597Y-109353567D01*
X200583772Y-109353757D01*
X200583774Y-109353757D01*
X200796673Y-109361564D01*
X200796677Y-109361564D01*
X200801837Y-109361753D01*
X200806957Y-109361097D01*
X200806959Y-109361097D01*
X201018288Y-109334025D01*
X201018289Y-109334025D01*
X201023416Y-109333368D01*
X201028368Y-109331882D01*
X201028374Y-109331881D01*
X201056212Y-109323529D01*
X201127208Y-109323111D01*
X201187158Y-109361143D01*
X201217031Y-109425549D01*
X201207341Y-109495881D01*
X201181516Y-109533309D01*
X201135230Y-109579595D01*
X201072918Y-109613621D01*
X201046135Y-109616500D01*
X200599600Y-109616500D01*
X200596354Y-109616837D01*
X200596350Y-109616837D01*
X200500692Y-109626762D01*
X200500688Y-109626763D01*
X200493834Y-109627474D01*
X200487298Y-109629655D01*
X200487296Y-109629655D01*
X200389781Y-109662189D01*
X200326054Y-109683450D01*
X200175652Y-109776522D01*
X200050695Y-109901697D01*
X200046855Y-109907927D01*
X200046854Y-109907928D01*
X199968693Y-110034729D01*
X199957885Y-110052262D01*
X199952141Y-110069579D01*
X199914356Y-110183500D01*
X199902203Y-110220139D01*
X199901503Y-110226975D01*
X199901502Y-110226978D01*
X199900259Y-110239110D01*
X199891500Y-110324600D01*
X199891500Y-111675400D01*
X199891837Y-111678646D01*
X199891837Y-111678650D01*
X199901629Y-111773021D01*
X199902474Y-111781166D01*
X199958450Y-111948946D01*
X199962306Y-111955177D01*
X200025098Y-112056648D01*
X200043936Y-112125100D01*
X200022775Y-112192870D01*
X200007049Y-112212046D01*
X199874500Y-112344595D01*
X199812188Y-112378621D01*
X199785405Y-112381500D01*
X199033498Y-112381500D01*
X199031050Y-112381693D01*
X199031042Y-112381693D01*
X199002579Y-112383933D01*
X199002574Y-112383934D01*
X198996169Y-112384438D01*
X198896231Y-112413472D01*
X198844012Y-112428643D01*
X198844010Y-112428644D01*
X198836399Y-112430855D01*
X198829572Y-112434892D01*
X198829573Y-112434892D01*
X198700020Y-112511509D01*
X198700017Y-112511511D01*
X198693193Y-112515547D01*
X198575547Y-112633193D01*
X198571511Y-112640017D01*
X198571509Y-112640020D01*
X198536869Y-112698594D01*
X198490855Y-112776399D01*
X198488644Y-112784010D01*
X198488643Y-112784012D01*
X198480497Y-112812051D01*
X198444438Y-112936169D01*
X198441500Y-112973498D01*
X198441500Y-113406502D01*
X198444438Y-113443831D01*
X198465626Y-113516760D01*
X198488643Y-113595986D01*
X198490855Y-113603601D01*
X198575547Y-113746807D01*
X198578229Y-113749489D01*
X198603502Y-113813861D01*
X198589600Y-113883484D01*
X198579428Y-113899312D01*
X198575547Y-113903193D01*
X198490855Y-114046399D01*
X198488644Y-114054010D01*
X198488643Y-114054012D01*
X198484201Y-114069301D01*
X198444438Y-114206169D01*
X198443934Y-114212574D01*
X198443933Y-114212579D01*
X198441693Y-114241042D01*
X198441500Y-114243498D01*
X198441500Y-114676502D01*
X198444438Y-114713831D01*
X198468893Y-114798005D01*
X198475664Y-114821311D01*
X198490855Y-114873601D01*
X198510231Y-114906363D01*
X198527689Y-114975178D01*
X198505172Y-115042509D01*
X198449827Y-115086978D01*
X198401776Y-115096500D01*
X198148767Y-115096500D01*
X198137584Y-115095973D01*
X198130091Y-115094298D01*
X198122165Y-115094547D01*
X198122164Y-115094547D01*
X198062001Y-115096438D01*
X198058043Y-115096500D01*
X198030144Y-115096500D01*
X198026154Y-115097004D01*
X198014320Y-115097936D01*
X197970111Y-115099326D01*
X197962497Y-115101538D01*
X197962492Y-115101539D01*
X197950659Y-115104977D01*
X197931296Y-115108988D01*
X197911203Y-115111526D01*
X197903836Y-115114443D01*
X197903831Y-115114444D01*
X197870092Y-115127802D01*
X197858865Y-115131646D01*
X197816407Y-115143982D01*
X197809581Y-115148019D01*
X197798972Y-115154293D01*
X197781224Y-115162988D01*
X197762383Y-115170448D01*
X197755967Y-115175110D01*
X197755966Y-115175110D01*
X197726613Y-115196436D01*
X197716693Y-115202952D01*
X197685465Y-115221420D01*
X197685462Y-115221422D01*
X197678638Y-115225458D01*
X197664317Y-115239779D01*
X197649284Y-115252619D01*
X197632893Y-115264528D01*
X197622826Y-115276697D01*
X197604702Y-115298605D01*
X197596712Y-115307384D01*
X196048595Y-116855500D01*
X195986283Y-116889526D01*
X195915467Y-116884461D01*
X195858632Y-116841914D01*
X195833821Y-116775394D01*
X195833500Y-116766405D01*
X195833500Y-114203767D01*
X195834027Y-114192584D01*
X195835702Y-114185091D01*
X195835279Y-114171617D01*
X195833562Y-114117014D01*
X195833500Y-114113055D01*
X195833500Y-114085144D01*
X195832995Y-114081144D01*
X195832062Y-114069301D01*
X195831582Y-114054012D01*
X195830673Y-114025110D01*
X195825022Y-114005658D01*
X195821014Y-113986306D01*
X195819467Y-113974063D01*
X195818474Y-113966203D01*
X195815556Y-113958832D01*
X195802200Y-113925097D01*
X195798355Y-113913870D01*
X195795253Y-113903193D01*
X195786018Y-113871407D01*
X195775707Y-113853972D01*
X195767012Y-113836224D01*
X195759552Y-113817383D01*
X195753975Y-113809706D01*
X195733564Y-113781613D01*
X195727048Y-113771693D01*
X195708580Y-113740465D01*
X195708578Y-113740462D01*
X195704542Y-113733638D01*
X195690221Y-113719317D01*
X195677380Y-113704283D01*
X195670131Y-113694306D01*
X195665472Y-113687893D01*
X195631395Y-113659702D01*
X195622616Y-113651712D01*
X194638103Y-112667198D01*
X194604077Y-112604886D01*
X194601854Y-112565263D01*
X194608500Y-112500400D01*
X194608500Y-111749600D01*
X194605906Y-111724600D01*
X194598238Y-111650692D01*
X194598237Y-111650688D01*
X194597526Y-111643834D01*
X194594079Y-111633500D01*
X194543868Y-111483002D01*
X194541550Y-111476054D01*
X194448478Y-111325652D01*
X194323303Y-111200695D01*
X194292494Y-111181704D01*
X194178968Y-111111725D01*
X194178966Y-111111724D01*
X194172738Y-111107885D01*
X194034953Y-111062184D01*
X194011389Y-111054368D01*
X194011387Y-111054368D01*
X194004861Y-111052203D01*
X193998025Y-111051503D01*
X193998022Y-111051502D01*
X193954969Y-111047091D01*
X193900400Y-111041500D01*
X192499600Y-111041500D01*
X192496354Y-111041837D01*
X192496350Y-111041837D01*
X192400692Y-111051762D01*
X192400688Y-111051763D01*
X192393834Y-111052474D01*
X192387298Y-111054655D01*
X192387296Y-111054655D01*
X192336812Y-111071498D01*
X192226054Y-111108450D01*
X192075652Y-111201522D01*
X192070479Y-111206704D01*
X192070474Y-111206708D01*
X191951738Y-111325652D01*
X191889456Y-111359732D01*
X191818636Y-111354729D01*
X191773547Y-111325808D01*
X191703483Y-111255866D01*
X191698303Y-111250695D01*
X191692072Y-111246854D01*
X191553968Y-111161725D01*
X191553966Y-111161724D01*
X191547738Y-111157885D01*
X191410321Y-111112306D01*
X191386389Y-111104368D01*
X191386387Y-111104368D01*
X191379861Y-111102203D01*
X191373025Y-111101503D01*
X191373022Y-111101502D01*
X191329969Y-111097091D01*
X191275400Y-111091500D01*
X190039595Y-111091500D01*
X189971474Y-111071498D01*
X189950499Y-111054595D01*
X189347121Y-110451216D01*
X189313096Y-110388904D01*
X189310907Y-110375291D01*
X189294232Y-110216635D01*
X189294232Y-110216633D01*
X189293542Y-110210072D01*
X189234527Y-110028444D01*
X189215468Y-109995432D01*
X189175848Y-109926810D01*
X189139040Y-109863056D01*
X189122158Y-109844306D01*
X189015675Y-109726045D01*
X189015674Y-109726044D01*
X189011253Y-109721134D01*
X188893258Y-109635405D01*
X188862094Y-109612763D01*
X188862093Y-109612762D01*
X188856752Y-109608882D01*
X188850724Y-109606198D01*
X188850722Y-109606197D01*
X188688319Y-109533891D01*
X188688318Y-109533891D01*
X188682288Y-109531206D01*
X188588887Y-109511353D01*
X188501944Y-109492872D01*
X188501939Y-109492872D01*
X188495487Y-109491500D01*
X188304513Y-109491500D01*
X188298061Y-109492872D01*
X188298056Y-109492872D01*
X188211113Y-109511353D01*
X188117712Y-109531206D01*
X188111682Y-109533891D01*
X188111681Y-109533891D01*
X187949278Y-109606197D01*
X187949276Y-109606198D01*
X187943248Y-109608882D01*
X187937907Y-109612762D01*
X187937906Y-109612763D01*
X187906742Y-109635405D01*
X187788747Y-109721134D01*
X187784326Y-109726044D01*
X187778137Y-109732918D01*
X187717692Y-109770159D01*
X187646708Y-109768808D01*
X187587723Y-109729295D01*
X187559464Y-109664164D01*
X187558500Y-109648609D01*
X187558500Y-109467870D01*
X187578502Y-109399749D01*
X187632158Y-109353256D01*
X187640270Y-109349888D01*
X187763297Y-109303767D01*
X187771705Y-109300615D01*
X187888261Y-109213261D01*
X187975615Y-109096705D01*
X187989353Y-109060060D01*
X188019598Y-108979382D01*
X188062240Y-108922618D01*
X188128802Y-108897918D01*
X188198150Y-108913126D01*
X188232817Y-108941114D01*
X188261250Y-108973938D01*
X188433126Y-109116632D01*
X188626000Y-109229338D01*
X188630825Y-109231180D01*
X188630826Y-109231181D01*
X188634419Y-109232553D01*
X188834692Y-109309030D01*
X188839760Y-109310061D01*
X188839763Y-109310062D01*
X188905956Y-109323529D01*
X189053597Y-109353567D01*
X189058772Y-109353757D01*
X189058774Y-109353757D01*
X189271673Y-109361564D01*
X189271677Y-109361564D01*
X189276837Y-109361753D01*
X189281957Y-109361097D01*
X189281959Y-109361097D01*
X189493288Y-109334025D01*
X189493289Y-109334025D01*
X189498416Y-109333368D01*
X189503366Y-109331883D01*
X189707429Y-109270661D01*
X189707434Y-109270659D01*
X189712384Y-109269174D01*
X189912994Y-109170896D01*
X190094860Y-109041173D01*
X190253096Y-108883489D01*
X190258728Y-108875652D01*
X190383453Y-108702077D01*
X190384640Y-108702930D01*
X190431960Y-108659362D01*
X190501897Y-108647145D01*
X190567338Y-108674678D01*
X190595166Y-108706511D01*
X190652694Y-108800388D01*
X190658777Y-108808699D01*
X190798213Y-108969667D01*
X190805580Y-108976883D01*
X190969434Y-109112916D01*
X190977881Y-109118831D01*
X191161756Y-109226279D01*
X191171042Y-109230729D01*
X191370001Y-109306703D01*
X191379899Y-109309579D01*
X191483250Y-109330606D01*
X191497299Y-109329410D01*
X191501000Y-109319065D01*
X191501000Y-109318517D01*
X192009000Y-109318517D01*
X192013064Y-109332359D01*
X192026478Y-109334393D01*
X192033184Y-109333534D01*
X192043262Y-109331392D01*
X192247255Y-109270191D01*
X192256842Y-109266433D01*
X192448095Y-109172739D01*
X192456945Y-109167464D01*
X192630328Y-109043792D01*
X192638200Y-109037139D01*
X192789052Y-108886812D01*
X192795730Y-108878965D01*
X192920003Y-108706020D01*
X192925313Y-108697183D01*
X193019670Y-108506267D01*
X193023469Y-108496672D01*
X193085377Y-108292910D01*
X193087555Y-108282837D01*
X193088986Y-108271962D01*
X193086775Y-108257778D01*
X193073617Y-108254000D01*
X192027115Y-108254000D01*
X192011876Y-108258475D01*
X192010671Y-108259865D01*
X192009000Y-108267548D01*
X192009000Y-109318517D01*
X191501000Y-109318517D01*
X191501000Y-107727885D01*
X192009000Y-107727885D01*
X192013475Y-107743124D01*
X192014865Y-107744329D01*
X192022548Y-107746000D01*
X193073344Y-107746000D01*
X193086875Y-107742027D01*
X193088180Y-107732947D01*
X193046214Y-107565875D01*
X193042894Y-107556124D01*
X192957972Y-107360814D01*
X192953105Y-107351739D01*
X192837426Y-107172926D01*
X192831136Y-107164757D01*
X192687806Y-107007240D01*
X192680273Y-107000215D01*
X192513139Y-106868222D01*
X192504552Y-106862517D01*
X192318117Y-106759599D01*
X192308705Y-106755369D01*
X192107959Y-106684280D01*
X192097988Y-106681646D01*
X192026837Y-106668972D01*
X192013540Y-106670432D01*
X192009000Y-106684989D01*
X192009000Y-107727885D01*
X191501000Y-107727885D01*
X191501000Y-106683102D01*
X191497082Y-106669758D01*
X191482806Y-106667771D01*
X191444324Y-106673660D01*
X191434288Y-106676051D01*
X191231868Y-106742212D01*
X191222359Y-106746209D01*
X191033463Y-106844542D01*
X191024738Y-106850036D01*
X190854433Y-106977905D01*
X190846726Y-106984748D01*
X190699590Y-107138717D01*
X190693109Y-107146722D01*
X190588498Y-107300074D01*
X190533587Y-107345076D01*
X190463062Y-107353247D01*
X190399315Y-107321993D01*
X190378618Y-107297509D01*
X190297822Y-107172617D01*
X190297820Y-107172614D01*
X190295014Y-107168277D01*
X190144670Y-107003051D01*
X190140619Y-106999852D01*
X190140615Y-106999848D01*
X189973414Y-106867800D01*
X189973410Y-106867798D01*
X189969359Y-106864598D01*
X189933028Y-106844542D01*
X189892287Y-106822052D01*
X189773789Y-106756638D01*
X189768920Y-106754914D01*
X189768916Y-106754912D01*
X189568087Y-106683795D01*
X189568083Y-106683794D01*
X189563212Y-106682069D01*
X189558119Y-106681162D01*
X189558116Y-106681161D01*
X189348373Y-106643800D01*
X189348367Y-106643799D01*
X189343284Y-106642894D01*
X189269452Y-106641992D01*
X189125081Y-106640228D01*
X189125079Y-106640228D01*
X189119911Y-106640165D01*
X188899091Y-106673955D01*
X188686756Y-106743357D01*
X188613757Y-106781358D01*
X188535585Y-106822052D01*
X188488607Y-106846507D01*
X188484474Y-106849610D01*
X188484471Y-106849612D01*
X188314100Y-106977530D01*
X188309965Y-106980635D01*
X188253537Y-107039684D01*
X188229283Y-107065064D01*
X188167759Y-107100494D01*
X188096846Y-107097037D01*
X188039060Y-107055791D01*
X188020207Y-107022243D01*
X187978767Y-106911703D01*
X187975615Y-106903295D01*
X187888261Y-106786739D01*
X187771705Y-106699385D01*
X187635316Y-106648255D01*
X187573134Y-106641500D01*
X185776866Y-106641500D01*
X185714684Y-106648255D01*
X185578295Y-106699385D01*
X185461739Y-106786739D01*
X185374385Y-106903295D01*
X185371233Y-106911703D01*
X185325112Y-107034730D01*
X185282470Y-107091494D01*
X185215909Y-107116194D01*
X185207130Y-107116500D01*
X184479457Y-107116500D01*
X184459745Y-107114949D01*
X184453008Y-107113882D01*
X184453009Y-107113882D01*
X184446493Y-107112850D01*
X184439906Y-107113195D01*
X184439902Y-107113195D01*
X184380150Y-107116327D01*
X184373555Y-107116500D01*
X184353694Y-107116500D01*
X184333931Y-107118577D01*
X184327372Y-107119093D01*
X184311573Y-107119921D01*
X184267623Y-107122224D01*
X184267619Y-107122225D01*
X184261029Y-107122570D01*
X184248071Y-107126042D01*
X184228628Y-107129645D01*
X184215298Y-107131046D01*
X184152106Y-107151578D01*
X184145804Y-107153444D01*
X184104704Y-107164457D01*
X184081637Y-107170638D01*
X184075758Y-107173634D01*
X184075749Y-107173637D01*
X184069683Y-107176728D01*
X184051421Y-107184292D01*
X184044958Y-107186392D01*
X184044953Y-107186394D01*
X184038669Y-107188436D01*
X183981119Y-107221663D01*
X183975366Y-107224786D01*
X183916161Y-107254952D01*
X183911027Y-107259109D01*
X183911026Y-107259110D01*
X183905737Y-107263393D01*
X183889449Y-107274588D01*
X183877831Y-107281296D01*
X183872925Y-107285713D01*
X183872920Y-107285717D01*
X183828462Y-107325747D01*
X183823447Y-107330031D01*
X183823035Y-107330365D01*
X183808015Y-107342528D01*
X183793979Y-107356564D01*
X183789194Y-107361105D01*
X183739815Y-107405566D01*
X183735935Y-107410906D01*
X183735928Y-107410914D01*
X183731927Y-107416422D01*
X183719086Y-107431457D01*
X180195947Y-110954595D01*
X180133635Y-110988621D01*
X180106852Y-110991500D01*
X179624600Y-110991500D01*
X179621354Y-110991837D01*
X179621350Y-110991837D01*
X179525692Y-111001762D01*
X179525688Y-111001763D01*
X179518834Y-111002474D01*
X179512298Y-111004655D01*
X179512296Y-111004655D01*
X179401859Y-111041500D01*
X179351054Y-111058450D01*
X179200652Y-111151522D01*
X179075695Y-111276697D01*
X179071855Y-111282927D01*
X179071854Y-111282928D01*
X179041680Y-111331880D01*
X178982885Y-111427262D01*
X178968768Y-111469824D01*
X178931567Y-111581983D01*
X178927203Y-111595139D01*
X178926503Y-111601975D01*
X178926502Y-111601978D01*
X178923266Y-111633562D01*
X178916500Y-111699600D01*
X178916500Y-113100400D01*
X178916837Y-113103646D01*
X178916837Y-113103650D01*
X178926752Y-113199206D01*
X178927474Y-113206166D01*
X178929655Y-113212702D01*
X178929655Y-113212704D01*
X178940565Y-113245405D01*
X178983450Y-113373946D01*
X179076522Y-113524348D01*
X179081704Y-113529521D01*
X179086249Y-113535255D01*
X179084576Y-113536581D01*
X179113598Y-113589625D01*
X179116500Y-113616511D01*
X179116500Y-115108563D01*
X179096498Y-115176684D01*
X179079673Y-115197581D01*
X179037549Y-115239779D01*
X179000695Y-115276697D01*
X178996855Y-115282927D01*
X178996854Y-115282928D01*
X178988541Y-115296415D01*
X178907885Y-115427262D01*
X178852203Y-115595139D01*
X178841500Y-115699600D01*
X178841500Y-117100400D01*
X178841837Y-117103646D01*
X178841837Y-117103650D01*
X178851752Y-117199206D01*
X178852474Y-117206166D01*
X178908450Y-117373946D01*
X178947645Y-117437283D01*
X178966500Y-117503585D01*
X178966500Y-118933563D01*
X178946498Y-119001684D01*
X178929673Y-119022581D01*
X178901608Y-119050695D01*
X178850695Y-119101697D01*
X178846855Y-119107927D01*
X178846854Y-119107928D01*
X178763139Y-119243739D01*
X178757885Y-119252262D01*
X178746639Y-119286169D01*
X178706230Y-119407999D01*
X178702203Y-119420139D01*
X178691500Y-119524600D01*
X178691500Y-120875400D01*
X178691837Y-120878646D01*
X178691837Y-120878650D01*
X178699604Y-120953502D01*
X178702474Y-120981166D01*
X178704655Y-120987702D01*
X178704655Y-120987704D01*
X178712524Y-121011290D01*
X178758450Y-121148946D01*
X178851522Y-121299348D01*
X178976697Y-121424305D01*
X178982927Y-121428145D01*
X178982928Y-121428146D01*
X179120090Y-121512694D01*
X179127262Y-121517115D01*
X179187934Y-121537239D01*
X179288611Y-121570632D01*
X179288613Y-121570632D01*
X179295139Y-121572797D01*
X179301975Y-121573497D01*
X179301978Y-121573498D01*
X179345031Y-121577909D01*
X179399600Y-121583500D01*
X180300400Y-121583500D01*
X180303646Y-121583163D01*
X180303650Y-121583163D01*
X180399308Y-121573238D01*
X180399312Y-121573237D01*
X180406166Y-121572526D01*
X180412702Y-121570345D01*
X180412704Y-121570345D01*
X180544806Y-121526272D01*
X180573946Y-121516550D01*
X180724348Y-121423478D01*
X180849305Y-121298303D01*
X180885956Y-121238844D01*
X180938275Y-121153968D01*
X180938276Y-121153966D01*
X180942115Y-121147738D01*
X180975038Y-121048478D01*
X180995632Y-120986389D01*
X180995632Y-120986387D01*
X180997797Y-120979861D01*
X180999518Y-120963069D01*
X181004262Y-120916760D01*
X181008500Y-120875400D01*
X181008500Y-119524600D01*
X181004271Y-119483839D01*
X180998238Y-119425692D01*
X180998237Y-119425688D01*
X180997526Y-119418834D01*
X180993912Y-119408000D01*
X180943868Y-119258002D01*
X180941550Y-119251054D01*
X180848478Y-119100652D01*
X180770482Y-119022791D01*
X180736403Y-118960510D01*
X180733500Y-118933619D01*
X180733500Y-117691437D01*
X180753502Y-117623316D01*
X180770327Y-117602419D01*
X180844134Y-117528483D01*
X180849305Y-117523303D01*
X180859257Y-117507158D01*
X180938275Y-117378968D01*
X180938276Y-117378966D01*
X180942115Y-117372738D01*
X180980406Y-117257294D01*
X180995632Y-117211389D01*
X180995632Y-117211387D01*
X180997797Y-117204861D01*
X181008500Y-117100400D01*
X181008500Y-117097095D01*
X181792001Y-117097095D01*
X181792338Y-117103614D01*
X181802257Y-117199206D01*
X181805149Y-117212600D01*
X181856588Y-117366784D01*
X181862761Y-117379962D01*
X181948063Y-117517807D01*
X181957099Y-117529208D01*
X182071829Y-117643739D01*
X182083240Y-117652751D01*
X182221243Y-117737816D01*
X182234424Y-117743963D01*
X182388710Y-117795138D01*
X182402086Y-117798005D01*
X182496438Y-117807672D01*
X182502854Y-117808000D01*
X182602885Y-117808000D01*
X182618124Y-117803525D01*
X182619329Y-117802135D01*
X182621000Y-117794452D01*
X182621000Y-117789884D01*
X183129000Y-117789884D01*
X183133475Y-117805123D01*
X183134865Y-117806328D01*
X183142548Y-117807999D01*
X183247095Y-117807999D01*
X183253614Y-117807662D01*
X183349206Y-117797743D01*
X183362600Y-117794851D01*
X183516784Y-117743412D01*
X183529962Y-117737239D01*
X183667807Y-117651937D01*
X183679208Y-117642901D01*
X183793739Y-117528171D01*
X183802751Y-117516760D01*
X183887816Y-117378757D01*
X183893963Y-117365576D01*
X183945138Y-117211290D01*
X183948005Y-117197914D01*
X183957672Y-117103562D01*
X183958000Y-117097146D01*
X183958000Y-116672115D01*
X183953525Y-116656876D01*
X183952135Y-116655671D01*
X183944452Y-116654000D01*
X183147115Y-116654000D01*
X183131876Y-116658475D01*
X183130671Y-116659865D01*
X183129000Y-116667548D01*
X183129000Y-117789884D01*
X182621000Y-117789884D01*
X182621000Y-116672115D01*
X182616525Y-116656876D01*
X182615135Y-116655671D01*
X182607452Y-116654000D01*
X181810116Y-116654000D01*
X181794877Y-116658475D01*
X181793672Y-116659865D01*
X181792001Y-116667548D01*
X181792001Y-117097095D01*
X181008500Y-117097095D01*
X181008500Y-116127885D01*
X181792000Y-116127885D01*
X181796475Y-116143124D01*
X181797865Y-116144329D01*
X181805548Y-116146000D01*
X182602885Y-116146000D01*
X182618124Y-116141525D01*
X182619329Y-116140135D01*
X182621000Y-116132452D01*
X182621000Y-116127885D01*
X183129000Y-116127885D01*
X183133475Y-116143124D01*
X183134865Y-116144329D01*
X183142548Y-116146000D01*
X183939884Y-116146000D01*
X183955123Y-116141525D01*
X183956328Y-116140135D01*
X183957999Y-116132452D01*
X183957999Y-115702905D01*
X183957662Y-115696386D01*
X183947743Y-115600794D01*
X183944851Y-115587400D01*
X183893412Y-115433216D01*
X183887239Y-115420038D01*
X183801937Y-115282193D01*
X183792901Y-115270792D01*
X183678171Y-115156261D01*
X183666760Y-115147249D01*
X183528757Y-115062184D01*
X183515576Y-115056037D01*
X183361290Y-115004862D01*
X183347914Y-115001995D01*
X183253562Y-114992328D01*
X183247145Y-114992000D01*
X183147115Y-114992000D01*
X183131876Y-114996475D01*
X183130671Y-114997865D01*
X183129000Y-115005548D01*
X183129000Y-116127885D01*
X182621000Y-116127885D01*
X182621000Y-115010116D01*
X182616525Y-114994877D01*
X182615135Y-114993672D01*
X182607452Y-114992001D01*
X182502905Y-114992001D01*
X182496386Y-114992338D01*
X182400794Y-115002257D01*
X182387400Y-115005149D01*
X182233216Y-115056588D01*
X182220038Y-115062761D01*
X182082193Y-115148063D01*
X182070792Y-115157099D01*
X181956261Y-115271829D01*
X181947249Y-115283240D01*
X181862184Y-115421243D01*
X181856037Y-115434424D01*
X181804862Y-115588710D01*
X181801995Y-115602086D01*
X181792328Y-115696438D01*
X181792000Y-115702855D01*
X181792000Y-116127885D01*
X181008500Y-116127885D01*
X181008500Y-115699600D01*
X181008163Y-115696350D01*
X180998238Y-115600692D01*
X180998237Y-115600688D01*
X180997526Y-115593834D01*
X180941550Y-115426054D01*
X180902355Y-115362717D01*
X180883500Y-115296415D01*
X180883500Y-113616306D01*
X180903502Y-113548185D01*
X180914683Y-113534298D01*
X180914596Y-113534229D01*
X180919134Y-113528483D01*
X180924305Y-113523303D01*
X180933668Y-113508113D01*
X181013275Y-113378968D01*
X181013276Y-113378966D01*
X181017115Y-113372738D01*
X181072797Y-113204861D01*
X181075359Y-113179861D01*
X181078999Y-113144329D01*
X181083500Y-113100400D01*
X181083500Y-113097095D01*
X181867001Y-113097095D01*
X181867338Y-113103614D01*
X181877257Y-113199206D01*
X181880149Y-113212600D01*
X181931588Y-113366784D01*
X181937761Y-113379962D01*
X182023063Y-113517807D01*
X182032099Y-113529208D01*
X182146829Y-113643739D01*
X182158240Y-113652751D01*
X182296243Y-113737816D01*
X182309424Y-113743963D01*
X182463710Y-113795138D01*
X182477086Y-113798005D01*
X182571438Y-113807672D01*
X182577854Y-113808000D01*
X182677885Y-113808000D01*
X182693124Y-113803525D01*
X182694329Y-113802135D01*
X182696000Y-113794452D01*
X182696000Y-112672115D01*
X182691525Y-112656876D01*
X182690135Y-112655671D01*
X182682452Y-112654000D01*
X181885116Y-112654000D01*
X181869877Y-112658475D01*
X181868672Y-112659865D01*
X181867001Y-112667548D01*
X181867001Y-113097095D01*
X181083500Y-113097095D01*
X181083500Y-112618148D01*
X181103502Y-112550027D01*
X181120405Y-112529053D01*
X181651905Y-111997553D01*
X181714217Y-111963527D01*
X181785032Y-111968592D01*
X181841868Y-112011139D01*
X181866679Y-112077659D01*
X181867000Y-112086648D01*
X181867000Y-112127885D01*
X181871475Y-112143124D01*
X181872865Y-112144329D01*
X181880548Y-112146000D01*
X182677885Y-112146000D01*
X182693124Y-112141525D01*
X182694329Y-112140135D01*
X182696000Y-112132452D01*
X182696000Y-111005648D01*
X182716002Y-110937527D01*
X182732905Y-110916553D01*
X184729052Y-108920405D01*
X184791364Y-108886380D01*
X184818147Y-108883500D01*
X185207130Y-108883500D01*
X185275251Y-108903502D01*
X185321744Y-108957158D01*
X185325112Y-108965270D01*
X185360647Y-109060060D01*
X185374385Y-109096705D01*
X185461739Y-109213261D01*
X185468919Y-109218642D01*
X185468920Y-109218643D01*
X185530339Y-109264674D01*
X185572854Y-109321533D01*
X185577880Y-109392352D01*
X185543820Y-109454645D01*
X185481489Y-109488635D01*
X185454774Y-109491500D01*
X185304513Y-109491500D01*
X185298061Y-109492872D01*
X185298056Y-109492872D01*
X185211113Y-109511353D01*
X185117712Y-109531206D01*
X185111682Y-109533891D01*
X185111681Y-109533891D01*
X184949278Y-109606197D01*
X184949276Y-109606198D01*
X184943248Y-109608882D01*
X184937907Y-109612762D01*
X184937906Y-109612763D01*
X184906742Y-109635405D01*
X184788747Y-109721134D01*
X184784326Y-109726044D01*
X184784325Y-109726045D01*
X184677843Y-109844306D01*
X184660960Y-109863056D01*
X184624152Y-109926810D01*
X184584533Y-109995432D01*
X184565473Y-110028444D01*
X184506458Y-110210072D01*
X184505768Y-110216633D01*
X184505768Y-110216635D01*
X184497090Y-110299206D01*
X184486496Y-110400000D01*
X184506458Y-110589928D01*
X184565473Y-110771556D01*
X184568776Y-110777278D01*
X184568777Y-110777279D01*
X184599619Y-110830698D01*
X184616500Y-110893698D01*
X184616500Y-110962484D01*
X184596498Y-111030605D01*
X184542842Y-111077098D01*
X184535126Y-111080137D01*
X184533003Y-111081132D01*
X184526054Y-111083450D01*
X184375652Y-111176522D01*
X184250695Y-111301697D01*
X184246855Y-111307927D01*
X184246854Y-111307928D01*
X184177254Y-111420839D01*
X184124481Y-111468333D01*
X184054410Y-111479755D01*
X183989286Y-111451481D01*
X183962850Y-111421026D01*
X183876937Y-111282193D01*
X183867901Y-111270792D01*
X183753171Y-111156261D01*
X183741760Y-111147249D01*
X183603757Y-111062184D01*
X183590576Y-111056037D01*
X183436290Y-111004862D01*
X183422914Y-111001995D01*
X183328562Y-110992328D01*
X183322145Y-110992000D01*
X183222115Y-110992000D01*
X183206876Y-110996475D01*
X183205671Y-110997865D01*
X183204000Y-111005548D01*
X183204000Y-113789884D01*
X183208475Y-113805123D01*
X183209865Y-113806328D01*
X183217548Y-113807999D01*
X183322095Y-113807999D01*
X183328614Y-113807662D01*
X183424206Y-113797743D01*
X183437600Y-113794851D01*
X183591784Y-113743412D01*
X183604962Y-113737239D01*
X183742807Y-113651937D01*
X183754208Y-113642901D01*
X183868739Y-113528171D01*
X183877751Y-113516760D01*
X183962598Y-113379112D01*
X184015370Y-113331619D01*
X184085442Y-113320195D01*
X184150566Y-113348469D01*
X184177001Y-113378924D01*
X184251522Y-113499348D01*
X184376697Y-113624305D01*
X184382927Y-113628145D01*
X184382928Y-113628146D01*
X184520090Y-113712694D01*
X184527262Y-113717115D01*
X184606545Y-113743412D01*
X184688611Y-113770632D01*
X184688613Y-113770632D01*
X184695139Y-113772797D01*
X184701975Y-113773497D01*
X184701978Y-113773498D01*
X184734286Y-113776808D01*
X184799600Y-113783500D01*
X185700400Y-113783500D01*
X185703646Y-113783163D01*
X185703650Y-113783163D01*
X185799308Y-113773238D01*
X185799312Y-113773237D01*
X185806166Y-113772526D01*
X185812702Y-113770345D01*
X185812704Y-113770345D01*
X185944806Y-113726272D01*
X185973946Y-113716550D01*
X186124348Y-113623478D01*
X186249305Y-113498303D01*
X186282882Y-113443831D01*
X186338275Y-113353968D01*
X186338276Y-113353966D01*
X186342115Y-113347738D01*
X186391381Y-113199206D01*
X186395632Y-113186389D01*
X186395632Y-113186387D01*
X186397797Y-113179861D01*
X186401665Y-113142115D01*
X186404230Y-113117072D01*
X186408500Y-113075400D01*
X186408500Y-112012149D01*
X186428502Y-111944028D01*
X186482158Y-111897535D01*
X186552432Y-111887431D01*
X186617012Y-111916925D01*
X186623595Y-111923053D01*
X187154595Y-112454052D01*
X187188620Y-112516365D01*
X187191500Y-112543148D01*
X187191500Y-113075400D01*
X187191837Y-113078646D01*
X187191837Y-113078650D01*
X187198217Y-113140135D01*
X187202474Y-113181166D01*
X187204655Y-113187702D01*
X187204655Y-113187704D01*
X187223202Y-113243296D01*
X187258450Y-113348946D01*
X187351522Y-113499348D01*
X187476697Y-113624305D01*
X187482927Y-113628145D01*
X187482928Y-113628146D01*
X187620090Y-113712694D01*
X187627262Y-113717115D01*
X187706545Y-113743412D01*
X187788611Y-113770632D01*
X187788613Y-113770632D01*
X187795139Y-113772797D01*
X187801977Y-113773498D01*
X187801979Y-113773498D01*
X187870463Y-113780515D01*
X187893403Y-113782865D01*
X187959131Y-113809706D01*
X187969656Y-113819114D01*
X188537948Y-114387405D01*
X188974840Y-114824297D01*
X189008865Y-114886609D01*
X189003801Y-114957424D01*
X188961254Y-115014260D01*
X188894734Y-115039071D01*
X188846078Y-115032985D01*
X188761293Y-115004863D01*
X188747914Y-115001995D01*
X188653562Y-114992328D01*
X188647145Y-114992000D01*
X188547115Y-114992000D01*
X188531876Y-114996475D01*
X188530671Y-114997865D01*
X188529000Y-115005548D01*
X188529000Y-116528000D01*
X188508998Y-116596121D01*
X188455342Y-116642614D01*
X188403000Y-116654000D01*
X187210116Y-116654000D01*
X187194877Y-116658475D01*
X187193672Y-116659865D01*
X187192001Y-116667548D01*
X187192001Y-116865020D01*
X187171999Y-116933141D01*
X187118343Y-116979634D01*
X187066001Y-116991020D01*
X186864114Y-116991020D01*
X186795993Y-116971018D01*
X186775019Y-116954115D01*
X186445405Y-116624501D01*
X186411379Y-116562189D01*
X186408500Y-116535406D01*
X186408500Y-116127885D01*
X187192000Y-116127885D01*
X187196475Y-116143124D01*
X187197865Y-116144329D01*
X187205548Y-116146000D01*
X188002885Y-116146000D01*
X188018124Y-116141525D01*
X188019329Y-116140135D01*
X188021000Y-116132452D01*
X188021000Y-115010116D01*
X188016525Y-114994877D01*
X188015135Y-114993672D01*
X188007452Y-114992001D01*
X187902905Y-114992001D01*
X187896386Y-114992338D01*
X187800794Y-115002257D01*
X187787400Y-115005149D01*
X187633216Y-115056588D01*
X187620038Y-115062761D01*
X187482193Y-115148063D01*
X187470792Y-115157099D01*
X187356261Y-115271829D01*
X187347249Y-115283240D01*
X187262184Y-115421243D01*
X187256037Y-115434424D01*
X187204862Y-115588710D01*
X187201995Y-115602086D01*
X187192328Y-115696438D01*
X187192000Y-115702855D01*
X187192000Y-116127885D01*
X186408500Y-116127885D01*
X186408500Y-115699600D01*
X186408163Y-115696350D01*
X186398238Y-115600692D01*
X186398237Y-115600688D01*
X186397526Y-115593834D01*
X186341550Y-115426054D01*
X186248478Y-115275652D01*
X186123303Y-115150695D01*
X186086164Y-115127802D01*
X185978968Y-115061725D01*
X185978966Y-115061724D01*
X185972738Y-115057885D01*
X185892995Y-115031436D01*
X185811389Y-115004368D01*
X185811387Y-115004368D01*
X185804861Y-115002203D01*
X185798025Y-115001503D01*
X185798022Y-115001502D01*
X185754969Y-114997091D01*
X185700400Y-114991500D01*
X184949600Y-114991500D01*
X184946354Y-114991837D01*
X184946350Y-114991837D01*
X184850692Y-115001762D01*
X184850688Y-115001763D01*
X184843834Y-115002474D01*
X184837298Y-115004655D01*
X184837296Y-115004655D01*
X184741798Y-115036516D01*
X184676054Y-115058450D01*
X184525652Y-115151522D01*
X184400695Y-115276697D01*
X184396855Y-115282927D01*
X184396854Y-115282928D01*
X184388541Y-115296415D01*
X184307885Y-115427262D01*
X184252203Y-115595139D01*
X184241500Y-115699600D01*
X184241500Y-117100400D01*
X184241837Y-117103646D01*
X184241837Y-117103650D01*
X184251752Y-117199206D01*
X184252474Y-117206166D01*
X184308450Y-117373946D01*
X184401522Y-117524348D01*
X184526697Y-117649305D01*
X184612324Y-117702086D01*
X184631616Y-117713978D01*
X184679109Y-117766750D01*
X184691500Y-117821238D01*
X184691500Y-118778689D01*
X184671498Y-118846810D01*
X184631804Y-118885833D01*
X184525652Y-118951522D01*
X184520479Y-118956704D01*
X184491360Y-118985874D01*
X184400695Y-119076697D01*
X184396855Y-119082927D01*
X184396854Y-119082928D01*
X184362309Y-119138971D01*
X184307885Y-119227262D01*
X184297289Y-119259209D01*
X184290393Y-119279999D01*
X184249962Y-119338358D01*
X184184398Y-119365595D01*
X184114516Y-119353061D01*
X184062504Y-119304736D01*
X184051276Y-119280206D01*
X184043869Y-119258004D01*
X184043868Y-119258002D01*
X184041550Y-119251054D01*
X183948478Y-119100652D01*
X183823303Y-118975695D01*
X183800643Y-118961727D01*
X183678968Y-118886725D01*
X183678966Y-118886724D01*
X183672738Y-118882885D01*
X183591793Y-118856037D01*
X183511389Y-118829368D01*
X183511387Y-118829368D01*
X183504861Y-118827203D01*
X183498025Y-118826503D01*
X183498022Y-118826502D01*
X183454969Y-118822091D01*
X183400400Y-118816500D01*
X182499600Y-118816500D01*
X182496354Y-118816837D01*
X182496350Y-118816837D01*
X182400692Y-118826762D01*
X182400688Y-118826763D01*
X182393834Y-118827474D01*
X182387298Y-118829655D01*
X182387296Y-118829655D01*
X182306569Y-118856588D01*
X182226054Y-118883450D01*
X182075652Y-118976522D01*
X182070479Y-118981704D01*
X182061812Y-118990386D01*
X181950695Y-119101697D01*
X181946855Y-119107927D01*
X181946854Y-119107928D01*
X181863139Y-119243739D01*
X181857885Y-119252262D01*
X181846639Y-119286169D01*
X181806230Y-119407999D01*
X181802203Y-119420139D01*
X181791500Y-119524600D01*
X181791500Y-120875400D01*
X181791837Y-120878646D01*
X181791837Y-120878650D01*
X181799604Y-120953502D01*
X181802474Y-120981166D01*
X181804655Y-120987702D01*
X181804655Y-120987704D01*
X181812524Y-121011290D01*
X181858450Y-121148946D01*
X181951522Y-121299348D01*
X182076697Y-121424305D01*
X182082927Y-121428145D01*
X182082928Y-121428146D01*
X182220090Y-121512694D01*
X182227262Y-121517115D01*
X182287934Y-121537239D01*
X182388611Y-121570632D01*
X182388613Y-121570632D01*
X182395139Y-121572797D01*
X182401975Y-121573497D01*
X182401978Y-121573498D01*
X182445031Y-121577909D01*
X182499600Y-121583500D01*
X183400400Y-121583500D01*
X183403646Y-121583163D01*
X183403650Y-121583163D01*
X183499308Y-121573238D01*
X183499312Y-121573237D01*
X183506166Y-121572526D01*
X183512702Y-121570345D01*
X183512704Y-121570345D01*
X183644806Y-121526272D01*
X183673946Y-121516550D01*
X183824348Y-121423478D01*
X183949305Y-121298303D01*
X183985956Y-121238844D01*
X184038275Y-121153968D01*
X184038276Y-121153966D01*
X184042115Y-121147738D01*
X184051291Y-121120073D01*
X184091719Y-121061716D01*
X184157283Y-121034478D01*
X184227165Y-121047011D01*
X184279177Y-121095335D01*
X184290406Y-121119865D01*
X184306129Y-121166993D01*
X184306133Y-121167003D01*
X184308450Y-121173946D01*
X184401522Y-121324348D01*
X184526697Y-121449305D01*
X184532927Y-121453145D01*
X184532928Y-121453146D01*
X184670288Y-121537816D01*
X184677262Y-121542115D01*
X184689340Y-121546121D01*
X184838611Y-121595632D01*
X184838613Y-121595632D01*
X184845139Y-121597797D01*
X184851975Y-121598497D01*
X184851978Y-121598498D01*
X184895031Y-121602909D01*
X184949600Y-121608500D01*
X185700400Y-121608500D01*
X185703646Y-121608163D01*
X185703650Y-121608163D01*
X185799308Y-121598238D01*
X185799312Y-121598237D01*
X185806166Y-121597526D01*
X185812702Y-121595345D01*
X185812704Y-121595345D01*
X185960245Y-121546121D01*
X185973946Y-121541550D01*
X186124348Y-121448478D01*
X186249305Y-121323303D01*
X186253338Y-121316760D01*
X186338275Y-121178968D01*
X186338276Y-121178966D01*
X186342115Y-121172738D01*
X186397797Y-121004861D01*
X186399145Y-120991710D01*
X186404411Y-120940312D01*
X186408500Y-120900400D01*
X186408500Y-120897095D01*
X187192001Y-120897095D01*
X187192338Y-120903614D01*
X187202257Y-120999206D01*
X187205149Y-121012600D01*
X187256588Y-121166784D01*
X187262761Y-121179962D01*
X187348063Y-121317807D01*
X187357099Y-121329208D01*
X187471829Y-121443739D01*
X187483240Y-121452751D01*
X187621243Y-121537816D01*
X187634424Y-121543963D01*
X187788710Y-121595138D01*
X187802086Y-121598005D01*
X187896438Y-121607672D01*
X187902854Y-121608000D01*
X188002885Y-121608000D01*
X188018124Y-121603525D01*
X188019329Y-121602135D01*
X188021000Y-121594452D01*
X188021000Y-121589884D01*
X188529000Y-121589884D01*
X188533475Y-121605123D01*
X188534865Y-121606328D01*
X188542548Y-121607999D01*
X188647095Y-121607999D01*
X188653614Y-121607662D01*
X188749206Y-121597743D01*
X188762600Y-121594851D01*
X188916784Y-121543412D01*
X188929962Y-121537239D01*
X189067807Y-121451937D01*
X189079208Y-121442901D01*
X189193739Y-121328171D01*
X189202751Y-121316760D01*
X189287816Y-121178757D01*
X189293963Y-121165576D01*
X189345138Y-121011290D01*
X189348005Y-120997914D01*
X189357672Y-120903562D01*
X189358000Y-120897146D01*
X189358000Y-120472115D01*
X189353525Y-120456876D01*
X189352135Y-120455671D01*
X189344452Y-120454000D01*
X188547115Y-120454000D01*
X188531876Y-120458475D01*
X188530671Y-120459865D01*
X188529000Y-120467548D01*
X188529000Y-121589884D01*
X188021000Y-121589884D01*
X188021000Y-120472115D01*
X188016525Y-120456876D01*
X188015135Y-120455671D01*
X188007452Y-120454000D01*
X187210116Y-120454000D01*
X187194877Y-120458475D01*
X187193672Y-120459865D01*
X187192001Y-120467548D01*
X187192001Y-120897095D01*
X186408500Y-120897095D01*
X186408500Y-119927885D01*
X187192000Y-119927885D01*
X187196475Y-119943124D01*
X187197865Y-119944329D01*
X187205548Y-119946000D01*
X188002885Y-119946000D01*
X188018124Y-119941525D01*
X188019329Y-119940135D01*
X188021000Y-119932452D01*
X188021000Y-119927885D01*
X188529000Y-119927885D01*
X188533475Y-119943124D01*
X188534865Y-119944329D01*
X188542548Y-119946000D01*
X189339884Y-119946000D01*
X189355123Y-119941525D01*
X189356328Y-119940135D01*
X189357999Y-119932452D01*
X189357999Y-119502905D01*
X189357662Y-119496386D01*
X189347743Y-119400794D01*
X189344851Y-119387400D01*
X189293412Y-119233216D01*
X189287239Y-119220038D01*
X189201937Y-119082193D01*
X189192901Y-119070792D01*
X189078171Y-118956261D01*
X189066760Y-118947249D01*
X188928757Y-118862184D01*
X188915576Y-118856037D01*
X188761290Y-118804862D01*
X188747914Y-118801995D01*
X188653562Y-118792328D01*
X188647145Y-118792000D01*
X188547115Y-118792000D01*
X188531876Y-118796475D01*
X188530671Y-118797865D01*
X188529000Y-118805548D01*
X188529000Y-119927885D01*
X188021000Y-119927885D01*
X188021000Y-118810116D01*
X188016525Y-118794877D01*
X188015135Y-118793672D01*
X188007452Y-118792001D01*
X187902905Y-118792001D01*
X187896386Y-118792338D01*
X187800794Y-118802257D01*
X187787400Y-118805149D01*
X187633216Y-118856588D01*
X187620038Y-118862761D01*
X187482193Y-118948063D01*
X187470792Y-118957099D01*
X187356261Y-119071829D01*
X187347249Y-119083240D01*
X187262184Y-119221243D01*
X187256037Y-119234424D01*
X187204862Y-119388710D01*
X187201995Y-119402086D01*
X187192328Y-119496438D01*
X187192000Y-119502855D01*
X187192000Y-119927885D01*
X186408500Y-119927885D01*
X186408500Y-119499600D01*
X186406865Y-119483839D01*
X186398238Y-119400692D01*
X186398237Y-119400688D01*
X186397526Y-119393834D01*
X186380306Y-119342218D01*
X186343868Y-119233002D01*
X186341550Y-119226054D01*
X186248478Y-119075652D01*
X186123303Y-118950695D01*
X186104008Y-118938801D01*
X186044635Y-118902203D01*
X186018383Y-118886021D01*
X185970891Y-118833250D01*
X185958500Y-118778762D01*
X185958500Y-118697095D01*
X190617001Y-118697095D01*
X190617338Y-118703614D01*
X190627257Y-118799206D01*
X190630149Y-118812600D01*
X190681588Y-118966784D01*
X190687761Y-118979962D01*
X190773063Y-119117807D01*
X190782099Y-119129208D01*
X190896829Y-119243739D01*
X190908240Y-119252751D01*
X191046243Y-119337816D01*
X191059424Y-119343963D01*
X191213710Y-119395138D01*
X191227086Y-119398005D01*
X191321438Y-119407672D01*
X191327854Y-119408000D01*
X191727885Y-119408000D01*
X191743124Y-119403525D01*
X191744329Y-119402135D01*
X191746000Y-119394452D01*
X191746000Y-118522115D01*
X191741525Y-118506876D01*
X191740135Y-118505671D01*
X191732452Y-118504000D01*
X190635116Y-118504000D01*
X190619877Y-118508475D01*
X190618672Y-118509865D01*
X190617001Y-118517548D01*
X190617001Y-118697095D01*
X185958500Y-118697095D01*
X185958500Y-118229720D01*
X185978502Y-118161599D01*
X186032158Y-118115106D01*
X186102432Y-118105002D01*
X186160586Y-118132979D01*
X186162009Y-118131021D01*
X186168420Y-118135679D01*
X186174199Y-118141106D01*
X186181145Y-118144925D01*
X186181148Y-118144927D01*
X186191954Y-118150868D01*
X186208473Y-118161719D01*
X186224479Y-118174134D01*
X186231748Y-118177279D01*
X186231752Y-118177282D01*
X186265057Y-118191694D01*
X186275707Y-118196911D01*
X186314460Y-118218215D01*
X186332540Y-118222857D01*
X186334082Y-118223253D01*
X186352787Y-118229657D01*
X186371375Y-118237701D01*
X186379198Y-118238940D01*
X186379208Y-118238943D01*
X186415044Y-118244619D01*
X186426664Y-118247025D01*
X186458479Y-118255193D01*
X186469490Y-118258020D01*
X186489744Y-118258020D01*
X186509454Y-118259571D01*
X186529463Y-118262740D01*
X186537355Y-118261994D01*
X186556100Y-118260222D01*
X186573482Y-118258579D01*
X186585339Y-118258020D01*
X189296713Y-118258020D01*
X189307896Y-118258547D01*
X189315389Y-118260222D01*
X189323315Y-118259973D01*
X189323316Y-118259973D01*
X189383466Y-118258082D01*
X189387425Y-118258020D01*
X189415336Y-118258020D01*
X189419271Y-118257523D01*
X189419336Y-118257515D01*
X189431173Y-118256582D01*
X189463431Y-118255568D01*
X189467450Y-118255442D01*
X189475369Y-118255193D01*
X189494823Y-118249541D01*
X189514180Y-118245533D01*
X189526410Y-118243988D01*
X189526411Y-118243988D01*
X189534277Y-118242994D01*
X189541648Y-118240075D01*
X189541650Y-118240075D01*
X189575392Y-118226716D01*
X189586622Y-118222871D01*
X189621463Y-118212749D01*
X189621464Y-118212749D01*
X189629073Y-118210538D01*
X189635892Y-118206505D01*
X189635897Y-118206503D01*
X189646508Y-118200227D01*
X189664256Y-118191532D01*
X189683097Y-118184072D01*
X189697035Y-118173946D01*
X189718867Y-118158084D01*
X189728787Y-118151568D01*
X189760015Y-118133100D01*
X189760018Y-118133098D01*
X189766842Y-118129062D01*
X189781163Y-118114741D01*
X189796197Y-118101900D01*
X189806174Y-118094651D01*
X189812587Y-118089992D01*
X189840778Y-118055915D01*
X189848768Y-118047136D01*
X190425499Y-117470405D01*
X190487811Y-117436379D01*
X190514594Y-117433500D01*
X190539969Y-117433500D01*
X190608090Y-117453502D01*
X190654583Y-117507158D01*
X190664687Y-117577432D01*
X190659562Y-117599167D01*
X190629863Y-117688707D01*
X190626995Y-117702086D01*
X190617328Y-117796438D01*
X190617000Y-117802855D01*
X190617000Y-117977885D01*
X190621475Y-117993124D01*
X190622865Y-117994329D01*
X190630548Y-117996000D01*
X192128000Y-117996000D01*
X192196121Y-118016002D01*
X192242614Y-118069658D01*
X192254000Y-118122000D01*
X192254000Y-119389884D01*
X192258475Y-119405123D01*
X192259865Y-119406328D01*
X192267548Y-119407999D01*
X192672095Y-119407999D01*
X192678614Y-119407662D01*
X192774206Y-119397743D01*
X192787600Y-119394851D01*
X192941788Y-119343411D01*
X192944334Y-119342218D01*
X192946242Y-119341925D01*
X192948732Y-119341094D01*
X192948874Y-119341520D01*
X193014507Y-119331434D01*
X193079370Y-119360299D01*
X193106904Y-119393319D01*
X193121654Y-119418867D01*
X193124794Y-119424651D01*
X193125981Y-119426978D01*
X193154608Y-119483161D01*
X193167713Y-119552938D01*
X193141014Y-119618723D01*
X193082987Y-119659629D01*
X193046308Y-119666303D01*
X193045813Y-119666319D01*
X193042008Y-119666438D01*
X193038055Y-119666500D01*
X193010144Y-119666500D01*
X193006210Y-119666997D01*
X193006209Y-119666997D01*
X193006144Y-119667005D01*
X192994307Y-119667938D01*
X192962490Y-119668938D01*
X192958029Y-119669078D01*
X192950110Y-119669327D01*
X192932454Y-119674456D01*
X192930658Y-119674978D01*
X192911306Y-119678986D01*
X192904235Y-119679880D01*
X192891203Y-119681526D01*
X192883834Y-119684443D01*
X192883832Y-119684444D01*
X192850097Y-119697800D01*
X192838869Y-119701645D01*
X192796407Y-119713982D01*
X192789585Y-119718016D01*
X192789579Y-119718019D01*
X192778968Y-119724294D01*
X192761218Y-119732990D01*
X192749756Y-119737528D01*
X192749751Y-119737531D01*
X192742383Y-119740448D01*
X192735968Y-119745109D01*
X192706625Y-119766427D01*
X192696707Y-119772943D01*
X192678019Y-119783995D01*
X192658637Y-119795458D01*
X192644313Y-119809782D01*
X192629281Y-119822621D01*
X192612893Y-119834528D01*
X192584712Y-119868593D01*
X192576722Y-119877373D01*
X192299500Y-120154595D01*
X192237188Y-120188621D01*
X192210405Y-120191500D01*
X191324600Y-120191500D01*
X191321354Y-120191837D01*
X191321350Y-120191837D01*
X191225692Y-120201762D01*
X191225688Y-120201763D01*
X191218834Y-120202474D01*
X191212298Y-120204655D01*
X191212296Y-120204655D01*
X191125886Y-120233484D01*
X191051054Y-120258450D01*
X190900652Y-120351522D01*
X190775695Y-120476697D01*
X190771855Y-120482927D01*
X190771854Y-120482928D01*
X190701893Y-120596426D01*
X190682885Y-120627262D01*
X190680581Y-120634209D01*
X190632567Y-120778968D01*
X190627203Y-120795139D01*
X190626503Y-120801975D01*
X190626502Y-120801978D01*
X190622091Y-120845031D01*
X190616500Y-120899600D01*
X190616500Y-121800400D01*
X190616837Y-121803646D01*
X190616837Y-121803650D01*
X190626752Y-121899206D01*
X190627474Y-121906166D01*
X190683450Y-122073946D01*
X190776522Y-122224348D01*
X190781704Y-122229521D01*
X190781708Y-122229526D01*
X190828591Y-122276327D01*
X190862671Y-122338609D01*
X190857668Y-122409429D01*
X190815171Y-122466302D01*
X190748673Y-122491171D01*
X190739574Y-122491500D01*
X177335946Y-122491500D01*
X177267825Y-122471498D01*
X177221332Y-122417842D01*
X177211228Y-122347568D01*
X177240722Y-122282988D01*
X177282696Y-122251305D01*
X177367731Y-122211653D01*
X177367735Y-122211651D01*
X177372313Y-122209516D01*
X177483543Y-122133924D01*
X177575552Y-122071395D01*
X177575556Y-122071392D01*
X177579739Y-122068549D01*
X177761959Y-121896233D01*
X177832784Y-121803598D01*
X177911212Y-121701019D01*
X177911215Y-121701015D01*
X177914285Y-121696999D01*
X177943426Y-121642652D01*
X178030405Y-121480435D01*
X178032797Y-121475974D01*
X178037092Y-121463502D01*
X178112799Y-121243633D01*
X178114448Y-121238844D01*
X178137585Y-121104896D01*
X178156460Y-120995620D01*
X178156461Y-120995614D01*
X178157135Y-120991710D01*
X178157673Y-120979861D01*
X178158436Y-120963069D01*
X178158436Y-120963050D01*
X178158500Y-120961650D01*
X178158500Y-107886985D01*
X178157797Y-107878249D01*
X178143863Y-107705056D01*
X178143862Y-107705051D01*
X178143457Y-107700015D01*
X178131002Y-107649305D01*
X178084841Y-107461375D01*
X178083634Y-107456461D01*
X178079160Y-107445919D01*
X177987617Y-107230259D01*
X177987617Y-107230258D01*
X177985641Y-107225604D01*
X177878704Y-107055791D01*
X177854696Y-107017666D01*
X177854695Y-107017665D01*
X177852000Y-107013385D01*
X177686147Y-106825262D01*
X177492351Y-106666076D01*
X177275596Y-106539922D01*
X177270873Y-106538109D01*
X177270871Y-106538108D01*
X177046181Y-106451857D01*
X177046183Y-106451857D01*
X177041461Y-106450045D01*
X177036515Y-106449012D01*
X177036509Y-106449010D01*
X176800921Y-106399794D01*
X176800922Y-106399794D01*
X176795967Y-106398759D01*
X176790918Y-106398530D01*
X176790912Y-106398529D01*
X176676494Y-106393334D01*
X176545432Y-106387382D01*
X176540412Y-106387963D01*
X176540408Y-106387963D01*
X176449093Y-106398529D01*
X176296301Y-106416208D01*
X176291427Y-106417587D01*
X176291423Y-106417588D01*
X176059852Y-106483116D01*
X176059850Y-106483117D01*
X176054983Y-106484494D01*
X176050408Y-106486628D01*
X176050401Y-106486630D01*
X175832269Y-106588347D01*
X175832265Y-106588349D01*
X175827687Y-106590484D01*
X175823506Y-106593326D01*
X175823505Y-106593326D01*
X175624448Y-106728605D01*
X175624444Y-106728608D01*
X175620261Y-106731451D01*
X175616584Y-106734928D01*
X175616583Y-106734929D01*
X175561795Y-106786739D01*
X175438041Y-106903767D01*
X175434963Y-106907793D01*
X175434962Y-106907794D01*
X175288788Y-107098981D01*
X175288785Y-107098985D01*
X175285715Y-107103001D01*
X175283325Y-107107459D01*
X175283324Y-107107460D01*
X175248387Y-107172617D01*
X175167203Y-107324026D01*
X175165557Y-107328807D01*
X175165555Y-107328811D01*
X175107551Y-107497267D01*
X175085552Y-107561156D01*
X175070326Y-107649305D01*
X175054959Y-107738275D01*
X175042865Y-107808290D01*
X175042685Y-107812251D01*
X175042685Y-107812252D01*
X175041704Y-107833861D01*
X175041500Y-107838350D01*
X175041500Y-120913015D01*
X175041702Y-120915523D01*
X175041702Y-120915528D01*
X175053286Y-121059500D01*
X175056543Y-121099985D01*
X175057748Y-121104893D01*
X175057749Y-121104896D01*
X175092262Y-121245405D01*
X175116366Y-121343539D01*
X175118341Y-121348191D01*
X175118342Y-121348195D01*
X175202357Y-121546121D01*
X175214359Y-121574396D01*
X175301524Y-121712812D01*
X175340341Y-121774452D01*
X175348000Y-121786615D01*
X175513853Y-121974738D01*
X175707649Y-122133924D01*
X175918430Y-122256601D01*
X175967244Y-122308155D01*
X175980437Y-122377915D01*
X175953820Y-122443733D01*
X175895845Y-122484713D01*
X175855050Y-122491500D01*
X174634500Y-122491500D01*
X174566379Y-122471498D01*
X174519886Y-122417842D01*
X174508500Y-122365500D01*
X174508500Y-106034500D01*
X174528502Y-105966379D01*
X174582158Y-105919886D01*
X174634500Y-105908500D01*
X201398734Y-105908500D01*
X201466855Y-105928502D01*
G37*
%TD.AperFunction*%
%TA.AperFunction,Conductor*%
G36*
X209349600Y-110908500D02*
G01*
X209740500Y-110908500D01*
X209808621Y-110928502D01*
X209855114Y-110982158D01*
X209866500Y-111034500D01*
X209866500Y-111948613D01*
X209846498Y-112016734D01*
X209800270Y-112057184D01*
X209801054Y-112058450D01*
X209650652Y-112151522D01*
X209525695Y-112276697D01*
X209521855Y-112282927D01*
X209521854Y-112282928D01*
X209473423Y-112361498D01*
X209432885Y-112427262D01*
X209430354Y-112434892D01*
X209394448Y-112543148D01*
X209377203Y-112595139D01*
X209376503Y-112601975D01*
X209376502Y-112601978D01*
X209372091Y-112645031D01*
X209366500Y-112699600D01*
X209366500Y-114100400D01*
X209366837Y-114103646D01*
X209366837Y-114103650D01*
X209376752Y-114199206D01*
X209377474Y-114206166D01*
X209379655Y-114212702D01*
X209379655Y-114212704D01*
X209400656Y-114275652D01*
X209433450Y-114373946D01*
X209526522Y-114524348D01*
X209651697Y-114649305D01*
X209756378Y-114713831D01*
X209756616Y-114713978D01*
X209804109Y-114766750D01*
X209816500Y-114821238D01*
X209816500Y-115778689D01*
X209796498Y-115846810D01*
X209756804Y-115885833D01*
X209650652Y-115951522D01*
X209645479Y-115956704D01*
X209645474Y-115956708D01*
X209614129Y-115988108D01*
X209551847Y-116022188D01*
X209481027Y-116017185D01*
X209435939Y-115988265D01*
X209403484Y-115955867D01*
X209403483Y-115955866D01*
X209398303Y-115950695D01*
X209391501Y-115946502D01*
X209253968Y-115861725D01*
X209253966Y-115861724D01*
X209247738Y-115857885D01*
X209167995Y-115831436D01*
X209086389Y-115804368D01*
X209086387Y-115804368D01*
X209079861Y-115802203D01*
X209073025Y-115801503D01*
X209073022Y-115801502D01*
X209029969Y-115797091D01*
X208975400Y-115791500D01*
X207624600Y-115791500D01*
X207621354Y-115791837D01*
X207621350Y-115791837D01*
X207525692Y-115801762D01*
X207525688Y-115801763D01*
X207518834Y-115802474D01*
X207512298Y-115804655D01*
X207512296Y-115804655D01*
X207495928Y-115810116D01*
X207351054Y-115858450D01*
X207200652Y-115951522D01*
X207075695Y-116076697D01*
X207071855Y-116082927D01*
X207071854Y-116082928D01*
X207025271Y-116158500D01*
X206982885Y-116227262D01*
X206977338Y-116243987D01*
X206933367Y-116376556D01*
X206927203Y-116395139D01*
X206926503Y-116401975D01*
X206926502Y-116401978D01*
X206924257Y-116423889D01*
X206916500Y-116499600D01*
X206916500Y-117400400D01*
X206916837Y-117403646D01*
X206916837Y-117403650D01*
X206923764Y-117470405D01*
X206927474Y-117506166D01*
X206929655Y-117512702D01*
X206929655Y-117512704D01*
X206951250Y-117577432D01*
X206983450Y-117673946D01*
X207076522Y-117824348D01*
X207201697Y-117949305D01*
X207207927Y-117953145D01*
X207207928Y-117953146D01*
X207284448Y-118000314D01*
X207331942Y-118053087D01*
X207343365Y-118123158D01*
X207315090Y-118188282D01*
X207307439Y-118196657D01*
X206449479Y-119054616D01*
X206387169Y-119088640D01*
X206316353Y-119083575D01*
X206259518Y-119041028D01*
X206251933Y-119029659D01*
X206242466Y-119013652D01*
X206224453Y-118983193D01*
X206221771Y-118980511D01*
X206196498Y-118916139D01*
X206210400Y-118846516D01*
X206220572Y-118830688D01*
X206224453Y-118826807D01*
X206309145Y-118683601D01*
X206311455Y-118675652D01*
X206335757Y-118592000D01*
X206355562Y-118523831D01*
X206356503Y-118511884D01*
X206358307Y-118488958D01*
X206358307Y-118488950D01*
X206358500Y-118486502D01*
X206358500Y-118053498D01*
X206358307Y-118051042D01*
X206356067Y-118022579D01*
X206356066Y-118022574D01*
X206355562Y-118016169D01*
X206309145Y-117856399D01*
X206242325Y-117743412D01*
X206228493Y-117720024D01*
X206228492Y-117720023D01*
X206224453Y-117713193D01*
X206221513Y-117710253D01*
X206196180Y-117645734D01*
X206210079Y-117576111D01*
X206222126Y-117557364D01*
X206228090Y-117549676D01*
X206304648Y-117420221D01*
X206310893Y-117405790D01*
X206349939Y-117271395D01*
X206349899Y-117257294D01*
X206342630Y-117254000D01*
X203413122Y-117254000D01*
X203399591Y-117257973D01*
X203398456Y-117265871D01*
X203439107Y-117405790D01*
X203445352Y-117420221D01*
X203521911Y-117549677D01*
X203527871Y-117557360D01*
X203553820Y-117623444D01*
X203539922Y-117693067D01*
X203529579Y-117709161D01*
X203525547Y-117713193D01*
X203440855Y-117856399D01*
X203394438Y-118016169D01*
X203393934Y-118022574D01*
X203393933Y-118022579D01*
X203391693Y-118051042D01*
X203391500Y-118053498D01*
X203391500Y-118486502D01*
X203391693Y-118488950D01*
X203391693Y-118488958D01*
X203393498Y-118511884D01*
X203394438Y-118523831D01*
X203414243Y-118592000D01*
X203438546Y-118675652D01*
X203440855Y-118683601D01*
X203525547Y-118826807D01*
X203528229Y-118829489D01*
X203553502Y-118893861D01*
X203539600Y-118963484D01*
X203529428Y-118979312D01*
X203525547Y-118983193D01*
X203440855Y-119126399D01*
X203438644Y-119134010D01*
X203438643Y-119134012D01*
X203436467Y-119141502D01*
X203394438Y-119286169D01*
X203393934Y-119292574D01*
X203393933Y-119292579D01*
X203391904Y-119318363D01*
X203391500Y-119323498D01*
X203391500Y-119756502D01*
X203394438Y-119793831D01*
X203416158Y-119868593D01*
X203437347Y-119941525D01*
X203440855Y-119953601D01*
X203525547Y-120096807D01*
X203528229Y-120099489D01*
X203553502Y-120163861D01*
X203539600Y-120233484D01*
X203529428Y-120249312D01*
X203525547Y-120253193D01*
X203440855Y-120396399D01*
X203394438Y-120556169D01*
X203391500Y-120593498D01*
X203391500Y-120595967D01*
X203391482Y-120596426D01*
X203368824Y-120663710D01*
X203313386Y-120708063D01*
X203242770Y-120715403D01*
X203176484Y-120680580D01*
X202456332Y-119960427D01*
X201643652Y-119147747D01*
X201636112Y-119139461D01*
X201632000Y-119132982D01*
X201582348Y-119086356D01*
X201579507Y-119083602D01*
X201559770Y-119063865D01*
X201556573Y-119061385D01*
X201547551Y-119053680D01*
X201544372Y-119050695D01*
X201515321Y-119023414D01*
X201508375Y-119019595D01*
X201508372Y-119019593D01*
X201497566Y-119013652D01*
X201481047Y-119002801D01*
X201471300Y-118995241D01*
X201465041Y-118990386D01*
X201457772Y-118987241D01*
X201457768Y-118987238D01*
X201424463Y-118972826D01*
X201413813Y-118967609D01*
X201375060Y-118946305D01*
X201371459Y-118945380D01*
X201316961Y-118902861D01*
X201293483Y-118835859D01*
X201310863Y-118765241D01*
X201355108Y-118690427D01*
X201359145Y-118683601D01*
X201361455Y-118675652D01*
X201385757Y-118592000D01*
X201405562Y-118523831D01*
X201406503Y-118511884D01*
X201408307Y-118488958D01*
X201408307Y-118488950D01*
X201408500Y-118486502D01*
X201408500Y-118183490D01*
X201428502Y-118115369D01*
X201445405Y-118094395D01*
X203309399Y-116230401D01*
X203371711Y-116196375D01*
X203442526Y-116201440D01*
X203499362Y-116243987D01*
X203506941Y-116255346D01*
X203525547Y-116286807D01*
X203528487Y-116289747D01*
X203553820Y-116354266D01*
X203539921Y-116423889D01*
X203527874Y-116442636D01*
X203521910Y-116450324D01*
X203445352Y-116579779D01*
X203439107Y-116594210D01*
X203400061Y-116728605D01*
X203400101Y-116742706D01*
X203407370Y-116746000D01*
X206336878Y-116746000D01*
X206350409Y-116742027D01*
X206351544Y-116734129D01*
X206310893Y-116594210D01*
X206304648Y-116579779D01*
X206228089Y-116450323D01*
X206222129Y-116442640D01*
X206196180Y-116376556D01*
X206210078Y-116306933D01*
X206220421Y-116290839D01*
X206224453Y-116286807D01*
X206309145Y-116143601D01*
X206355562Y-115983831D01*
X206358500Y-115946502D01*
X206358500Y-115513498D01*
X206355562Y-115476169D01*
X206309145Y-115316399D01*
X206224453Y-115173193D01*
X206221771Y-115170511D01*
X206196498Y-115106139D01*
X206210400Y-115036516D01*
X206220572Y-115020688D01*
X206224453Y-115016807D01*
X206309145Y-114873601D01*
X206324337Y-114821311D01*
X206331107Y-114798005D01*
X206355562Y-114713831D01*
X206358500Y-114676502D01*
X206358500Y-114243498D01*
X206358307Y-114241042D01*
X206356067Y-114212579D01*
X206356066Y-114212574D01*
X206355562Y-114206169D01*
X206315799Y-114069301D01*
X206311357Y-114054012D01*
X206311356Y-114054010D01*
X206309145Y-114046399D01*
X206224453Y-113903193D01*
X206221771Y-113900511D01*
X206196498Y-113836139D01*
X206210400Y-113766516D01*
X206220572Y-113750688D01*
X206224453Y-113746807D01*
X206309145Y-113603601D01*
X206311358Y-113595986D01*
X206334374Y-113516760D01*
X206355562Y-113443831D01*
X206358500Y-113406502D01*
X206358500Y-112973498D01*
X206355562Y-112936169D01*
X206319503Y-112812051D01*
X206311357Y-112784012D01*
X206311356Y-112784010D01*
X206309145Y-112776399D01*
X206263131Y-112698594D01*
X206228491Y-112640020D01*
X206228489Y-112640017D01*
X206224453Y-112633193D01*
X206106807Y-112515547D01*
X206099983Y-112511511D01*
X206099980Y-112511509D01*
X205970427Y-112434892D01*
X205970428Y-112434892D01*
X205963601Y-112430855D01*
X205955990Y-112428644D01*
X205955988Y-112428643D01*
X205903769Y-112413472D01*
X205803831Y-112384438D01*
X205797426Y-112383934D01*
X205797421Y-112383933D01*
X205768958Y-112381693D01*
X205768950Y-112381693D01*
X205766502Y-112381500D01*
X205170418Y-112381500D01*
X205102297Y-112361498D01*
X205055804Y-112307842D01*
X205045700Y-112237568D01*
X205075194Y-112172988D01*
X205081245Y-112166482D01*
X205144134Y-112103483D01*
X205149305Y-112098303D01*
X205170407Y-112064069D01*
X205238275Y-111953968D01*
X205238276Y-111953966D01*
X205242115Y-111947738D01*
X205297797Y-111779861D01*
X205301199Y-111746658D01*
X205328040Y-111680930D01*
X205386155Y-111640148D01*
X205426543Y-111633500D01*
X208146233Y-111633500D01*
X208157416Y-111634027D01*
X208164909Y-111635702D01*
X208172835Y-111635453D01*
X208172836Y-111635453D01*
X208232986Y-111633562D01*
X208236945Y-111633500D01*
X208264856Y-111633500D01*
X208268791Y-111633003D01*
X208268856Y-111632995D01*
X208280693Y-111632062D01*
X208312951Y-111631048D01*
X208316970Y-111630922D01*
X208324889Y-111630673D01*
X208344343Y-111625021D01*
X208363700Y-111621013D01*
X208375930Y-111619468D01*
X208375931Y-111619468D01*
X208383797Y-111618474D01*
X208391168Y-111615555D01*
X208391170Y-111615555D01*
X208424912Y-111602196D01*
X208436142Y-111598351D01*
X208470983Y-111588229D01*
X208470984Y-111588229D01*
X208478593Y-111586018D01*
X208485412Y-111581985D01*
X208485417Y-111581983D01*
X208496028Y-111575707D01*
X208513776Y-111567012D01*
X208532617Y-111559552D01*
X208568387Y-111533564D01*
X208578307Y-111527048D01*
X208609535Y-111508580D01*
X208609538Y-111508578D01*
X208616362Y-111504542D01*
X208630683Y-111490221D01*
X208645717Y-111477380D01*
X208655694Y-111470131D01*
X208662107Y-111465472D01*
X208690298Y-111431395D01*
X208698288Y-111422616D01*
X209182801Y-110938103D01*
X209245113Y-110904077D01*
X209284737Y-110901854D01*
X209349600Y-110908500D01*
G37*
%TD.AperFunction*%
%TD*%
M02*
