%TF.GenerationSoftware,KiCad,Pcbnew,(6.0.4)*%
%TF.CreationDate,2022-08-02T16:27:21+10:00*%
%TF.ProjectId,GSR + ST V2,47535220-2b20-4535-9420-56322e6b6963,rev?*%
%TF.SameCoordinates,Original*%
%TF.FileFunction,Legend,Top*%
%TF.FilePolarity,Positive*%
%FSLAX46Y46*%
G04 Gerber Fmt 4.6, Leading zero omitted, Abs format (unit mm)*
G04 Created by KiCad (PCBNEW (6.0.4)) date 2022-08-02 16:27:21*
%MOMM*%
%LPD*%
G01*
G04 APERTURE LIST*
%ADD10C,0.150000*%
%ADD11C,0.120000*%
G04 APERTURE END LIST*
D10*
%TO.C,TP2*%
X202838095Y-105704380D02*
X203409523Y-105704380D01*
X203123809Y-106704380D02*
X203123809Y-105704380D01*
X203742857Y-106704380D02*
X203742857Y-105704380D01*
X204123809Y-105704380D01*
X204219047Y-105752000D01*
X204266666Y-105799619D01*
X204314285Y-105894857D01*
X204314285Y-106037714D01*
X204266666Y-106132952D01*
X204219047Y-106180571D01*
X204123809Y-106228190D01*
X203742857Y-106228190D01*
X204695238Y-105799619D02*
X204742857Y-105752000D01*
X204838095Y-105704380D01*
X205076190Y-105704380D01*
X205171428Y-105752000D01*
X205219047Y-105799619D01*
X205266666Y-105894857D01*
X205266666Y-105990095D01*
X205219047Y-106132952D01*
X204647619Y-106704380D01*
X205266666Y-106704380D01*
%TO.C,J2*%
X195322380Y-108333333D02*
X196036666Y-108333333D01*
X196179523Y-108380952D01*
X196274761Y-108476190D01*
X196322380Y-108619047D01*
X196322380Y-108714285D01*
X195417619Y-107904761D02*
X195370000Y-107857142D01*
X195322380Y-107761904D01*
X195322380Y-107523809D01*
X195370000Y-107428571D01*
X195417619Y-107380952D01*
X195512857Y-107333333D01*
X195608095Y-107333333D01*
X195750952Y-107380952D01*
X196322380Y-107952380D01*
X196322380Y-107333333D01*
%TO.C,C2*%
X181233333Y-114907142D02*
X181185714Y-114954761D01*
X181042857Y-115002380D01*
X180947619Y-115002380D01*
X180804761Y-114954761D01*
X180709523Y-114859523D01*
X180661904Y-114764285D01*
X180614285Y-114573809D01*
X180614285Y-114430952D01*
X180661904Y-114240476D01*
X180709523Y-114145238D01*
X180804761Y-114050000D01*
X180947619Y-114002380D01*
X181042857Y-114002380D01*
X181185714Y-114050000D01*
X181233333Y-114097619D01*
X181614285Y-114097619D02*
X181661904Y-114050000D01*
X181757142Y-114002380D01*
X181995238Y-114002380D01*
X182090476Y-114050000D01*
X182138095Y-114097619D01*
X182185714Y-114192857D01*
X182185714Y-114288095D01*
X182138095Y-114430952D01*
X181566666Y-115002380D01*
X182185714Y-115002380D01*
%TO.C,C1*%
X181308333Y-110907142D02*
X181260714Y-110954761D01*
X181117857Y-111002380D01*
X181022619Y-111002380D01*
X180879761Y-110954761D01*
X180784523Y-110859523D01*
X180736904Y-110764285D01*
X180689285Y-110573809D01*
X180689285Y-110430952D01*
X180736904Y-110240476D01*
X180784523Y-110145238D01*
X180879761Y-110050000D01*
X181022619Y-110002380D01*
X181117857Y-110002380D01*
X181260714Y-110050000D01*
X181308333Y-110097619D01*
X182260714Y-111002380D02*
X181689285Y-111002380D01*
X181975000Y-111002380D02*
X181975000Y-110002380D01*
X181879761Y-110145238D01*
X181784523Y-110240476D01*
X181689285Y-110288095D01*
%TO.C,R4*%
X190652380Y-119966666D02*
X190176190Y-120300000D01*
X190652380Y-120538095D02*
X189652380Y-120538095D01*
X189652380Y-120157142D01*
X189700000Y-120061904D01*
X189747619Y-120014285D01*
X189842857Y-119966666D01*
X189985714Y-119966666D01*
X190080952Y-120014285D01*
X190128571Y-120061904D01*
X190176190Y-120157142D01*
X190176190Y-120538095D01*
X189985714Y-119109523D02*
X190652380Y-119109523D01*
X189604761Y-119347619D02*
X190319047Y-119585714D01*
X190319047Y-118966666D01*
%TO.C,R5*%
X208533333Y-115802380D02*
X208200000Y-115326190D01*
X207961904Y-115802380D02*
X207961904Y-114802380D01*
X208342857Y-114802380D01*
X208438095Y-114850000D01*
X208485714Y-114897619D01*
X208533333Y-114992857D01*
X208533333Y-115135714D01*
X208485714Y-115230952D01*
X208438095Y-115278571D01*
X208342857Y-115326190D01*
X207961904Y-115326190D01*
X209438095Y-114802380D02*
X208961904Y-114802380D01*
X208914285Y-115278571D01*
X208961904Y-115230952D01*
X209057142Y-115183333D01*
X209295238Y-115183333D01*
X209390476Y-115230952D01*
X209438095Y-115278571D01*
X209485714Y-115373809D01*
X209485714Y-115611904D01*
X209438095Y-115707142D01*
X209390476Y-115754761D01*
X209295238Y-115802380D01*
X209057142Y-115802380D01*
X208961904Y-115754761D01*
X208914285Y-115707142D01*
%TO.C,C8*%
X186633333Y-118707142D02*
X186585714Y-118754761D01*
X186442857Y-118802380D01*
X186347619Y-118802380D01*
X186204761Y-118754761D01*
X186109523Y-118659523D01*
X186061904Y-118564285D01*
X186014285Y-118373809D01*
X186014285Y-118230952D01*
X186061904Y-118040476D01*
X186109523Y-117945238D01*
X186204761Y-117850000D01*
X186347619Y-117802380D01*
X186442857Y-117802380D01*
X186585714Y-117850000D01*
X186633333Y-117897619D01*
X187204761Y-118230952D02*
X187109523Y-118183333D01*
X187061904Y-118135714D01*
X187014285Y-118040476D01*
X187014285Y-117992857D01*
X187061904Y-117897619D01*
X187109523Y-117850000D01*
X187204761Y-117802380D01*
X187395238Y-117802380D01*
X187490476Y-117850000D01*
X187538095Y-117897619D01*
X187585714Y-117992857D01*
X187585714Y-118040476D01*
X187538095Y-118135714D01*
X187490476Y-118183333D01*
X187395238Y-118230952D01*
X187204761Y-118230952D01*
X187109523Y-118278571D01*
X187061904Y-118326190D01*
X187014285Y-118421428D01*
X187014285Y-118611904D01*
X187061904Y-118707142D01*
X187109523Y-118754761D01*
X187204761Y-118802380D01*
X187395238Y-118802380D01*
X187490476Y-118754761D01*
X187538095Y-118707142D01*
X187585714Y-118611904D01*
X187585714Y-118421428D01*
X187538095Y-118326190D01*
X187490476Y-118278571D01*
X187395238Y-118230952D01*
%TO.C,C9*%
X184633333Y-114857142D02*
X184585714Y-114904761D01*
X184442857Y-114952380D01*
X184347619Y-114952380D01*
X184204761Y-114904761D01*
X184109523Y-114809523D01*
X184061904Y-114714285D01*
X184014285Y-114523809D01*
X184014285Y-114380952D01*
X184061904Y-114190476D01*
X184109523Y-114095238D01*
X184204761Y-114000000D01*
X184347619Y-113952380D01*
X184442857Y-113952380D01*
X184585714Y-114000000D01*
X184633333Y-114047619D01*
X185109523Y-114952380D02*
X185300000Y-114952380D01*
X185395238Y-114904761D01*
X185442857Y-114857142D01*
X185538095Y-114714285D01*
X185585714Y-114523809D01*
X185585714Y-114142857D01*
X185538095Y-114047619D01*
X185490476Y-114000000D01*
X185395238Y-113952380D01*
X185204761Y-113952380D01*
X185109523Y-114000000D01*
X185061904Y-114047619D01*
X185014285Y-114142857D01*
X185014285Y-114380952D01*
X185061904Y-114476190D01*
X185109523Y-114523809D01*
X185204761Y-114571428D01*
X185395238Y-114571428D01*
X185490476Y-114523809D01*
X185538095Y-114476190D01*
X185585714Y-114380952D01*
%TO.C,U3*%
X206338095Y-111452380D02*
X206338095Y-112261904D01*
X206385714Y-112357142D01*
X206433333Y-112404761D01*
X206528571Y-112452380D01*
X206719047Y-112452380D01*
X206814285Y-112404761D01*
X206861904Y-112357142D01*
X206909523Y-112261904D01*
X206909523Y-111452380D01*
X207290476Y-111452380D02*
X207909523Y-111452380D01*
X207576190Y-111833333D01*
X207719047Y-111833333D01*
X207814285Y-111880952D01*
X207861904Y-111928571D01*
X207909523Y-112023809D01*
X207909523Y-112261904D01*
X207861904Y-112357142D01*
X207814285Y-112404761D01*
X207719047Y-112452380D01*
X207433333Y-112452380D01*
X207338095Y-112404761D01*
X207290476Y-112357142D01*
%TO.C,R1*%
X190433333Y-111052380D02*
X190100000Y-110576190D01*
X189861904Y-111052380D02*
X189861904Y-110052380D01*
X190242857Y-110052380D01*
X190338095Y-110100000D01*
X190385714Y-110147619D01*
X190433333Y-110242857D01*
X190433333Y-110385714D01*
X190385714Y-110480952D01*
X190338095Y-110528571D01*
X190242857Y-110576190D01*
X189861904Y-110576190D01*
X191385714Y-111052380D02*
X190814285Y-111052380D01*
X191100000Y-111052380D02*
X191100000Y-110052380D01*
X191004761Y-110195238D01*
X190909523Y-110290476D01*
X190814285Y-110338095D01*
%TO.C,C4*%
X211758333Y-115707142D02*
X211710714Y-115754761D01*
X211567857Y-115802380D01*
X211472619Y-115802380D01*
X211329761Y-115754761D01*
X211234523Y-115659523D01*
X211186904Y-115564285D01*
X211139285Y-115373809D01*
X211139285Y-115230952D01*
X211186904Y-115040476D01*
X211234523Y-114945238D01*
X211329761Y-114850000D01*
X211472619Y-114802380D01*
X211567857Y-114802380D01*
X211710714Y-114850000D01*
X211758333Y-114897619D01*
X212615476Y-115135714D02*
X212615476Y-115802380D01*
X212377380Y-114754761D02*
X212139285Y-115469047D01*
X212758333Y-115469047D01*
%TO.C,J1*%
X183797380Y-108333333D02*
X184511666Y-108333333D01*
X184654523Y-108380952D01*
X184749761Y-108476190D01*
X184797380Y-108619047D01*
X184797380Y-108714285D01*
X184797380Y-107333333D02*
X184797380Y-107904761D01*
X184797380Y-107619047D02*
X183797380Y-107619047D01*
X183940238Y-107714285D01*
X184035476Y-107809523D01*
X184083095Y-107904761D01*
%TO.C,R7*%
X186633333Y-111032380D02*
X186300000Y-110556190D01*
X186061904Y-111032380D02*
X186061904Y-110032380D01*
X186442857Y-110032380D01*
X186538095Y-110080000D01*
X186585714Y-110127619D01*
X186633333Y-110222857D01*
X186633333Y-110365714D01*
X186585714Y-110460952D01*
X186538095Y-110508571D01*
X186442857Y-110556190D01*
X186061904Y-110556190D01*
X186966666Y-110032380D02*
X187633333Y-110032380D01*
X187204761Y-111032380D01*
%TO.C,R6*%
X181233333Y-118832380D02*
X180900000Y-118356190D01*
X180661904Y-118832380D02*
X180661904Y-117832380D01*
X181042857Y-117832380D01*
X181138095Y-117880000D01*
X181185714Y-117927619D01*
X181233333Y-118022857D01*
X181233333Y-118165714D01*
X181185714Y-118260952D01*
X181138095Y-118308571D01*
X181042857Y-118356190D01*
X180661904Y-118356190D01*
X182090476Y-117832380D02*
X181900000Y-117832380D01*
X181804761Y-117880000D01*
X181757142Y-117927619D01*
X181661904Y-118070476D01*
X181614285Y-118260952D01*
X181614285Y-118641904D01*
X181661904Y-118737142D01*
X181709523Y-118784761D01*
X181804761Y-118832380D01*
X181995238Y-118832380D01*
X182090476Y-118784761D01*
X182138095Y-118737142D01*
X182185714Y-118641904D01*
X182185714Y-118403809D01*
X182138095Y-118308571D01*
X182090476Y-118260952D01*
X181995238Y-118213333D01*
X181804761Y-118213333D01*
X181709523Y-118260952D01*
X181661904Y-118308571D01*
X181614285Y-118403809D01*
%TO.C,C5*%
X211733333Y-111857142D02*
X211685714Y-111904761D01*
X211542857Y-111952380D01*
X211447619Y-111952380D01*
X211304761Y-111904761D01*
X211209523Y-111809523D01*
X211161904Y-111714285D01*
X211114285Y-111523809D01*
X211114285Y-111380952D01*
X211161904Y-111190476D01*
X211209523Y-111095238D01*
X211304761Y-111000000D01*
X211447619Y-110952380D01*
X211542857Y-110952380D01*
X211685714Y-111000000D01*
X211733333Y-111047619D01*
X212638095Y-110952380D02*
X212161904Y-110952380D01*
X212114285Y-111428571D01*
X212161904Y-111380952D01*
X212257142Y-111333333D01*
X212495238Y-111333333D01*
X212590476Y-111380952D01*
X212638095Y-111428571D01*
X212685714Y-111523809D01*
X212685714Y-111761904D01*
X212638095Y-111857142D01*
X212590476Y-111904761D01*
X212495238Y-111952380D01*
X212257142Y-111952380D01*
X212161904Y-111904761D01*
X212114285Y-111857142D01*
%TO.C,TP3*%
X211738095Y-107152380D02*
X212309523Y-107152380D01*
X212023809Y-108152380D02*
X212023809Y-107152380D01*
X212642857Y-108152380D02*
X212642857Y-107152380D01*
X213023809Y-107152380D01*
X213119047Y-107200000D01*
X213166666Y-107247619D01*
X213214285Y-107342857D01*
X213214285Y-107485714D01*
X213166666Y-107580952D01*
X213119047Y-107628571D01*
X213023809Y-107676190D01*
X212642857Y-107676190D01*
X213547619Y-107152380D02*
X214166666Y-107152380D01*
X213833333Y-107533333D01*
X213976190Y-107533333D01*
X214071428Y-107580952D01*
X214119047Y-107628571D01*
X214166666Y-107723809D01*
X214166666Y-107961904D01*
X214119047Y-108057142D01*
X214071428Y-108104761D01*
X213976190Y-108152380D01*
X213690476Y-108152380D01*
X213595238Y-108104761D01*
X213547619Y-108057142D01*
%TO.C,C7*%
X211733333Y-122157142D02*
X211685714Y-122204761D01*
X211542857Y-122252380D01*
X211447619Y-122252380D01*
X211304761Y-122204761D01*
X211209523Y-122109523D01*
X211161904Y-122014285D01*
X211114285Y-121823809D01*
X211114285Y-121680952D01*
X211161904Y-121490476D01*
X211209523Y-121395238D01*
X211304761Y-121300000D01*
X211447619Y-121252380D01*
X211542857Y-121252380D01*
X211685714Y-121300000D01*
X211733333Y-121347619D01*
X212066666Y-121252380D02*
X212733333Y-121252380D01*
X212304761Y-122252380D01*
%TO.C,R8*%
X209072380Y-106866666D02*
X208596190Y-107200000D01*
X209072380Y-107438095D02*
X208072380Y-107438095D01*
X208072380Y-107057142D01*
X208120000Y-106961904D01*
X208167619Y-106914285D01*
X208262857Y-106866666D01*
X208405714Y-106866666D01*
X208500952Y-106914285D01*
X208548571Y-106961904D01*
X208596190Y-107057142D01*
X208596190Y-107438095D01*
X208500952Y-106295238D02*
X208453333Y-106390476D01*
X208405714Y-106438095D01*
X208310476Y-106485714D01*
X208262857Y-106485714D01*
X208167619Y-106438095D01*
X208120000Y-106390476D01*
X208072380Y-106295238D01*
X208072380Y-106104761D01*
X208120000Y-106009523D01*
X208167619Y-105961904D01*
X208262857Y-105914285D01*
X208310476Y-105914285D01*
X208405714Y-105961904D01*
X208453333Y-106009523D01*
X208500952Y-106104761D01*
X208500952Y-106295238D01*
X208548571Y-106390476D01*
X208596190Y-106438095D01*
X208691428Y-106485714D01*
X208881904Y-106485714D01*
X208977142Y-106438095D01*
X209024761Y-106390476D01*
X209072380Y-106295238D01*
X209072380Y-106104761D01*
X209024761Y-106009523D01*
X208977142Y-105961904D01*
X208881904Y-105914285D01*
X208691428Y-105914285D01*
X208596190Y-105961904D01*
X208548571Y-106009523D01*
X208500952Y-106104761D01*
%TO.C,R3*%
X199852380Y-111166666D02*
X199376190Y-111500000D01*
X199852380Y-111738095D02*
X198852380Y-111738095D01*
X198852380Y-111357142D01*
X198900000Y-111261904D01*
X198947619Y-111214285D01*
X199042857Y-111166666D01*
X199185714Y-111166666D01*
X199280952Y-111214285D01*
X199328571Y-111261904D01*
X199376190Y-111357142D01*
X199376190Y-111738095D01*
X198852380Y-110833333D02*
X198852380Y-110214285D01*
X199233333Y-110547619D01*
X199233333Y-110404761D01*
X199280952Y-110309523D01*
X199328571Y-110261904D01*
X199423809Y-110214285D01*
X199661904Y-110214285D01*
X199757142Y-110261904D01*
X199804761Y-110309523D01*
X199852380Y-110404761D01*
X199852380Y-110690476D01*
X199804761Y-110785714D01*
X199757142Y-110833333D01*
%TO.C,R2*%
X194452380Y-119966666D02*
X193976190Y-120300000D01*
X194452380Y-120538095D02*
X193452380Y-120538095D01*
X193452380Y-120157142D01*
X193500000Y-120061904D01*
X193547619Y-120014285D01*
X193642857Y-119966666D01*
X193785714Y-119966666D01*
X193880952Y-120014285D01*
X193928571Y-120061904D01*
X193976190Y-120157142D01*
X193976190Y-120538095D01*
X193547619Y-119585714D02*
X193500000Y-119538095D01*
X193452380Y-119442857D01*
X193452380Y-119204761D01*
X193500000Y-119109523D01*
X193547619Y-119061904D01*
X193642857Y-119014285D01*
X193738095Y-119014285D01*
X193880952Y-119061904D01*
X194452380Y-119633333D01*
X194452380Y-119014285D01*
%TO.C,C3*%
X193033333Y-110957142D02*
X192985714Y-111004761D01*
X192842857Y-111052380D01*
X192747619Y-111052380D01*
X192604761Y-111004761D01*
X192509523Y-110909523D01*
X192461904Y-110814285D01*
X192414285Y-110623809D01*
X192414285Y-110480952D01*
X192461904Y-110290476D01*
X192509523Y-110195238D01*
X192604761Y-110100000D01*
X192747619Y-110052380D01*
X192842857Y-110052380D01*
X192985714Y-110100000D01*
X193033333Y-110147619D01*
X193366666Y-110052380D02*
X193985714Y-110052380D01*
X193652380Y-110433333D01*
X193795238Y-110433333D01*
X193890476Y-110480952D01*
X193938095Y-110528571D01*
X193985714Y-110623809D01*
X193985714Y-110861904D01*
X193938095Y-110957142D01*
X193890476Y-111004761D01*
X193795238Y-111052380D01*
X193509523Y-111052380D01*
X193414285Y-111004761D01*
X193366666Y-110957142D01*
%TO.C,C6*%
X208433333Y-113757142D02*
X208385714Y-113804761D01*
X208242857Y-113852380D01*
X208147619Y-113852380D01*
X208004761Y-113804761D01*
X207909523Y-113709523D01*
X207861904Y-113614285D01*
X207814285Y-113423809D01*
X207814285Y-113280952D01*
X207861904Y-113090476D01*
X207909523Y-112995238D01*
X208004761Y-112900000D01*
X208147619Y-112852380D01*
X208242857Y-112852380D01*
X208385714Y-112900000D01*
X208433333Y-112947619D01*
X209290476Y-112852380D02*
X209100000Y-112852380D01*
X209004761Y-112900000D01*
X208957142Y-112947619D01*
X208861904Y-113090476D01*
X208814285Y-113280952D01*
X208814285Y-113661904D01*
X208861904Y-113757142D01*
X208909523Y-113804761D01*
X209004761Y-113852380D01*
X209195238Y-113852380D01*
X209290476Y-113804761D01*
X209338095Y-113757142D01*
X209385714Y-113661904D01*
X209385714Y-113423809D01*
X209338095Y-113328571D01*
X209290476Y-113280952D01*
X209195238Y-113233333D01*
X209004761Y-113233333D01*
X208909523Y-113280952D01*
X208861904Y-113328571D01*
X208814285Y-113423809D01*
D11*
%TO.C,TP2*%
X204800000Y-107700000D02*
G75*
G03*
X204800000Y-107700000I-700000J0D01*
G01*
%TO.C,J2*%
X199470000Y-109330000D02*
X202070000Y-109330000D01*
X199470000Y-106670000D02*
X202070000Y-106670000D01*
X198200000Y-109330000D02*
X196870000Y-109330000D01*
X199470000Y-109330000D02*
X199470000Y-106670000D01*
X196870000Y-109330000D02*
X196870000Y-108000000D01*
X202070000Y-109330000D02*
X202070000Y-106670000D01*
%TO.C,C2*%
X180688748Y-115490000D02*
X182111252Y-115490000D01*
X180688748Y-117310000D02*
X182111252Y-117310000D01*
%TO.C,C1*%
X180763748Y-113310000D02*
X182186252Y-113310000D01*
X180763748Y-111490000D02*
X182186252Y-111490000D01*
%TO.C,R4*%
X191090000Y-120527064D02*
X191090000Y-119072936D01*
X192910000Y-120527064D02*
X192910000Y-119072936D01*
%TO.C,R5*%
X207390000Y-119227064D02*
X207390000Y-117772936D01*
X209210000Y-119227064D02*
X209210000Y-117772936D01*
%TO.C,C8*%
X186088748Y-121110000D02*
X187511252Y-121110000D01*
X186088748Y-119290000D02*
X187511252Y-119290000D01*
%TO.C,C9*%
X186088748Y-117310000D02*
X187511252Y-117310000D01*
X186088748Y-115490000D02*
X187511252Y-115490000D01*
%TO.C,U3*%
X202400000Y-112565000D02*
X204350000Y-112565000D01*
X202400000Y-121435000D02*
X200450000Y-121435000D01*
X202400000Y-112565000D02*
X198950000Y-112565000D01*
X202400000Y-121435000D02*
X204350000Y-121435000D01*
%TO.C,R1*%
X191510000Y-114527064D02*
X191510000Y-113072936D01*
X189690000Y-114527064D02*
X189690000Y-113072936D01*
%TO.C,C4*%
X211213748Y-116290000D02*
X212636252Y-116290000D01*
X211213748Y-118110000D02*
X212636252Y-118110000D01*
%TO.C,J1*%
X186675000Y-109330000D02*
X185345000Y-109330000D01*
X187945000Y-106670000D02*
X193085000Y-106670000D01*
X187945000Y-109330000D02*
X193085000Y-109330000D01*
X193085000Y-109330000D02*
X193085000Y-106670000D01*
X185345000Y-109330000D02*
X185345000Y-108000000D01*
X187945000Y-109330000D02*
X187945000Y-106670000D01*
%TO.C,R7*%
X186072936Y-111490000D02*
X187527064Y-111490000D01*
X186072936Y-113310000D02*
X187527064Y-113310000D01*
%TO.C,R6*%
X180672936Y-119290000D02*
X182127064Y-119290000D01*
X180672936Y-121110000D02*
X182127064Y-121110000D01*
%TO.C,C5*%
X211288748Y-108690000D02*
X212711252Y-108690000D01*
X211288748Y-110510000D02*
X212711252Y-110510000D01*
%TO.C,TP3*%
X211200000Y-107100000D02*
G75*
G03*
X211200000Y-107100000I-700000J0D01*
G01*
%TO.C,C7*%
X211188748Y-120710000D02*
X212611252Y-120710000D01*
X211188748Y-118890000D02*
X212611252Y-118890000D01*
%TO.C,R8*%
X205890000Y-107472936D02*
X205890000Y-108927064D01*
X207710000Y-107472936D02*
X207710000Y-108927064D01*
%TO.C,R3*%
X201872936Y-111910000D02*
X203327064Y-111910000D01*
X201872936Y-110090000D02*
X203327064Y-110090000D01*
%TO.C,R2*%
X194890000Y-119072936D02*
X194890000Y-120527064D01*
X196710000Y-119072936D02*
X196710000Y-120527064D01*
%TO.C,C3*%
X194110000Y-114311252D02*
X194110000Y-112888748D01*
X192290000Y-114311252D02*
X192290000Y-112888748D01*
%TO.C,C6*%
X211213748Y-112490000D02*
X212636252Y-112490000D01*
X211213748Y-114310000D02*
X212636252Y-114310000D01*
%TD*%
M02*
