%TF.GenerationSoftware,KiCad,Pcbnew,(6.0.4)*%
%TF.CreationDate,2022-07-28T21:40:12+10:00*%
%TF.ProjectId,GSR Sensor,47535220-5365-46e7-936f-722e6b696361,rev?*%
%TF.SameCoordinates,Original*%
%TF.FileFunction,Copper,L1,Top*%
%TF.FilePolarity,Positive*%
%FSLAX46Y46*%
G04 Gerber Fmt 4.6, Leading zero omitted, Abs format (unit mm)*
G04 Created by KiCad (PCBNEW (6.0.4)) date 2022-07-28 21:40:12*
%MOMM*%
%LPD*%
G01*
G04 APERTURE LIST*
G04 Aperture macros list*
%AMRoundRect*
0 Rectangle with rounded corners*
0 $1 Rounding radius*
0 $2 $3 $4 $5 $6 $7 $8 $9 X,Y pos of 4 corners*
0 Add a 4 corners polygon primitive as box body*
4,1,4,$2,$3,$4,$5,$6,$7,$8,$9,$2,$3,0*
0 Add four circle primitives for the rounded corners*
1,1,$1+$1,$2,$3*
1,1,$1+$1,$4,$5*
1,1,$1+$1,$6,$7*
1,1,$1+$1,$8,$9*
0 Add four rect primitives between the rounded corners*
20,1,$1+$1,$2,$3,$4,$5,0*
20,1,$1+$1,$4,$5,$6,$7,0*
20,1,$1+$1,$6,$7,$8,$9,0*
20,1,$1+$1,$8,$9,$2,$3,0*%
G04 Aperture macros list end*
%TA.AperFunction,SMDPad,CuDef*%
%ADD10RoundRect,0.250000X-0.325000X-0.650000X0.325000X-0.650000X0.325000X0.650000X-0.325000X0.650000X0*%
%TD*%
%TA.AperFunction,SMDPad,CuDef*%
%ADD11RoundRect,0.250000X-0.625000X0.400000X-0.625000X-0.400000X0.625000X-0.400000X0.625000X0.400000X0*%
%TD*%
%TA.AperFunction,SMDPad,CuDef*%
%ADD12RoundRect,0.250000X-0.400000X-0.625000X0.400000X-0.625000X0.400000X0.625000X-0.400000X0.625000X0*%
%TD*%
%TA.AperFunction,ComponentPad*%
%ADD13R,1.700000X1.700000*%
%TD*%
%TA.AperFunction,ComponentPad*%
%ADD14O,1.700000X1.700000*%
%TD*%
%TA.AperFunction,SMDPad,CuDef*%
%ADD15RoundRect,0.150000X-0.825000X-0.150000X0.825000X-0.150000X0.825000X0.150000X-0.825000X0.150000X0*%
%TD*%
%TA.AperFunction,SMDPad,CuDef*%
%ADD16RoundRect,0.250000X0.400000X0.625000X-0.400000X0.625000X-0.400000X-0.625000X0.400000X-0.625000X0*%
%TD*%
%TA.AperFunction,SMDPad,CuDef*%
%ADD17RoundRect,0.250000X0.325000X0.650000X-0.325000X0.650000X-0.325000X-0.650000X0.325000X-0.650000X0*%
%TD*%
%TA.AperFunction,SMDPad,CuDef*%
%ADD18RoundRect,0.250000X-0.650000X0.325000X-0.650000X-0.325000X0.650000X-0.325000X0.650000X0.325000X0*%
%TD*%
%TA.AperFunction,ViaPad*%
%ADD19C,0.800000*%
%TD*%
%TA.AperFunction,Conductor*%
%ADD20C,0.250000*%
%TD*%
G04 APERTURE END LIST*
D10*
%TO.P,C5,1*%
%TO.N,Net-(C4-Pad1)*%
X156350000Y-99100000D03*
%TO.P,C5,2*%
%TO.N,GND*%
X159300000Y-99100000D03*
%TD*%
D11*
%TO.P,R4,1*%
%TO.N,Net-(R4-Pad1)*%
X141900000Y-106050000D03*
%TO.P,R4,2*%
%TO.N,GND*%
X141900000Y-109150000D03*
%TD*%
%TO.P,R5,1*%
%TO.N,Net-(C7-Pad1)*%
X153400000Y-105750000D03*
%TO.P,R5,2*%
%TO.N,Net-(R4-Pad1)*%
X153400000Y-108850000D03*
%TD*%
D12*
%TO.P,R6,1*%
%TO.N,+3V3*%
X126250000Y-107800000D03*
%TO.P,R6,2*%
%TO.N,Net-(C8-Pad1)*%
X129350000Y-107800000D03*
%TD*%
D13*
%TO.P,J1,1,Pin_1*%
%TO.N,+3V3*%
X136275000Y-95800000D03*
D14*
%TO.P,J1,2,Pin_2*%
%TO.N,Net-(C7-Pad1)*%
X138815000Y-95800000D03*
%TO.P,J1,3,Pin_3*%
%TO.N,GND*%
X141355000Y-95800000D03*
%TD*%
D11*
%TO.P,R2,1*%
%TO.N,GND*%
X137300000Y-105550000D03*
%TO.P,R2,2*%
X137300000Y-108650000D03*
%TD*%
D10*
%TO.P,C7,1*%
%TO.N,Net-(C7-Pad1)*%
X156325000Y-108200000D03*
%TO.P,C7,2*%
%TO.N,GND*%
X159275000Y-108200000D03*
%TD*%
%TO.P,C2,1*%
%TO.N,+3V3*%
X126225000Y-104000000D03*
%TO.P,C2,2*%
%TO.N,GND*%
X129175000Y-104000000D03*
%TD*%
%TO.P,C8,1*%
%TO.N,Net-(C8-Pad1)*%
X131425000Y-107800000D03*
%TO.P,C8,2*%
%TO.N,GND*%
X134375000Y-107800000D03*
%TD*%
%TO.P,C6,1*%
%TO.N,Net-(C4-Pad1)*%
X156350000Y-101600000D03*
%TO.P,C6,2*%
%TO.N,GND*%
X159300000Y-101600000D03*
%TD*%
%TO.P,C9,1*%
%TO.N,Net-(C8-Pad1)*%
X131425000Y-104000000D03*
%TO.P,C9,2*%
%TO.N,GND*%
X134375000Y-104000000D03*
%TD*%
D15*
%TO.P,U3,1*%
%TO.N,Net-(R3-Pad1)*%
X145525000Y-100490000D03*
%TO.P,U3,2,-*%
X145525000Y-101760000D03*
%TO.P,U3,3,+*%
%TO.N,GND*%
X145525000Y-103030000D03*
%TO.P,U3,4,V+*%
%TO.N,+3V3*%
X145525000Y-104300000D03*
%TO.P,U3,5,+*%
%TO.N,Net-(C4-Pad1)*%
X145525000Y-105570000D03*
%TO.P,U3,6,-*%
%TO.N,Net-(R4-Pad1)*%
X145525000Y-106840000D03*
%TO.P,U3,7*%
%TO.N,Net-(C7-Pad1)*%
X145525000Y-108110000D03*
%TO.P,U3,8*%
%TO.N,N/C*%
X150475000Y-108110000D03*
%TO.P,U3,9*%
X150475000Y-106840000D03*
%TO.P,U3,10*%
X150475000Y-105570000D03*
%TO.P,U3,11,V-*%
%TO.N,GND*%
X150475000Y-104300000D03*
%TO.P,U3,12*%
%TO.N,N/C*%
X150475000Y-103030000D03*
%TO.P,U3,13*%
X150475000Y-101760000D03*
%TO.P,U3,14*%
X150475000Y-100490000D03*
%TD*%
D13*
%TO.P,J2,1,Pin_1*%
%TO.N,Net-(J2-Pad1)*%
X146925000Y-95800000D03*
D14*
%TO.P,J2,2,Pin_2*%
%TO.N,Net-(J2-Pad2)*%
X149465000Y-95800000D03*
%TD*%
D16*
%TO.P,R7,1*%
%TO.N,Net-(J2-Pad1)*%
X134350000Y-100200000D03*
%TO.P,R7,2*%
%TO.N,+3V3*%
X131250000Y-100200000D03*
%TD*%
D11*
%TO.P,R3,1*%
%TO.N,Net-(R3-Pad1)*%
X141900000Y-100600000D03*
%TO.P,R3,2*%
%TO.N,Net-(C4-Pad1)*%
X141900000Y-103700000D03*
%TD*%
D17*
%TO.P,C4,1*%
%TO.N,Net-(C4-Pad1)*%
X159300000Y-104100000D03*
%TO.P,C4,2*%
%TO.N,GND*%
X156350000Y-104100000D03*
%TD*%
D11*
%TO.P,R8,1*%
%TO.N,Net-(J2-Pad2)*%
X153100000Y-94550000D03*
%TO.P,R8,2*%
%TO.N,+3V3*%
X153100000Y-97650000D03*
%TD*%
%TO.P,R1,1*%
%TO.N,+3V3*%
X136600000Y-100550000D03*
%TO.P,R1,2*%
%TO.N,GND*%
X136600000Y-103650000D03*
%TD*%
D18*
%TO.P,C3,1*%
%TO.N,+3V3*%
X139200000Y-100625000D03*
%TO.P,C3,2*%
%TO.N,GND*%
X139200000Y-103575000D03*
%TD*%
D10*
%TO.P,C1,1*%
%TO.N,+3V3*%
X126225000Y-100200000D03*
%TO.P,C1,2*%
%TO.N,GND*%
X129175000Y-100200000D03*
%TD*%
D19*
%TO.N,GND*%
X152600000Y-101400000D03*
X134800000Y-102200000D03*
X139700000Y-107600000D03*
X152800000Y-103800000D03*
X152600000Y-100300000D03*
X139700000Y-108900000D03*
%TO.N,Net-(C7-Pad1)*%
X143700000Y-109200000D03*
%TO.N,Net-(C8-Pad1)*%
X139800000Y-105400000D03*
%TD*%
D20*
%TO.N,+3V3*%
X139125000Y-100550000D02*
X139200000Y-100625000D01*
X147749022Y-94000000D02*
X148099511Y-94350489D01*
X148100000Y-102101072D02*
X145901072Y-104300000D01*
X138075000Y-94000000D02*
X147749022Y-94000000D01*
X149150000Y-97650000D02*
X149450000Y-97650000D01*
X149450000Y-97650000D02*
X148100000Y-99000000D01*
X145901072Y-104300000D02*
X145525000Y-104300000D01*
X126225000Y-100200000D02*
X126225000Y-104000000D01*
X131250000Y-100200000D02*
X132449520Y-101399520D01*
X127449520Y-98975480D02*
X126225000Y-100200000D01*
X126225000Y-107775000D02*
X126250000Y-107800000D01*
X148099511Y-94350489D02*
X148099511Y-96599511D01*
X149450000Y-97650000D02*
X153100000Y-97650000D01*
X135650000Y-95800000D02*
X131250000Y-100200000D01*
X131250000Y-100200000D02*
X130025480Y-98975480D01*
X136275000Y-95800000D02*
X135650000Y-95800000D01*
X126225000Y-104000000D02*
X126225000Y-107775000D01*
X136275000Y-95800000D02*
X138075000Y-94000000D01*
X132449520Y-101399520D02*
X135750480Y-101399520D01*
X148099511Y-96599511D02*
X149150000Y-97650000D01*
X130025480Y-98975480D02*
X127449520Y-98975480D01*
X136600000Y-100550000D02*
X139125000Y-100550000D01*
X135750480Y-101399520D02*
X136600000Y-100550000D01*
X148100000Y-99000000D02*
X148100000Y-102101072D01*
%TO.N,GND*%
X159375000Y-108375000D02*
X159350000Y-108400000D01*
X159275000Y-108200000D02*
X159275000Y-108475000D01*
X136600000Y-103650000D02*
X136250000Y-103650000D01*
X145525000Y-103030000D02*
X145220480Y-102725480D01*
X136250000Y-103650000D02*
X134800000Y-102200000D01*
X159325000Y-99775000D02*
X159300000Y-99800000D01*
X145220480Y-102725480D02*
X140049520Y-102725480D01*
X140049520Y-102725480D02*
X139200000Y-103575000D01*
X136600000Y-103650000D02*
X139125000Y-103650000D01*
X139125000Y-103650000D02*
X139200000Y-103575000D01*
X136600000Y-103650000D02*
X136600000Y-105650000D01*
%TO.N,Net-(C4-Pad1)*%
X156350000Y-102400000D02*
X156350000Y-99800000D01*
X141900000Y-103700000D02*
X143770000Y-105570000D01*
X158850000Y-104100000D02*
X156350000Y-101600000D01*
X151877987Y-103422013D02*
X153700000Y-101600000D01*
X145525000Y-105570000D02*
X145901072Y-105570000D01*
X151877987Y-108734520D02*
X151877987Y-103422013D01*
X153700000Y-101600000D02*
X156350000Y-101600000D01*
X156350000Y-102400000D02*
X156800000Y-102400000D01*
X149065592Y-108734520D02*
X151877987Y-108734520D01*
X159300000Y-104100000D02*
X158850000Y-104100000D01*
X143770000Y-105570000D02*
X145525000Y-105570000D01*
X145901072Y-105570000D02*
X149065592Y-108734520D01*
%TO.N,Net-(C7-Pad1)*%
X153875000Y-105750000D02*
X156325000Y-108200000D01*
X143700000Y-109200000D02*
X144435000Y-109200000D01*
X156325000Y-108200000D02*
X154700480Y-109824520D01*
X153400000Y-105750000D02*
X153875000Y-105750000D01*
X147239520Y-109824520D02*
X145525000Y-108110000D01*
X144435000Y-109200000D02*
X145525000Y-108110000D01*
X154700480Y-109824520D02*
X147239520Y-109824520D01*
%TO.N,Net-(R3-Pad1)*%
X145415000Y-100600000D02*
X145525000Y-100490000D01*
X145525000Y-100490000D02*
X145525000Y-101760000D01*
X141900000Y-100600000D02*
X145415000Y-100600000D01*
%TO.N,Net-(R4-Pad1)*%
X142690000Y-106840000D02*
X145525000Y-106840000D01*
X146040000Y-106840000D02*
X148384040Y-109184040D01*
X145525000Y-106840000D02*
X146040000Y-106840000D01*
X153400000Y-108850000D02*
X153065960Y-109184040D01*
X141900000Y-106050000D02*
X142690000Y-106840000D01*
X153065960Y-109184040D02*
X148384040Y-109184040D01*
%TO.N,Net-(C8-Pad1)*%
X139800000Y-105400000D02*
X138675480Y-106524520D01*
X131425000Y-104000000D02*
X131425000Y-107800000D01*
X138675480Y-106524520D02*
X132700480Y-106524520D01*
X129350000Y-107800000D02*
X131425000Y-107800000D01*
X132700480Y-106524520D02*
X131425000Y-107800000D01*
%TO.N,Net-(J2-Pad1)*%
X145750489Y-94625489D02*
X138085229Y-94625489D01*
X138085229Y-94625489D02*
X137449511Y-95261207D01*
X137449511Y-97100489D02*
X134350000Y-100200000D01*
X137449511Y-95261207D02*
X137449511Y-97100489D01*
X146925000Y-95800000D02*
X145750489Y-94625489D01*
%TO.N,Net-(J2-Pad2)*%
X150700000Y-95800000D02*
X149465000Y-95800000D01*
X153100000Y-94550000D02*
X151950000Y-94550000D01*
X151950000Y-94550000D02*
X150700000Y-95800000D01*
%TD*%
%TA.AperFunction,Conductor*%
%TO.N,GND*%
G36*
X128034121Y-99628982D02*
G01*
X128080614Y-99682638D01*
X128092000Y-99734980D01*
X128092000Y-99927885D01*
X128096475Y-99943124D01*
X128097865Y-99944329D01*
X128105548Y-99946000D01*
X129303000Y-99946000D01*
X129371121Y-99966002D01*
X129417614Y-100019658D01*
X129429000Y-100072000D01*
X129429000Y-101589884D01*
X129433475Y-101605123D01*
X129434865Y-101606328D01*
X129442548Y-101607999D01*
X129547095Y-101607999D01*
X129553614Y-101607662D01*
X129649206Y-101597743D01*
X129662600Y-101594851D01*
X129816784Y-101543412D01*
X129829962Y-101537239D01*
X129967807Y-101451937D01*
X129979208Y-101442901D01*
X130097887Y-101324016D01*
X130160170Y-101289937D01*
X130230990Y-101294940D01*
X130276077Y-101323861D01*
X130376697Y-101424305D01*
X130382927Y-101428145D01*
X130382928Y-101428146D01*
X130499479Y-101499989D01*
X130527262Y-101517115D01*
X130587934Y-101537239D01*
X130688611Y-101570632D01*
X130688613Y-101570632D01*
X130695139Y-101572797D01*
X130701975Y-101573497D01*
X130701978Y-101573498D01*
X130745031Y-101577909D01*
X130799600Y-101583500D01*
X131685406Y-101583500D01*
X131753527Y-101603502D01*
X131774501Y-101620405D01*
X131945863Y-101791767D01*
X131953407Y-101800057D01*
X131957520Y-101806538D01*
X131963297Y-101811963D01*
X132007187Y-101853178D01*
X132010029Y-101855933D01*
X132029750Y-101875654D01*
X132032945Y-101878132D01*
X132041967Y-101885838D01*
X132074199Y-101916106D01*
X132081148Y-101919926D01*
X132091952Y-101925866D01*
X132108476Y-101936719D01*
X132124479Y-101949133D01*
X132165063Y-101966696D01*
X132175693Y-101971903D01*
X132214460Y-101993215D01*
X132222137Y-101995186D01*
X132222142Y-101995188D01*
X132234078Y-101998252D01*
X132252786Y-102004657D01*
X132271375Y-102012701D01*
X132279200Y-102013940D01*
X132279202Y-102013941D01*
X132315039Y-102019617D01*
X132326660Y-102022024D01*
X132358479Y-102030193D01*
X132369490Y-102033020D01*
X132389751Y-102033020D01*
X132409460Y-102034571D01*
X132429463Y-102037739D01*
X132437355Y-102036993D01*
X132442582Y-102036499D01*
X132473474Y-102033579D01*
X132485331Y-102033020D01*
X135671713Y-102033020D01*
X135682896Y-102033547D01*
X135690389Y-102035222D01*
X135698315Y-102034973D01*
X135698316Y-102034973D01*
X135758466Y-102033082D01*
X135762425Y-102033020D01*
X135790336Y-102033020D01*
X135794271Y-102032523D01*
X135794336Y-102032515D01*
X135806173Y-102031582D01*
X135838431Y-102030568D01*
X135842450Y-102030442D01*
X135850369Y-102030193D01*
X135869823Y-102024541D01*
X135889180Y-102020533D01*
X135901410Y-102018988D01*
X135901411Y-102018988D01*
X135909277Y-102017994D01*
X135916648Y-102015075D01*
X135916650Y-102015075D01*
X135950392Y-102001716D01*
X135961622Y-101997871D01*
X135996463Y-101987749D01*
X135996464Y-101987749D01*
X136004073Y-101985538D01*
X136010892Y-101981505D01*
X136010897Y-101981503D01*
X136021508Y-101975227D01*
X136039256Y-101966532D01*
X136058097Y-101959072D01*
X136078467Y-101944273D01*
X136093867Y-101933084D01*
X136103787Y-101926568D01*
X136135015Y-101908100D01*
X136135018Y-101908098D01*
X136141842Y-101904062D01*
X136156163Y-101889741D01*
X136171197Y-101876900D01*
X136173025Y-101875572D01*
X136187587Y-101864992D01*
X136215778Y-101830915D01*
X136223768Y-101822136D01*
X136300499Y-101745405D01*
X136362811Y-101711379D01*
X136389594Y-101708500D01*
X137275400Y-101708500D01*
X137278646Y-101708163D01*
X137278650Y-101708163D01*
X137374308Y-101698238D01*
X137374312Y-101698237D01*
X137381166Y-101697526D01*
X137387702Y-101695345D01*
X137387704Y-101695345D01*
X137519806Y-101651272D01*
X137548946Y-101641550D01*
X137699348Y-101548478D01*
X137798263Y-101449390D01*
X137860544Y-101415312D01*
X137931364Y-101420315D01*
X137976453Y-101449236D01*
X138027295Y-101499989D01*
X138076697Y-101549305D01*
X138082927Y-101553145D01*
X138082928Y-101553146D01*
X138220090Y-101637694D01*
X138227262Y-101642115D01*
X138307005Y-101668564D01*
X138388611Y-101695632D01*
X138388613Y-101695632D01*
X138395139Y-101697797D01*
X138401975Y-101698497D01*
X138401978Y-101698498D01*
X138445031Y-101702909D01*
X138499600Y-101708500D01*
X139900400Y-101708500D01*
X139903646Y-101708163D01*
X139903650Y-101708163D01*
X139999308Y-101698238D01*
X139999312Y-101698237D01*
X140006166Y-101697526D01*
X140012702Y-101695345D01*
X140012704Y-101695345D01*
X140144806Y-101651272D01*
X140173946Y-101641550D01*
X140324348Y-101548478D01*
X140449305Y-101423303D01*
X140449453Y-101423064D01*
X140505013Y-101383674D01*
X140575936Y-101380444D01*
X140637346Y-101416071D01*
X140653115Y-101436523D01*
X140676522Y-101474348D01*
X140801697Y-101599305D01*
X140807927Y-101603145D01*
X140807928Y-101603146D01*
X140945090Y-101687694D01*
X140952262Y-101692115D01*
X141032005Y-101718564D01*
X141113611Y-101745632D01*
X141113613Y-101745632D01*
X141120139Y-101747797D01*
X141126975Y-101748497D01*
X141126978Y-101748498D01*
X141170031Y-101752909D01*
X141224600Y-101758500D01*
X142575400Y-101758500D01*
X142578646Y-101758163D01*
X142578650Y-101758163D01*
X142674308Y-101748238D01*
X142674312Y-101748237D01*
X142681166Y-101747526D01*
X142687702Y-101745345D01*
X142687704Y-101745345D01*
X142828900Y-101698238D01*
X142848946Y-101691550D01*
X142999348Y-101598478D01*
X143024285Y-101573498D01*
X143119134Y-101478483D01*
X143124305Y-101473303D01*
X143128146Y-101467072D01*
X143213275Y-101328968D01*
X143213276Y-101328966D01*
X143217115Y-101322738D01*
X143219419Y-101315791D01*
X143222513Y-101309156D01*
X143224749Y-101310199D01*
X143258523Y-101261462D01*
X143324091Y-101234234D01*
X143337672Y-101233500D01*
X143955839Y-101233500D01*
X144023960Y-101253502D01*
X144070453Y-101307158D01*
X144080557Y-101377432D01*
X144076836Y-101394652D01*
X144046233Y-101499989D01*
X144046232Y-101499993D01*
X144044438Y-101506169D01*
X144043934Y-101512574D01*
X144043933Y-101512579D01*
X144041947Y-101537816D01*
X144041500Y-101543498D01*
X144041500Y-101976502D01*
X144041693Y-101978950D01*
X144041693Y-101978958D01*
X144043539Y-102002407D01*
X144044438Y-102013831D01*
X144064392Y-102082513D01*
X144085536Y-102155291D01*
X144090855Y-102173601D01*
X144120618Y-102223928D01*
X144169841Y-102307158D01*
X144175547Y-102316807D01*
X144178487Y-102319747D01*
X144203820Y-102384266D01*
X144189921Y-102453889D01*
X144177874Y-102472636D01*
X144171910Y-102480324D01*
X144095352Y-102609779D01*
X144089107Y-102624210D01*
X144050061Y-102758605D01*
X144050101Y-102772706D01*
X144057370Y-102776000D01*
X145653000Y-102776000D01*
X145721121Y-102796002D01*
X145767614Y-102849658D01*
X145779000Y-102902000D01*
X145779000Y-103158000D01*
X145758998Y-103226121D01*
X145705342Y-103272614D01*
X145653000Y-103284000D01*
X144063122Y-103284000D01*
X144049591Y-103287973D01*
X144048456Y-103295871D01*
X144089107Y-103435790D01*
X144095352Y-103450221D01*
X144171911Y-103579677D01*
X144177871Y-103587360D01*
X144203820Y-103653444D01*
X144189922Y-103723067D01*
X144179579Y-103739161D01*
X144175547Y-103743193D01*
X144090855Y-103886399D01*
X144088644Y-103894010D01*
X144088643Y-103894012D01*
X144085741Y-103904000D01*
X144044438Y-104046169D01*
X144041500Y-104083498D01*
X144041500Y-104516502D01*
X144041693Y-104518950D01*
X144041693Y-104518958D01*
X144043173Y-104537753D01*
X144044438Y-104553831D01*
X144046231Y-104560003D01*
X144046232Y-104560008D01*
X144069156Y-104638911D01*
X144068953Y-104709907D01*
X144030399Y-104769524D01*
X143965734Y-104798832D01*
X143895490Y-104788528D01*
X143859064Y-104763159D01*
X143320405Y-104224500D01*
X143286379Y-104162188D01*
X143283500Y-104135405D01*
X143283500Y-103249600D01*
X143283163Y-103246350D01*
X143273238Y-103150692D01*
X143273237Y-103150688D01*
X143272526Y-103143834D01*
X143216550Y-102976054D01*
X143123478Y-102825652D01*
X143111696Y-102813890D01*
X143003483Y-102705866D01*
X142998303Y-102700695D01*
X142935827Y-102662184D01*
X142853968Y-102611725D01*
X142853966Y-102611724D01*
X142847738Y-102607885D01*
X142767995Y-102581436D01*
X142686389Y-102554368D01*
X142686387Y-102554368D01*
X142679861Y-102552203D01*
X142673025Y-102551503D01*
X142673022Y-102551502D01*
X142629969Y-102547091D01*
X142575400Y-102541500D01*
X141224600Y-102541500D01*
X141221354Y-102541837D01*
X141221350Y-102541837D01*
X141125692Y-102551762D01*
X141125688Y-102551763D01*
X141118834Y-102552474D01*
X141112298Y-102554655D01*
X141112296Y-102554655D01*
X140999377Y-102592328D01*
X140951054Y-102608450D01*
X140800652Y-102701522D01*
X140675695Y-102826697D01*
X140675346Y-102827263D01*
X140619658Y-102866744D01*
X140548735Y-102869974D01*
X140487325Y-102834348D01*
X140471551Y-102813890D01*
X140451935Y-102782190D01*
X140442901Y-102770792D01*
X140328171Y-102656261D01*
X140316760Y-102647249D01*
X140178757Y-102562184D01*
X140165576Y-102556037D01*
X140011290Y-102504862D01*
X139997914Y-102501995D01*
X139903562Y-102492328D01*
X139897145Y-102492000D01*
X139472115Y-102492000D01*
X139456876Y-102496475D01*
X139455671Y-102497865D01*
X139454000Y-102505548D01*
X139454000Y-103703000D01*
X139433998Y-103771121D01*
X139380342Y-103817614D01*
X139328000Y-103829000D01*
X138041115Y-103829000D01*
X138025876Y-103833475D01*
X138003611Y-103859170D01*
X138002189Y-103857938D01*
X137997185Y-103867100D01*
X137934871Y-103901122D01*
X137908094Y-103904000D01*
X136472000Y-103904000D01*
X136403879Y-103883998D01*
X136357386Y-103830342D01*
X136346000Y-103778000D01*
X136346000Y-103377885D01*
X136854000Y-103377885D01*
X136858475Y-103393124D01*
X136859865Y-103394329D01*
X136867548Y-103396000D01*
X137733885Y-103396000D01*
X137749124Y-103391525D01*
X137771389Y-103365830D01*
X137772811Y-103367062D01*
X137777815Y-103357900D01*
X137840129Y-103323878D01*
X137866906Y-103321000D01*
X138927885Y-103321000D01*
X138943124Y-103316525D01*
X138944329Y-103315135D01*
X138946000Y-103307452D01*
X138946000Y-102510116D01*
X138941525Y-102494877D01*
X138940135Y-102493672D01*
X138932452Y-102492001D01*
X138502905Y-102492001D01*
X138496386Y-102492338D01*
X138400794Y-102502257D01*
X138387400Y-102505149D01*
X138233216Y-102556588D01*
X138220038Y-102562761D01*
X138082193Y-102648063D01*
X138070792Y-102657099D01*
X137976738Y-102751316D01*
X137914455Y-102785395D01*
X137843635Y-102780392D01*
X137798547Y-102751471D01*
X137703171Y-102656261D01*
X137691760Y-102647249D01*
X137553757Y-102562184D01*
X137540576Y-102556037D01*
X137386290Y-102504862D01*
X137372914Y-102501995D01*
X137278562Y-102492328D01*
X137272145Y-102492000D01*
X136872115Y-102492000D01*
X136856876Y-102496475D01*
X136855671Y-102497865D01*
X136854000Y-102505548D01*
X136854000Y-103377885D01*
X136346000Y-103377885D01*
X136346000Y-102510116D01*
X136341525Y-102494877D01*
X136340135Y-102493672D01*
X136332452Y-102492001D01*
X135927905Y-102492001D01*
X135921386Y-102492338D01*
X135825794Y-102502257D01*
X135812400Y-102505149D01*
X135658216Y-102556588D01*
X135645038Y-102562761D01*
X135507193Y-102648063D01*
X135495792Y-102657099D01*
X135376695Y-102776403D01*
X135314412Y-102810482D01*
X135243592Y-102805479D01*
X135198505Y-102776559D01*
X135178172Y-102756262D01*
X135166760Y-102747249D01*
X135028757Y-102662184D01*
X135015576Y-102656037D01*
X134861290Y-102604862D01*
X134847914Y-102601995D01*
X134753562Y-102592328D01*
X134747145Y-102592000D01*
X134647115Y-102592000D01*
X134631876Y-102596475D01*
X134630671Y-102597865D01*
X134629000Y-102605548D01*
X134629000Y-105389884D01*
X134633475Y-105405123D01*
X134634865Y-105406328D01*
X134642548Y-105407999D01*
X134747095Y-105407999D01*
X134753614Y-105407662D01*
X134849206Y-105397743D01*
X134862600Y-105394851D01*
X135016784Y-105343412D01*
X135029962Y-105337239D01*
X135167807Y-105251937D01*
X135179208Y-105242901D01*
X135293739Y-105128171D01*
X135302751Y-105116760D01*
X135387816Y-104978757D01*
X135393963Y-104965576D01*
X135447304Y-104804759D01*
X135448496Y-104805154D01*
X135478953Y-104748973D01*
X135541161Y-104714759D01*
X135611992Y-104719609D01*
X135634431Y-104730536D01*
X135646242Y-104737816D01*
X135659424Y-104743963D01*
X135813710Y-104795138D01*
X135827086Y-104798005D01*
X135831485Y-104798456D01*
X135897212Y-104825298D01*
X135937994Y-104883413D01*
X135940882Y-104954351D01*
X135938235Y-104963469D01*
X135929862Y-104988713D01*
X135926995Y-105002086D01*
X135917328Y-105096438D01*
X135917000Y-105102855D01*
X135917000Y-105277885D01*
X135921475Y-105293124D01*
X135922865Y-105294329D01*
X135930548Y-105296000D01*
X137428000Y-105296000D01*
X137496121Y-105316002D01*
X137542614Y-105369658D01*
X137554000Y-105422000D01*
X137554000Y-105678000D01*
X137533998Y-105746121D01*
X137480342Y-105792614D01*
X137428000Y-105804000D01*
X135935116Y-105804000D01*
X135919877Y-105808475D01*
X135902627Y-105828383D01*
X135888574Y-105854117D01*
X135826261Y-105888141D01*
X135799480Y-105891020D01*
X132779247Y-105891020D01*
X132768064Y-105890493D01*
X132760571Y-105888818D01*
X132752645Y-105889067D01*
X132752644Y-105889067D01*
X132692494Y-105890958D01*
X132688535Y-105891020D01*
X132660624Y-105891020D01*
X132656690Y-105891517D01*
X132656689Y-105891517D01*
X132656624Y-105891525D01*
X132644787Y-105892458D01*
X132612970Y-105893458D01*
X132608509Y-105893598D01*
X132600590Y-105893847D01*
X132582934Y-105898976D01*
X132581138Y-105899498D01*
X132561786Y-105903506D01*
X132554715Y-105904400D01*
X132541683Y-105906046D01*
X132534314Y-105908963D01*
X132534312Y-105908964D01*
X132500577Y-105922320D01*
X132489349Y-105926165D01*
X132446887Y-105938502D01*
X132440064Y-105942537D01*
X132440062Y-105942538D01*
X132429452Y-105948813D01*
X132411704Y-105957508D01*
X132392863Y-105964968D01*
X132386447Y-105969630D01*
X132386446Y-105969630D01*
X132357093Y-105990956D01*
X132347173Y-105997472D01*
X132315945Y-106015940D01*
X132315942Y-106015942D01*
X132309118Y-106019978D01*
X132294797Y-106034299D01*
X132279764Y-106047139D01*
X132263373Y-106059048D01*
X132262399Y-106057707D01*
X132207406Y-106085531D01*
X132136784Y-106078247D01*
X132081312Y-106033937D01*
X132058500Y-105961631D01*
X132058500Y-105421311D01*
X132078502Y-105353190D01*
X132118196Y-105314167D01*
X132224348Y-105248478D01*
X132349305Y-105123303D01*
X132359906Y-105106105D01*
X132438275Y-104978968D01*
X132438276Y-104978966D01*
X132442115Y-104972738D01*
X132497797Y-104804861D01*
X132498500Y-104798005D01*
X132503740Y-104746854D01*
X132508500Y-104700400D01*
X132508500Y-104697095D01*
X133292001Y-104697095D01*
X133292338Y-104703614D01*
X133302257Y-104799206D01*
X133305149Y-104812600D01*
X133356588Y-104966784D01*
X133362761Y-104979962D01*
X133448063Y-105117807D01*
X133457099Y-105129208D01*
X133571829Y-105243739D01*
X133583240Y-105252751D01*
X133721243Y-105337816D01*
X133734424Y-105343963D01*
X133888710Y-105395138D01*
X133902086Y-105398005D01*
X133996438Y-105407672D01*
X134002854Y-105408000D01*
X134102885Y-105408000D01*
X134118124Y-105403525D01*
X134119329Y-105402135D01*
X134121000Y-105394452D01*
X134121000Y-104272115D01*
X134116525Y-104256876D01*
X134115135Y-104255671D01*
X134107452Y-104254000D01*
X133310116Y-104254000D01*
X133294877Y-104258475D01*
X133293672Y-104259865D01*
X133292001Y-104267548D01*
X133292001Y-104697095D01*
X132508500Y-104697095D01*
X132508500Y-103727885D01*
X133292000Y-103727885D01*
X133296475Y-103743124D01*
X133297865Y-103744329D01*
X133305548Y-103746000D01*
X134102885Y-103746000D01*
X134118124Y-103741525D01*
X134119329Y-103740135D01*
X134121000Y-103732452D01*
X134121000Y-102610116D01*
X134116525Y-102594877D01*
X134115135Y-102593672D01*
X134107452Y-102592001D01*
X134002905Y-102592001D01*
X133996386Y-102592338D01*
X133900794Y-102602257D01*
X133887400Y-102605149D01*
X133733216Y-102656588D01*
X133720038Y-102662761D01*
X133582193Y-102748063D01*
X133570792Y-102757099D01*
X133456261Y-102871829D01*
X133447249Y-102883240D01*
X133362184Y-103021243D01*
X133356037Y-103034424D01*
X133304862Y-103188710D01*
X133301995Y-103202086D01*
X133292328Y-103296438D01*
X133292000Y-103302855D01*
X133292000Y-103727885D01*
X132508500Y-103727885D01*
X132508500Y-103299600D01*
X132507294Y-103287973D01*
X132498238Y-103200692D01*
X132498237Y-103200688D01*
X132497526Y-103193834D01*
X132478664Y-103137296D01*
X132443868Y-103033002D01*
X132441550Y-103026054D01*
X132348478Y-102875652D01*
X132223303Y-102750695D01*
X132188953Y-102729521D01*
X132078968Y-102661725D01*
X132078966Y-102661724D01*
X132072738Y-102657885D01*
X131992995Y-102631436D01*
X131911389Y-102604368D01*
X131911387Y-102604368D01*
X131904861Y-102602203D01*
X131898025Y-102601503D01*
X131898022Y-102601502D01*
X131851493Y-102596735D01*
X131800400Y-102591500D01*
X131049600Y-102591500D01*
X131046354Y-102591837D01*
X131046350Y-102591837D01*
X130950692Y-102601762D01*
X130950688Y-102601763D01*
X130943834Y-102602474D01*
X130937298Y-102604655D01*
X130937296Y-102604655D01*
X130879277Y-102624012D01*
X130776054Y-102658450D01*
X130625652Y-102751522D01*
X130500695Y-102876697D01*
X130496855Y-102882927D01*
X130496854Y-102882928D01*
X130439698Y-102975652D01*
X130407885Y-103027262D01*
X130405564Y-103025832D01*
X130366983Y-103069646D01*
X130298705Y-103089104D01*
X130230746Y-103068559D01*
X130193010Y-103025082D01*
X130191094Y-103026268D01*
X130101937Y-102882193D01*
X130092901Y-102870792D01*
X129978171Y-102756261D01*
X129966760Y-102747249D01*
X129828757Y-102662184D01*
X129815576Y-102656037D01*
X129661290Y-102604862D01*
X129647914Y-102601995D01*
X129553562Y-102592328D01*
X129547145Y-102592000D01*
X129447115Y-102592000D01*
X129431876Y-102596475D01*
X129430671Y-102597865D01*
X129429000Y-102605548D01*
X129429000Y-105389884D01*
X129433475Y-105405123D01*
X129434865Y-105406328D01*
X129442548Y-105407999D01*
X129547095Y-105407999D01*
X129553614Y-105407662D01*
X129649206Y-105397743D01*
X129662600Y-105394851D01*
X129816784Y-105343412D01*
X129829962Y-105337239D01*
X129967807Y-105251937D01*
X129979208Y-105242901D01*
X130093739Y-105128171D01*
X130102751Y-105116760D01*
X130191658Y-104972525D01*
X130194041Y-104973994D01*
X130232427Y-104930375D01*
X130300699Y-104910896D01*
X130368664Y-104931419D01*
X130406592Y-104975096D01*
X130408450Y-104973946D01*
X130501522Y-105124348D01*
X130626697Y-105249305D01*
X130708500Y-105299729D01*
X130731616Y-105313978D01*
X130779109Y-105366750D01*
X130791500Y-105421238D01*
X130791500Y-106378689D01*
X130771498Y-106446810D01*
X130731804Y-106485833D01*
X130625652Y-106551522D01*
X130620479Y-106556704D01*
X130501759Y-106675631D01*
X130439476Y-106709710D01*
X130368656Y-106704707D01*
X130323570Y-106675787D01*
X130223303Y-106575695D01*
X130192494Y-106556704D01*
X130078968Y-106486725D01*
X130078966Y-106486724D01*
X130072738Y-106482885D01*
X129992995Y-106456436D01*
X129911389Y-106429368D01*
X129911387Y-106429368D01*
X129904861Y-106427203D01*
X129898025Y-106426503D01*
X129898022Y-106426502D01*
X129854969Y-106422091D01*
X129800400Y-106416500D01*
X128899600Y-106416500D01*
X128896354Y-106416837D01*
X128896350Y-106416837D01*
X128800692Y-106426762D01*
X128800688Y-106426763D01*
X128793834Y-106427474D01*
X128787298Y-106429655D01*
X128787296Y-106429655D01*
X128774237Y-106434012D01*
X128626054Y-106483450D01*
X128475652Y-106576522D01*
X128350695Y-106701697D01*
X128346855Y-106707927D01*
X128346854Y-106707928D01*
X128288709Y-106802257D01*
X128257885Y-106852262D01*
X128255581Y-106859209D01*
X128208253Y-107001900D01*
X128202203Y-107020139D01*
X128201503Y-107026975D01*
X128201502Y-107026978D01*
X128200875Y-107033100D01*
X128191500Y-107124600D01*
X128191500Y-108475400D01*
X128191837Y-108478646D01*
X128191837Y-108478650D01*
X128198349Y-108541405D01*
X128202474Y-108581166D01*
X128204655Y-108587702D01*
X128204655Y-108587704D01*
X128218933Y-108630500D01*
X128258450Y-108748946D01*
X128351522Y-108899348D01*
X128476697Y-109024305D01*
X128482927Y-109028145D01*
X128482928Y-109028146D01*
X128620090Y-109112694D01*
X128627262Y-109117115D01*
X128687934Y-109137239D01*
X128788611Y-109170632D01*
X128788613Y-109170632D01*
X128795139Y-109172797D01*
X128801975Y-109173497D01*
X128801978Y-109173498D01*
X128845031Y-109177909D01*
X128899600Y-109183500D01*
X129800400Y-109183500D01*
X129803646Y-109183163D01*
X129803650Y-109183163D01*
X129899308Y-109173238D01*
X129899312Y-109173237D01*
X129906166Y-109172526D01*
X129912702Y-109170345D01*
X129912704Y-109170345D01*
X130044806Y-109126272D01*
X130073946Y-109116550D01*
X130224348Y-109023478D01*
X130323252Y-108924401D01*
X130385533Y-108890323D01*
X130456353Y-108895326D01*
X130499319Y-108926555D01*
X130501522Y-108924348D01*
X130626697Y-109049305D01*
X130632927Y-109053145D01*
X130632928Y-109053146D01*
X130770288Y-109137816D01*
X130777262Y-109142115D01*
X130833343Y-109160716D01*
X130938611Y-109195632D01*
X130938613Y-109195632D01*
X130945139Y-109197797D01*
X130951975Y-109198497D01*
X130951978Y-109198498D01*
X130995031Y-109202909D01*
X131049600Y-109208500D01*
X131800400Y-109208500D01*
X131803646Y-109208163D01*
X131803650Y-109208163D01*
X131899308Y-109198238D01*
X131899312Y-109198237D01*
X131906166Y-109197526D01*
X131912702Y-109195345D01*
X131912704Y-109195345D01*
X132044806Y-109151272D01*
X132073946Y-109141550D01*
X132224348Y-109048478D01*
X132349305Y-108923303D01*
X132360174Y-108905671D01*
X132438275Y-108778968D01*
X132438276Y-108778966D01*
X132442115Y-108772738D01*
X132497797Y-108604861D01*
X132500359Y-108579861D01*
X132504299Y-108541405D01*
X132508500Y-108500400D01*
X132508500Y-108497095D01*
X133292001Y-108497095D01*
X133292338Y-108503614D01*
X133302257Y-108599206D01*
X133305149Y-108612600D01*
X133356588Y-108766784D01*
X133362761Y-108779962D01*
X133448063Y-108917807D01*
X133457099Y-108929208D01*
X133571829Y-109043739D01*
X133583240Y-109052751D01*
X133721243Y-109137816D01*
X133734424Y-109143963D01*
X133888710Y-109195138D01*
X133902086Y-109198005D01*
X133996438Y-109207672D01*
X134002854Y-109208000D01*
X134102885Y-109208000D01*
X134118124Y-109203525D01*
X134119329Y-109202135D01*
X134121000Y-109194452D01*
X134121000Y-109189884D01*
X134629000Y-109189884D01*
X134633475Y-109205123D01*
X134634865Y-109206328D01*
X134642548Y-109207999D01*
X134747095Y-109207999D01*
X134753614Y-109207662D01*
X134849206Y-109197743D01*
X134862600Y-109194851D01*
X135016784Y-109143412D01*
X135029962Y-109137239D01*
X135167807Y-109051937D01*
X135179208Y-109042901D01*
X135293739Y-108928171D01*
X135302751Y-108916760D01*
X135326714Y-108877885D01*
X140517000Y-108877885D01*
X140521475Y-108893124D01*
X140522865Y-108894329D01*
X140530548Y-108896000D01*
X141627885Y-108896000D01*
X141643124Y-108891525D01*
X141644329Y-108890135D01*
X141646000Y-108882452D01*
X141646000Y-108010116D01*
X141641525Y-107994877D01*
X141640135Y-107993672D01*
X141632452Y-107992001D01*
X141227905Y-107992001D01*
X141221386Y-107992338D01*
X141125794Y-108002257D01*
X141112400Y-108005149D01*
X140958216Y-108056588D01*
X140945038Y-108062761D01*
X140807193Y-108148063D01*
X140795792Y-108157099D01*
X140681261Y-108271829D01*
X140672249Y-108283240D01*
X140587184Y-108421243D01*
X140581037Y-108434424D01*
X140529862Y-108588710D01*
X140526995Y-108602086D01*
X140517328Y-108696438D01*
X140517000Y-108702855D01*
X140517000Y-108877885D01*
X135326714Y-108877885D01*
X135387816Y-108778757D01*
X135393963Y-108765576D01*
X135445138Y-108611290D01*
X135448005Y-108597914D01*
X135457672Y-108503562D01*
X135458000Y-108497146D01*
X135458000Y-108377885D01*
X135917000Y-108377885D01*
X135921475Y-108393124D01*
X135922865Y-108394329D01*
X135930548Y-108396000D01*
X137027885Y-108396000D01*
X137043124Y-108391525D01*
X137044329Y-108390135D01*
X137046000Y-108382452D01*
X137046000Y-108377885D01*
X137554000Y-108377885D01*
X137558475Y-108393124D01*
X137559865Y-108394329D01*
X137567548Y-108396000D01*
X138664884Y-108396000D01*
X138680123Y-108391525D01*
X138681328Y-108390135D01*
X138682999Y-108382452D01*
X138682999Y-108202905D01*
X138682662Y-108196386D01*
X138672743Y-108100794D01*
X138669851Y-108087400D01*
X138618412Y-107933216D01*
X138612239Y-107920038D01*
X138526937Y-107782193D01*
X138517901Y-107770792D01*
X138403171Y-107656261D01*
X138391760Y-107647249D01*
X138253757Y-107562184D01*
X138240576Y-107556037D01*
X138086290Y-107504862D01*
X138072914Y-107501995D01*
X137978562Y-107492328D01*
X137972145Y-107492000D01*
X137572115Y-107492000D01*
X137556876Y-107496475D01*
X137555671Y-107497865D01*
X137554000Y-107505548D01*
X137554000Y-108377885D01*
X137046000Y-108377885D01*
X137046000Y-107510116D01*
X137041525Y-107494877D01*
X137040135Y-107493672D01*
X137032452Y-107492001D01*
X136627905Y-107492001D01*
X136621386Y-107492338D01*
X136525794Y-107502257D01*
X136512400Y-107505149D01*
X136358216Y-107556588D01*
X136345038Y-107562761D01*
X136207193Y-107648063D01*
X136195792Y-107657099D01*
X136081261Y-107771829D01*
X136072249Y-107783240D01*
X135987184Y-107921243D01*
X135981037Y-107934424D01*
X135929862Y-108088710D01*
X135926995Y-108102086D01*
X135917328Y-108196438D01*
X135917000Y-108202855D01*
X135917000Y-108377885D01*
X135458000Y-108377885D01*
X135458000Y-108072115D01*
X135453525Y-108056876D01*
X135452135Y-108055671D01*
X135444452Y-108054000D01*
X134647115Y-108054000D01*
X134631876Y-108058475D01*
X134630671Y-108059865D01*
X134629000Y-108067548D01*
X134629000Y-109189884D01*
X134121000Y-109189884D01*
X134121000Y-108072115D01*
X134116525Y-108056876D01*
X134115135Y-108055671D01*
X134107452Y-108054000D01*
X133310116Y-108054000D01*
X133294877Y-108058475D01*
X133293672Y-108059865D01*
X133292001Y-108067548D01*
X133292001Y-108497095D01*
X132508500Y-108497095D01*
X132508500Y-107664595D01*
X132528502Y-107596474D01*
X132545405Y-107575500D01*
X132925980Y-107194925D01*
X132988292Y-107160899D01*
X133015075Y-107158020D01*
X133166000Y-107158020D01*
X133234121Y-107178022D01*
X133280614Y-107231678D01*
X133292000Y-107284020D01*
X133292000Y-107527885D01*
X133296475Y-107543124D01*
X133297865Y-107544329D01*
X133305548Y-107546000D01*
X135439884Y-107546000D01*
X135455123Y-107541525D01*
X135456328Y-107540135D01*
X135457999Y-107532452D01*
X135457999Y-107284020D01*
X135478001Y-107215899D01*
X135531657Y-107169406D01*
X135583999Y-107158020D01*
X138596713Y-107158020D01*
X138607896Y-107158547D01*
X138615389Y-107160222D01*
X138623315Y-107159973D01*
X138623316Y-107159973D01*
X138683466Y-107158082D01*
X138687425Y-107158020D01*
X138715336Y-107158020D01*
X138719271Y-107157523D01*
X138719336Y-107157515D01*
X138731173Y-107156582D01*
X138763431Y-107155568D01*
X138767450Y-107155442D01*
X138775369Y-107155193D01*
X138794823Y-107149541D01*
X138814180Y-107145533D01*
X138826410Y-107143988D01*
X138826411Y-107143988D01*
X138834277Y-107142994D01*
X138841648Y-107140075D01*
X138841650Y-107140075D01*
X138875392Y-107126716D01*
X138886622Y-107122871D01*
X138921463Y-107112749D01*
X138921464Y-107112749D01*
X138929073Y-107110538D01*
X138935892Y-107106505D01*
X138935897Y-107106503D01*
X138946508Y-107100227D01*
X138964256Y-107091532D01*
X138983097Y-107084072D01*
X139001807Y-107070479D01*
X139018867Y-107058084D01*
X139028787Y-107051568D01*
X139060015Y-107033100D01*
X139060018Y-107033098D01*
X139066842Y-107029062D01*
X139081163Y-107014741D01*
X139096197Y-107001900D01*
X139106174Y-106994651D01*
X139112587Y-106989992D01*
X139140778Y-106955915D01*
X139148768Y-106947136D01*
X139750499Y-106345405D01*
X139812811Y-106311379D01*
X139839594Y-106308500D01*
X139895487Y-106308500D01*
X139901939Y-106307128D01*
X139901944Y-106307128D01*
X140019100Y-106282225D01*
X140082288Y-106268794D01*
X140125199Y-106249689D01*
X140250722Y-106193803D01*
X140250724Y-106193802D01*
X140256752Y-106191118D01*
X140262094Y-106187237D01*
X140316439Y-106147753D01*
X140383307Y-106123894D01*
X140452459Y-106139975D01*
X140501939Y-106190889D01*
X140516500Y-106249689D01*
X140516500Y-106500400D01*
X140516837Y-106503646D01*
X140516837Y-106503650D01*
X140524936Y-106581704D01*
X140527474Y-106606166D01*
X140529655Y-106612702D01*
X140529655Y-106612704D01*
X140558997Y-106700652D01*
X140583450Y-106773946D01*
X140676522Y-106924348D01*
X140801697Y-107049305D01*
X140807927Y-107053145D01*
X140807928Y-107053146D01*
X140923848Y-107124600D01*
X140952262Y-107142115D01*
X141032005Y-107168564D01*
X141113611Y-107195632D01*
X141113613Y-107195632D01*
X141120139Y-107197797D01*
X141126975Y-107198497D01*
X141126978Y-107198498D01*
X141170031Y-107202909D01*
X141224600Y-107208500D01*
X142108133Y-107208500D01*
X142176254Y-107228502D01*
X142197608Y-107247436D01*
X142198000Y-107247018D01*
X142247667Y-107293658D01*
X142250509Y-107296413D01*
X142270231Y-107316135D01*
X142273373Y-107318572D01*
X142273433Y-107318619D01*
X142282445Y-107326317D01*
X142308036Y-107350347D01*
X142314679Y-107356586D01*
X142321622Y-107360403D01*
X142332431Y-107366345D01*
X142348953Y-107377198D01*
X142364959Y-107389614D01*
X142372237Y-107392764D01*
X142372238Y-107392764D01*
X142405537Y-107407174D01*
X142416187Y-107412391D01*
X142454940Y-107433695D01*
X142462615Y-107435666D01*
X142462616Y-107435666D01*
X142474562Y-107438733D01*
X142493267Y-107445137D01*
X142511855Y-107453181D01*
X142519678Y-107454420D01*
X142519688Y-107454423D01*
X142555524Y-107460099D01*
X142567144Y-107462505D01*
X142602289Y-107471528D01*
X142609970Y-107473500D01*
X142630224Y-107473500D01*
X142649934Y-107475051D01*
X142669943Y-107478220D01*
X142677835Y-107477474D01*
X142713961Y-107474059D01*
X142725819Y-107473500D01*
X144001776Y-107473500D01*
X144069897Y-107493502D01*
X144116390Y-107547158D01*
X144126494Y-107617432D01*
X144110231Y-107663636D01*
X144090855Y-107696399D01*
X144044438Y-107856169D01*
X144041500Y-107893498D01*
X144041500Y-108188194D01*
X144021498Y-108256315D01*
X143967842Y-108302808D01*
X143897568Y-108312912D01*
X143889303Y-108311441D01*
X143801944Y-108292872D01*
X143801939Y-108292872D01*
X143795487Y-108291500D01*
X143604513Y-108291500D01*
X143598061Y-108292872D01*
X143598056Y-108292872D01*
X143511113Y-108311353D01*
X143417712Y-108331206D01*
X143314025Y-108377370D01*
X143243659Y-108386804D01*
X143179362Y-108356698D01*
X143155632Y-108328565D01*
X143126935Y-108282190D01*
X143117901Y-108270792D01*
X143003171Y-108156261D01*
X142991760Y-108147249D01*
X142853757Y-108062184D01*
X142840576Y-108056037D01*
X142686290Y-108004862D01*
X142672914Y-108001995D01*
X142578562Y-107992328D01*
X142572145Y-107992000D01*
X142172115Y-107992000D01*
X142156876Y-107996475D01*
X142155671Y-107997865D01*
X142154000Y-108005548D01*
X142154000Y-109278000D01*
X142133998Y-109346121D01*
X142080342Y-109392614D01*
X142028000Y-109404000D01*
X140535116Y-109404000D01*
X140519877Y-109408475D01*
X140503054Y-109427889D01*
X140488472Y-109454595D01*
X140426160Y-109488620D01*
X140399376Y-109491500D01*
X138751739Y-109491500D01*
X138683618Y-109471498D01*
X138637125Y-109417842D01*
X138627021Y-109347568D01*
X138632146Y-109325833D01*
X138670137Y-109211293D01*
X138673005Y-109197914D01*
X138682672Y-109103562D01*
X138683000Y-109097146D01*
X138683000Y-108922115D01*
X138678525Y-108906876D01*
X138677135Y-108905671D01*
X138669452Y-108904000D01*
X135935116Y-108904000D01*
X135919877Y-108908475D01*
X135918672Y-108909865D01*
X135917001Y-108917548D01*
X135917001Y-109097095D01*
X135917338Y-109103614D01*
X135927257Y-109199206D01*
X135930149Y-109212600D01*
X135967856Y-109325624D01*
X135970440Y-109396574D01*
X135934256Y-109457658D01*
X135870792Y-109489482D01*
X135848332Y-109491500D01*
X125634500Y-109491500D01*
X125566379Y-109471498D01*
X125519886Y-109417842D01*
X125508500Y-109365500D01*
X125508500Y-109285434D01*
X125528502Y-109217313D01*
X125582158Y-109170820D01*
X125652432Y-109160716D01*
X125674167Y-109165841D01*
X125688611Y-109170632D01*
X125688613Y-109170632D01*
X125695139Y-109172797D01*
X125701975Y-109173497D01*
X125701978Y-109173498D01*
X125745031Y-109177909D01*
X125799600Y-109183500D01*
X126700400Y-109183500D01*
X126703646Y-109183163D01*
X126703650Y-109183163D01*
X126799308Y-109173238D01*
X126799312Y-109173237D01*
X126806166Y-109172526D01*
X126812702Y-109170345D01*
X126812704Y-109170345D01*
X126944806Y-109126272D01*
X126973946Y-109116550D01*
X127124348Y-109023478D01*
X127249305Y-108898303D01*
X127322252Y-108779962D01*
X127338275Y-108753968D01*
X127338276Y-108753966D01*
X127342115Y-108747738D01*
X127389505Y-108604861D01*
X127395632Y-108586389D01*
X127395632Y-108586387D01*
X127397797Y-108579861D01*
X127408500Y-108475400D01*
X127408500Y-107124600D01*
X127408163Y-107121350D01*
X127398238Y-107025692D01*
X127398237Y-107025688D01*
X127397526Y-107018834D01*
X127393821Y-107007727D01*
X127343868Y-106858002D01*
X127341550Y-106851054D01*
X127248478Y-106700652D01*
X127123303Y-106575695D01*
X127092494Y-106556704D01*
X126978968Y-106486725D01*
X126978966Y-106486724D01*
X126972738Y-106482885D01*
X126944830Y-106473628D01*
X126886472Y-106433197D01*
X126859236Y-106367633D01*
X126858500Y-106354036D01*
X126858500Y-105421311D01*
X126878502Y-105353190D01*
X126918196Y-105314167D01*
X127024348Y-105248478D01*
X127149305Y-105123303D01*
X127159906Y-105106105D01*
X127238275Y-104978968D01*
X127238276Y-104978966D01*
X127242115Y-104972738D01*
X127297797Y-104804861D01*
X127298500Y-104798005D01*
X127303740Y-104746854D01*
X127308500Y-104700400D01*
X127308500Y-104697095D01*
X128092001Y-104697095D01*
X128092338Y-104703614D01*
X128102257Y-104799206D01*
X128105149Y-104812600D01*
X128156588Y-104966784D01*
X128162761Y-104979962D01*
X128248063Y-105117807D01*
X128257099Y-105129208D01*
X128371829Y-105243739D01*
X128383240Y-105252751D01*
X128521243Y-105337816D01*
X128534424Y-105343963D01*
X128688710Y-105395138D01*
X128702086Y-105398005D01*
X128796438Y-105407672D01*
X128802854Y-105408000D01*
X128902885Y-105408000D01*
X128918124Y-105403525D01*
X128919329Y-105402135D01*
X128921000Y-105394452D01*
X128921000Y-104272115D01*
X128916525Y-104256876D01*
X128915135Y-104255671D01*
X128907452Y-104254000D01*
X128110116Y-104254000D01*
X128094877Y-104258475D01*
X128093672Y-104259865D01*
X128092001Y-104267548D01*
X128092001Y-104697095D01*
X127308500Y-104697095D01*
X127308500Y-103727885D01*
X128092000Y-103727885D01*
X128096475Y-103743124D01*
X128097865Y-103744329D01*
X128105548Y-103746000D01*
X128902885Y-103746000D01*
X128918124Y-103741525D01*
X128919329Y-103740135D01*
X128921000Y-103732452D01*
X128921000Y-102610116D01*
X128916525Y-102594877D01*
X128915135Y-102593672D01*
X128907452Y-102592001D01*
X128802905Y-102592001D01*
X128796386Y-102592338D01*
X128700794Y-102602257D01*
X128687400Y-102605149D01*
X128533216Y-102656588D01*
X128520038Y-102662761D01*
X128382193Y-102748063D01*
X128370792Y-102757099D01*
X128256261Y-102871829D01*
X128247249Y-102883240D01*
X128162184Y-103021243D01*
X128156037Y-103034424D01*
X128104862Y-103188710D01*
X128101995Y-103202086D01*
X128092328Y-103296438D01*
X128092000Y-103302855D01*
X128092000Y-103727885D01*
X127308500Y-103727885D01*
X127308500Y-103299600D01*
X127307294Y-103287973D01*
X127298238Y-103200692D01*
X127298237Y-103200688D01*
X127297526Y-103193834D01*
X127278664Y-103137296D01*
X127243868Y-103033002D01*
X127241550Y-103026054D01*
X127148478Y-102875652D01*
X127023303Y-102750695D01*
X126918383Y-102686021D01*
X126870891Y-102633250D01*
X126858500Y-102578762D01*
X126858500Y-101621311D01*
X126878502Y-101553190D01*
X126918196Y-101514167D01*
X127024348Y-101448478D01*
X127149305Y-101323303D01*
X127153146Y-101317072D01*
X127238275Y-101178968D01*
X127238276Y-101178966D01*
X127242115Y-101172738D01*
X127284447Y-101045110D01*
X127295632Y-101011389D01*
X127295632Y-101011387D01*
X127297797Y-101004861D01*
X127298521Y-100997801D01*
X127306587Y-100919071D01*
X127308500Y-100900400D01*
X127308500Y-100897095D01*
X128092001Y-100897095D01*
X128092338Y-100903614D01*
X128102257Y-100999206D01*
X128105149Y-101012600D01*
X128156588Y-101166784D01*
X128162761Y-101179962D01*
X128248063Y-101317807D01*
X128257099Y-101329208D01*
X128371829Y-101443739D01*
X128383240Y-101452751D01*
X128521243Y-101537816D01*
X128534424Y-101543963D01*
X128688710Y-101595138D01*
X128702086Y-101598005D01*
X128796438Y-101607672D01*
X128802854Y-101608000D01*
X128902885Y-101608000D01*
X128918124Y-101603525D01*
X128919329Y-101602135D01*
X128921000Y-101594452D01*
X128921000Y-100472115D01*
X128916525Y-100456876D01*
X128915135Y-100455671D01*
X128907452Y-100454000D01*
X128110116Y-100454000D01*
X128094877Y-100458475D01*
X128093672Y-100459865D01*
X128092001Y-100467548D01*
X128092001Y-100897095D01*
X127308500Y-100897095D01*
X127308500Y-100064595D01*
X127328502Y-99996474D01*
X127345405Y-99975500D01*
X127675020Y-99645885D01*
X127737332Y-99611859D01*
X127764115Y-99608980D01*
X127966000Y-99608980D01*
X128034121Y-99628982D01*
G37*
%TD.AperFunction*%
%TA.AperFunction,Conductor*%
G36*
X155214077Y-102253502D02*
G01*
X155260570Y-102307158D01*
X155271283Y-102346497D01*
X155275160Y-102383861D01*
X155277474Y-102406166D01*
X155279655Y-102412702D01*
X155279655Y-102412704D01*
X155313101Y-102512952D01*
X155333450Y-102573946D01*
X155426522Y-102724348D01*
X155431704Y-102729521D01*
X155463463Y-102761225D01*
X155497542Y-102823508D01*
X155492539Y-102894328D01*
X155463618Y-102939416D01*
X155431261Y-102971829D01*
X155422249Y-102983240D01*
X155337184Y-103121243D01*
X155331037Y-103134424D01*
X155279862Y-103288710D01*
X155276995Y-103302086D01*
X155267328Y-103396438D01*
X155267000Y-103402855D01*
X155267000Y-103827885D01*
X155271475Y-103843124D01*
X155272865Y-103844329D01*
X155280548Y-103846000D01*
X157414884Y-103846000D01*
X157430123Y-103841525D01*
X157439813Y-103830342D01*
X157463278Y-103787370D01*
X157525591Y-103753346D01*
X157596406Y-103758412D01*
X157641467Y-103787372D01*
X158179595Y-104325500D01*
X158213621Y-104387812D01*
X158216500Y-104414595D01*
X158216500Y-104800400D01*
X158216837Y-104803646D01*
X158216837Y-104803650D01*
X158226752Y-104899206D01*
X158227474Y-104906166D01*
X158229655Y-104912702D01*
X158229655Y-104912704D01*
X158261761Y-105008936D01*
X158283450Y-105073946D01*
X158376522Y-105224348D01*
X158381704Y-105229521D01*
X158400694Y-105248478D01*
X158501697Y-105349305D01*
X158507927Y-105353145D01*
X158507928Y-105353146D01*
X158645288Y-105437816D01*
X158652262Y-105442115D01*
X158693265Y-105455715D01*
X158813611Y-105495632D01*
X158813613Y-105495632D01*
X158820139Y-105497797D01*
X158826975Y-105498497D01*
X158826978Y-105498498D01*
X158870031Y-105502909D01*
X158924600Y-105508500D01*
X159675400Y-105508500D01*
X159678646Y-105508163D01*
X159678650Y-105508163D01*
X159774308Y-105498238D01*
X159774312Y-105498237D01*
X159781166Y-105497526D01*
X159787702Y-105495345D01*
X159787704Y-105495345D01*
X159919806Y-105451272D01*
X159948946Y-105441550D01*
X159955913Y-105437239D01*
X160019737Y-105397743D01*
X160099198Y-105348571D01*
X160167649Y-105329733D01*
X160235418Y-105350894D01*
X160280989Y-105405335D01*
X160291500Y-105455715D01*
X160291500Y-106865402D01*
X160271498Y-106933523D01*
X160217842Y-106980016D01*
X160147568Y-106990120D01*
X160082988Y-106960626D01*
X160078992Y-106956910D01*
X160066760Y-106947249D01*
X159928757Y-106862184D01*
X159915576Y-106856037D01*
X159761290Y-106804862D01*
X159747914Y-106801995D01*
X159653562Y-106792328D01*
X159647145Y-106792000D01*
X159547115Y-106792000D01*
X159531876Y-106796475D01*
X159530671Y-106797865D01*
X159529000Y-106805548D01*
X159529000Y-108328000D01*
X159508998Y-108396121D01*
X159455342Y-108442614D01*
X159403000Y-108454000D01*
X158210116Y-108454000D01*
X158194877Y-108458475D01*
X158193672Y-108459865D01*
X158192001Y-108467548D01*
X158192001Y-108897095D01*
X158192338Y-108903614D01*
X158202257Y-108999206D01*
X158205149Y-109012600D01*
X158256588Y-109166784D01*
X158262760Y-109179958D01*
X158336547Y-109299196D01*
X158355385Y-109367648D01*
X158334224Y-109435418D01*
X158279783Y-109480989D01*
X158229403Y-109491500D01*
X157371309Y-109491500D01*
X157303188Y-109471498D01*
X157256695Y-109417842D01*
X157246591Y-109347568D01*
X157264049Y-109299384D01*
X157338275Y-109178968D01*
X157338276Y-109178966D01*
X157342115Y-109172738D01*
X157397797Y-109004861D01*
X157408500Y-108900400D01*
X157408500Y-107927885D01*
X158192000Y-107927885D01*
X158196475Y-107943124D01*
X158197865Y-107944329D01*
X158205548Y-107946000D01*
X159002885Y-107946000D01*
X159018124Y-107941525D01*
X159019329Y-107940135D01*
X159021000Y-107932452D01*
X159021000Y-106810116D01*
X159016525Y-106794877D01*
X159015135Y-106793672D01*
X159007452Y-106792001D01*
X158902905Y-106792001D01*
X158896386Y-106792338D01*
X158800794Y-106802257D01*
X158787400Y-106805149D01*
X158633216Y-106856588D01*
X158620038Y-106862761D01*
X158482193Y-106948063D01*
X158470792Y-106957099D01*
X158356261Y-107071829D01*
X158347249Y-107083240D01*
X158262184Y-107221243D01*
X158256037Y-107234424D01*
X158204862Y-107388710D01*
X158201995Y-107402086D01*
X158192328Y-107496438D01*
X158192000Y-107502855D01*
X158192000Y-107927885D01*
X157408500Y-107927885D01*
X157408500Y-107499600D01*
X157407885Y-107493672D01*
X157398238Y-107400692D01*
X157398237Y-107400688D01*
X157397526Y-107393834D01*
X157391978Y-107377203D01*
X157343868Y-107233002D01*
X157341550Y-107226054D01*
X157248478Y-107075652D01*
X157123303Y-106950695D01*
X157081023Y-106924633D01*
X156978968Y-106861725D01*
X156978966Y-106861724D01*
X156972738Y-106857885D01*
X156892995Y-106831436D01*
X156811389Y-106804368D01*
X156811387Y-106804368D01*
X156804861Y-106802203D01*
X156798025Y-106801503D01*
X156798022Y-106801502D01*
X156754969Y-106797091D01*
X156700400Y-106791500D01*
X155949600Y-106791500D01*
X155946356Y-106791837D01*
X155946348Y-106791837D01*
X155884976Y-106798205D01*
X155815155Y-106785340D01*
X155782878Y-106761973D01*
X154820405Y-105799500D01*
X154786379Y-105737188D01*
X154783500Y-105710405D01*
X154783500Y-105299600D01*
X154783163Y-105296350D01*
X154773238Y-105200692D01*
X154773237Y-105200688D01*
X154772526Y-105193834D01*
X154757760Y-105149573D01*
X154718868Y-105033002D01*
X154716550Y-105026054D01*
X154623478Y-104875652D01*
X154544784Y-104797095D01*
X155267001Y-104797095D01*
X155267338Y-104803614D01*
X155277257Y-104899206D01*
X155280149Y-104912600D01*
X155331588Y-105066784D01*
X155337761Y-105079962D01*
X155423063Y-105217807D01*
X155432099Y-105229208D01*
X155546829Y-105343739D01*
X155558240Y-105352751D01*
X155696243Y-105437816D01*
X155709424Y-105443963D01*
X155863710Y-105495138D01*
X155877086Y-105498005D01*
X155971438Y-105507672D01*
X155977854Y-105508000D01*
X156077885Y-105508000D01*
X156093124Y-105503525D01*
X156094329Y-105502135D01*
X156096000Y-105494452D01*
X156096000Y-105489884D01*
X156604000Y-105489884D01*
X156608475Y-105505123D01*
X156609865Y-105506328D01*
X156617548Y-105507999D01*
X156722095Y-105507999D01*
X156728614Y-105507662D01*
X156824206Y-105497743D01*
X156837600Y-105494851D01*
X156991784Y-105443412D01*
X157004962Y-105437239D01*
X157142807Y-105351937D01*
X157154208Y-105342901D01*
X157268739Y-105228171D01*
X157277751Y-105216760D01*
X157362816Y-105078757D01*
X157368963Y-105065576D01*
X157420138Y-104911290D01*
X157423005Y-104897914D01*
X157432672Y-104803562D01*
X157433000Y-104797146D01*
X157433000Y-104372115D01*
X157428525Y-104356876D01*
X157427135Y-104355671D01*
X157419452Y-104354000D01*
X156622115Y-104354000D01*
X156606876Y-104358475D01*
X156605671Y-104359865D01*
X156604000Y-104367548D01*
X156604000Y-105489884D01*
X156096000Y-105489884D01*
X156096000Y-104372115D01*
X156091525Y-104356876D01*
X156090135Y-104355671D01*
X156082452Y-104354000D01*
X155285116Y-104354000D01*
X155269877Y-104358475D01*
X155268672Y-104359865D01*
X155267001Y-104367548D01*
X155267001Y-104797095D01*
X154544784Y-104797095D01*
X154498303Y-104750695D01*
X154487382Y-104743963D01*
X154353968Y-104661725D01*
X154353966Y-104661724D01*
X154347738Y-104657885D01*
X154267995Y-104631436D01*
X154186389Y-104604368D01*
X154186387Y-104604368D01*
X154179861Y-104602203D01*
X154173025Y-104601503D01*
X154173022Y-104601502D01*
X154129969Y-104597091D01*
X154075400Y-104591500D01*
X152724600Y-104591500D01*
X152721356Y-104591837D01*
X152721348Y-104591837D01*
X152650490Y-104599189D01*
X152580669Y-104586324D01*
X152528887Y-104537753D01*
X152511487Y-104473862D01*
X152511487Y-103736607D01*
X152531489Y-103668486D01*
X152548392Y-103647512D01*
X153925499Y-102270405D01*
X153987811Y-102236379D01*
X154014594Y-102233500D01*
X155145956Y-102233500D01*
X155214077Y-102253502D01*
G37*
%TD.AperFunction*%
%TA.AperFunction,Conductor*%
G36*
X160233621Y-92928502D02*
G01*
X160280114Y-92982158D01*
X160291500Y-93034500D01*
X160291500Y-97744930D01*
X160271498Y-97813051D01*
X160217842Y-97859544D01*
X160147568Y-97869648D01*
X160099322Y-97848930D01*
X160097991Y-97851090D01*
X159953757Y-97762184D01*
X159940576Y-97756037D01*
X159786290Y-97704862D01*
X159772914Y-97701995D01*
X159678562Y-97692328D01*
X159672145Y-97692000D01*
X159572115Y-97692000D01*
X159556876Y-97696475D01*
X159555671Y-97697865D01*
X159554000Y-97705548D01*
X159554000Y-101728000D01*
X159533998Y-101796121D01*
X159480342Y-101842614D01*
X159428000Y-101854000D01*
X158235116Y-101854000D01*
X158219877Y-101858475D01*
X158218672Y-101859865D01*
X158217001Y-101867548D01*
X158217001Y-102266906D01*
X158196999Y-102335027D01*
X158143343Y-102381520D01*
X158073069Y-102391624D01*
X158008489Y-102362130D01*
X158001906Y-102356001D01*
X157470405Y-101824500D01*
X157436379Y-101762188D01*
X157433500Y-101735405D01*
X157433500Y-101327885D01*
X158217000Y-101327885D01*
X158221475Y-101343124D01*
X158222865Y-101344329D01*
X158230548Y-101346000D01*
X159027885Y-101346000D01*
X159043124Y-101341525D01*
X159044329Y-101340135D01*
X159046000Y-101332452D01*
X159046000Y-99372115D01*
X159041525Y-99356876D01*
X159040135Y-99355671D01*
X159032452Y-99354000D01*
X158235116Y-99354000D01*
X158219877Y-99358475D01*
X158218672Y-99359865D01*
X158217001Y-99367548D01*
X158217001Y-99797095D01*
X158217338Y-99803614D01*
X158227257Y-99899206D01*
X158230149Y-99912600D01*
X158281588Y-100066784D01*
X158287761Y-100079962D01*
X158373063Y-100217807D01*
X158382099Y-100229208D01*
X158413817Y-100260871D01*
X158447896Y-100323154D01*
X158442893Y-100393974D01*
X158413971Y-100439063D01*
X158381261Y-100471829D01*
X158372249Y-100483240D01*
X158287184Y-100621243D01*
X158281037Y-100634424D01*
X158229862Y-100788710D01*
X158226995Y-100802086D01*
X158217328Y-100896438D01*
X158217000Y-100902855D01*
X158217000Y-101327885D01*
X157433500Y-101327885D01*
X157433500Y-100899600D01*
X157428701Y-100853344D01*
X157423238Y-100800692D01*
X157423237Y-100800688D01*
X157422526Y-100793834D01*
X157413247Y-100766020D01*
X157368868Y-100633002D01*
X157366550Y-100626054D01*
X157273478Y-100475652D01*
X157268296Y-100470479D01*
X157268292Y-100470474D01*
X157236892Y-100439129D01*
X157202812Y-100376847D01*
X157207815Y-100306027D01*
X157236735Y-100260939D01*
X157269133Y-100228484D01*
X157274305Y-100223303D01*
X157367115Y-100072738D01*
X157394912Y-99988931D01*
X157420632Y-99911389D01*
X157420632Y-99911387D01*
X157422797Y-99904861D01*
X157424029Y-99892842D01*
X157429412Y-99840296D01*
X157433500Y-99800400D01*
X157433500Y-98827885D01*
X158217000Y-98827885D01*
X158221475Y-98843124D01*
X158222865Y-98844329D01*
X158230548Y-98846000D01*
X159027885Y-98846000D01*
X159043124Y-98841525D01*
X159044329Y-98840135D01*
X159046000Y-98832452D01*
X159046000Y-97710116D01*
X159041525Y-97694877D01*
X159040135Y-97693672D01*
X159032452Y-97692001D01*
X158927905Y-97692001D01*
X158921386Y-97692338D01*
X158825794Y-97702257D01*
X158812400Y-97705149D01*
X158658216Y-97756588D01*
X158645038Y-97762761D01*
X158507193Y-97848063D01*
X158495792Y-97857099D01*
X158381261Y-97971829D01*
X158372249Y-97983240D01*
X158287184Y-98121243D01*
X158281037Y-98134424D01*
X158229862Y-98288710D01*
X158226995Y-98302086D01*
X158217328Y-98396438D01*
X158217000Y-98402855D01*
X158217000Y-98827885D01*
X157433500Y-98827885D01*
X157433500Y-98399600D01*
X157431447Y-98379814D01*
X157423238Y-98300692D01*
X157423237Y-98300688D01*
X157422526Y-98293834D01*
X157419079Y-98283500D01*
X157368868Y-98133002D01*
X157366550Y-98126054D01*
X157273478Y-97975652D01*
X157148303Y-97850695D01*
X157137494Y-97844032D01*
X157003968Y-97761725D01*
X157003966Y-97761724D01*
X156997738Y-97757885D01*
X156856097Y-97710905D01*
X156836389Y-97704368D01*
X156836387Y-97704368D01*
X156829861Y-97702203D01*
X156823025Y-97701503D01*
X156823022Y-97701502D01*
X156779969Y-97697091D01*
X156725400Y-97691500D01*
X155974600Y-97691500D01*
X155971354Y-97691837D01*
X155971350Y-97691837D01*
X155875692Y-97701762D01*
X155875688Y-97701763D01*
X155868834Y-97702474D01*
X155862298Y-97704655D01*
X155862296Y-97704655D01*
X155845928Y-97710116D01*
X155701054Y-97758450D01*
X155550652Y-97851522D01*
X155425695Y-97976697D01*
X155332885Y-98127262D01*
X155309415Y-98198022D01*
X155280109Y-98286379D01*
X155277203Y-98295139D01*
X155266500Y-98399600D01*
X155266500Y-99800400D01*
X155266837Y-99803646D01*
X155266837Y-99803650D01*
X155276752Y-99899206D01*
X155277474Y-99906166D01*
X155279655Y-99912702D01*
X155279655Y-99912704D01*
X155305087Y-99988931D01*
X155333450Y-100073946D01*
X155426522Y-100224348D01*
X155431704Y-100229521D01*
X155431708Y-100229526D01*
X155463108Y-100260871D01*
X155497188Y-100323153D01*
X155492185Y-100393973D01*
X155463265Y-100439061D01*
X155448352Y-100454000D01*
X155425695Y-100476697D01*
X155332885Y-100627262D01*
X155277203Y-100795139D01*
X155276503Y-100801975D01*
X155276502Y-100801978D01*
X155271239Y-100853344D01*
X155244397Y-100919071D01*
X155186282Y-100959852D01*
X155145895Y-100966500D01*
X153778763Y-100966500D01*
X153767579Y-100965973D01*
X153760091Y-100964299D01*
X153752168Y-100964548D01*
X153692033Y-100966438D01*
X153688075Y-100966500D01*
X153660144Y-100966500D01*
X153656229Y-100966995D01*
X153656225Y-100966995D01*
X153656167Y-100967003D01*
X153656138Y-100967006D01*
X153644296Y-100967939D01*
X153600110Y-100969327D01*
X153582744Y-100974372D01*
X153580658Y-100974978D01*
X153561306Y-100978986D01*
X153549068Y-100980532D01*
X153549066Y-100980533D01*
X153541203Y-100981526D01*
X153500086Y-100997806D01*
X153488885Y-101001641D01*
X153446406Y-101013982D01*
X153439587Y-101018015D01*
X153439582Y-101018017D01*
X153428971Y-101024293D01*
X153411221Y-101032990D01*
X153392383Y-101040448D01*
X153385967Y-101045109D01*
X153385966Y-101045110D01*
X153356625Y-101066428D01*
X153346701Y-101072947D01*
X153315460Y-101091422D01*
X153315455Y-101091426D01*
X153308637Y-101095458D01*
X153294313Y-101109782D01*
X153279281Y-101122621D01*
X153262893Y-101134528D01*
X153234712Y-101168593D01*
X153226722Y-101177373D01*
X152124557Y-102279538D01*
X152062245Y-102313564D01*
X151991430Y-102308499D01*
X151934594Y-102265952D01*
X151909783Y-102199432D01*
X151914465Y-102155291D01*
X151953767Y-102020011D01*
X151953768Y-102020007D01*
X151955562Y-102013831D01*
X151956462Y-102002407D01*
X151958307Y-101978958D01*
X151958307Y-101978950D01*
X151958500Y-101976502D01*
X151958500Y-101543498D01*
X151958053Y-101537816D01*
X151956067Y-101512579D01*
X151956066Y-101512574D01*
X151955562Y-101506169D01*
X151909145Y-101346399D01*
X151824453Y-101203193D01*
X151821771Y-101200511D01*
X151796498Y-101136139D01*
X151810400Y-101066516D01*
X151820572Y-101050688D01*
X151824453Y-101046807D01*
X151909145Y-100903601D01*
X151955562Y-100743831D01*
X151956721Y-100729115D01*
X151958307Y-100708958D01*
X151958307Y-100708950D01*
X151958500Y-100706502D01*
X151958500Y-100273498D01*
X151957512Y-100260939D01*
X151956067Y-100242579D01*
X151956066Y-100242574D01*
X151955562Y-100236169D01*
X151909145Y-100076399D01*
X151892107Y-100047589D01*
X151828491Y-99940020D01*
X151828489Y-99940017D01*
X151824453Y-99933193D01*
X151706807Y-99815547D01*
X151699983Y-99811511D01*
X151699980Y-99811509D01*
X151570427Y-99734892D01*
X151570428Y-99734892D01*
X151563601Y-99730855D01*
X151555990Y-99728644D01*
X151555988Y-99728643D01*
X151499193Y-99712143D01*
X151403831Y-99684438D01*
X151397426Y-99683934D01*
X151397421Y-99683933D01*
X151368958Y-99681693D01*
X151368950Y-99681693D01*
X151366502Y-99681500D01*
X149583498Y-99681500D01*
X149581050Y-99681693D01*
X149581042Y-99681693D01*
X149552579Y-99683933D01*
X149552574Y-99683934D01*
X149546169Y-99684438D01*
X149450807Y-99712143D01*
X149394012Y-99728643D01*
X149394010Y-99728644D01*
X149386399Y-99730855D01*
X149379572Y-99734892D01*
X149379573Y-99734892D01*
X149250020Y-99811509D01*
X149250017Y-99811511D01*
X149243193Y-99815547D01*
X149125547Y-99933193D01*
X149121511Y-99940017D01*
X149121509Y-99940020D01*
X149057893Y-100047589D01*
X149040855Y-100076399D01*
X148994438Y-100236169D01*
X148993934Y-100242574D01*
X148993933Y-100242579D01*
X148992488Y-100260939D01*
X148991500Y-100273498D01*
X148991500Y-100706502D01*
X148991693Y-100708950D01*
X148991693Y-100708958D01*
X148993280Y-100729115D01*
X148994438Y-100743831D01*
X149040855Y-100903601D01*
X149125547Y-101046807D01*
X149128229Y-101049489D01*
X149153502Y-101113861D01*
X149139600Y-101183484D01*
X149129428Y-101199312D01*
X149125547Y-101203193D01*
X149040855Y-101346399D01*
X148994438Y-101506169D01*
X148993934Y-101512574D01*
X148993933Y-101512579D01*
X148991947Y-101537816D01*
X148991500Y-101543498D01*
X148991500Y-101976502D01*
X148991693Y-101978950D01*
X148991693Y-101978958D01*
X148993539Y-102002407D01*
X148994438Y-102013831D01*
X149014392Y-102082513D01*
X149035536Y-102155291D01*
X149040855Y-102173601D01*
X149125547Y-102316807D01*
X149128229Y-102319489D01*
X149153502Y-102383861D01*
X149139600Y-102453484D01*
X149129428Y-102469312D01*
X149125547Y-102473193D01*
X149040855Y-102616399D01*
X149038644Y-102624010D01*
X149038643Y-102624012D01*
X149035959Y-102633250D01*
X148994438Y-102776169D01*
X148993934Y-102782574D01*
X148993933Y-102782579D01*
X148992877Y-102796002D01*
X148991500Y-102813498D01*
X148991500Y-103246502D01*
X148994438Y-103283831D01*
X149006073Y-103323878D01*
X149038586Y-103435790D01*
X149040855Y-103443601D01*
X149125547Y-103586807D01*
X149128487Y-103589747D01*
X149153820Y-103654266D01*
X149139921Y-103723889D01*
X149127874Y-103742636D01*
X149121910Y-103750324D01*
X149045352Y-103879779D01*
X149039107Y-103894210D01*
X149000061Y-104028605D01*
X149000101Y-104042706D01*
X149007370Y-104046000D01*
X150603000Y-104046000D01*
X150671121Y-104066002D01*
X150717614Y-104119658D01*
X150729000Y-104172000D01*
X150729000Y-104428000D01*
X150708998Y-104496121D01*
X150655342Y-104542614D01*
X150603000Y-104554000D01*
X149013122Y-104554000D01*
X148999591Y-104557973D01*
X148998456Y-104565871D01*
X149039107Y-104705790D01*
X149045352Y-104720221D01*
X149121911Y-104849677D01*
X149127871Y-104857360D01*
X149153820Y-104923444D01*
X149139922Y-104993067D01*
X149129579Y-105009161D01*
X149125547Y-105013193D01*
X149040855Y-105156399D01*
X148994438Y-105316169D01*
X148993934Y-105322574D01*
X148993933Y-105322579D01*
X148991830Y-105349305D01*
X148991500Y-105353498D01*
X148991500Y-105786502D01*
X148994438Y-105823831D01*
X149019171Y-105908964D01*
X149035442Y-105964968D01*
X149040855Y-105983601D01*
X149125547Y-106126807D01*
X149128229Y-106129489D01*
X149153502Y-106193861D01*
X149139600Y-106263484D01*
X149129428Y-106279312D01*
X149125547Y-106283193D01*
X149040855Y-106426399D01*
X149038644Y-106434010D01*
X149038643Y-106434012D01*
X149025114Y-106480581D01*
X148994438Y-106586169D01*
X148993934Y-106592574D01*
X148993933Y-106592579D01*
X148991693Y-106621042D01*
X148991500Y-106623498D01*
X148991500Y-107056502D01*
X148991693Y-107058950D01*
X148991693Y-107058958D01*
X148993670Y-107084072D01*
X148994438Y-107093831D01*
X149023472Y-107193769D01*
X149035284Y-107234424D01*
X149040855Y-107253601D01*
X149125547Y-107396807D01*
X149128229Y-107399489D01*
X149153502Y-107463861D01*
X149139600Y-107533484D01*
X149129428Y-107549312D01*
X149125547Y-107553193D01*
X149112355Y-107575500D01*
X149079884Y-107630405D01*
X149027991Y-107678857D01*
X148958140Y-107691562D01*
X148892510Y-107664486D01*
X148882336Y-107655360D01*
X148007153Y-106780176D01*
X147045405Y-105818428D01*
X147011379Y-105756116D01*
X147008500Y-105729333D01*
X147008500Y-105353498D01*
X147008170Y-105349305D01*
X147006067Y-105322579D01*
X147006066Y-105322574D01*
X147005562Y-105316169D01*
X146959145Y-105156399D01*
X146874453Y-105013193D01*
X146871771Y-105010511D01*
X146846498Y-104946139D01*
X146860400Y-104876516D01*
X146870572Y-104860688D01*
X146874453Y-104856807D01*
X146959145Y-104713601D01*
X146961415Y-104705790D01*
X147003767Y-104560008D01*
X147005562Y-104553831D01*
X147006828Y-104537753D01*
X147008307Y-104518958D01*
X147008307Y-104518950D01*
X147008500Y-104516502D01*
X147008500Y-104140666D01*
X147028502Y-104072545D01*
X147045405Y-104051571D01*
X148492253Y-102604724D01*
X148500539Y-102597184D01*
X148507018Y-102593072D01*
X148553644Y-102543420D01*
X148556398Y-102540579D01*
X148576135Y-102520842D01*
X148578615Y-102517645D01*
X148586320Y-102508623D01*
X148592544Y-102501995D01*
X148616586Y-102476393D01*
X148620405Y-102469447D01*
X148620407Y-102469444D01*
X148626348Y-102458638D01*
X148637199Y-102442119D01*
X148644758Y-102432373D01*
X148649614Y-102426113D01*
X148652759Y-102418844D01*
X148652762Y-102418840D01*
X148667174Y-102385535D01*
X148672391Y-102374885D01*
X148693695Y-102336132D01*
X148698733Y-102316509D01*
X148705137Y-102297806D01*
X148710033Y-102286492D01*
X148710033Y-102286491D01*
X148713181Y-102279217D01*
X148714420Y-102271394D01*
X148714423Y-102271384D01*
X148720099Y-102235548D01*
X148722505Y-102223928D01*
X148731528Y-102188783D01*
X148731528Y-102188782D01*
X148733500Y-102181102D01*
X148733500Y-102160848D01*
X148735051Y-102141137D01*
X148736980Y-102128958D01*
X148738220Y-102121129D01*
X148734059Y-102077110D01*
X148733500Y-102065253D01*
X148733500Y-99314594D01*
X148753502Y-99246473D01*
X148770405Y-99225499D01*
X149675499Y-98320405D01*
X149737811Y-98286379D01*
X149764594Y-98283500D01*
X151662484Y-98283500D01*
X151730605Y-98303502D01*
X151777098Y-98357158D01*
X151780137Y-98364874D01*
X151781132Y-98366997D01*
X151783450Y-98373946D01*
X151876522Y-98524348D01*
X152001697Y-98649305D01*
X152007927Y-98653145D01*
X152007928Y-98653146D01*
X152145090Y-98737694D01*
X152152262Y-98742115D01*
X152200151Y-98757999D01*
X152313611Y-98795632D01*
X152313613Y-98795632D01*
X152320139Y-98797797D01*
X152326975Y-98798497D01*
X152326978Y-98798498D01*
X152358837Y-98801762D01*
X152424600Y-98808500D01*
X153775400Y-98808500D01*
X153778646Y-98808163D01*
X153778650Y-98808163D01*
X153874308Y-98798238D01*
X153874312Y-98798237D01*
X153881166Y-98797526D01*
X153887702Y-98795345D01*
X153887704Y-98795345D01*
X154019806Y-98751272D01*
X154048946Y-98741550D01*
X154199348Y-98648478D01*
X154228875Y-98618900D01*
X154319134Y-98528483D01*
X154324305Y-98523303D01*
X154339073Y-98499345D01*
X154413275Y-98378968D01*
X154413276Y-98378966D01*
X154417115Y-98372738D01*
X154472797Y-98204861D01*
X154483500Y-98100400D01*
X154483500Y-97199600D01*
X154479573Y-97161753D01*
X154473238Y-97100692D01*
X154473237Y-97100688D01*
X154472526Y-97093834D01*
X154463539Y-97066895D01*
X154418868Y-96933002D01*
X154416550Y-96926054D01*
X154323478Y-96775652D01*
X154198303Y-96650695D01*
X154130173Y-96608699D01*
X154053968Y-96561725D01*
X154053966Y-96561724D01*
X154047738Y-96557885D01*
X153916779Y-96514448D01*
X153886389Y-96504368D01*
X153886387Y-96504368D01*
X153879861Y-96502203D01*
X153873025Y-96501503D01*
X153873022Y-96501502D01*
X153829969Y-96497091D01*
X153775400Y-96491500D01*
X152424600Y-96491500D01*
X152421354Y-96491837D01*
X152421350Y-96491837D01*
X152325692Y-96501762D01*
X152325688Y-96501763D01*
X152318834Y-96502474D01*
X152312298Y-96504655D01*
X152312296Y-96504655D01*
X152199608Y-96542251D01*
X152151054Y-96558450D01*
X152000652Y-96651522D01*
X151875695Y-96776697D01*
X151871855Y-96782927D01*
X151871854Y-96782928D01*
X151801721Y-96896705D01*
X151782885Y-96927262D01*
X151780581Y-96934209D01*
X151777487Y-96940844D01*
X151775251Y-96939801D01*
X151741477Y-96988538D01*
X151675909Y-97015766D01*
X151662328Y-97016500D01*
X150473864Y-97016500D01*
X150405743Y-96996498D01*
X150359250Y-96942842D01*
X150349146Y-96872568D01*
X150378640Y-96807988D01*
X150384924Y-96801249D01*
X150488400Y-96698134D01*
X150503096Y-96683489D01*
X150526067Y-96651522D01*
X150630435Y-96506277D01*
X150633453Y-96502077D01*
X150635746Y-96497438D01*
X150637666Y-96494242D01*
X150689895Y-96446152D01*
X150737325Y-96433500D01*
X150739856Y-96433500D01*
X150743820Y-96432999D01*
X150743856Y-96432995D01*
X150755693Y-96432062D01*
X150787951Y-96431048D01*
X150791970Y-96430922D01*
X150799889Y-96430673D01*
X150819343Y-96425021D01*
X150838700Y-96421013D01*
X150850930Y-96419468D01*
X150850931Y-96419468D01*
X150858797Y-96418474D01*
X150866168Y-96415555D01*
X150866170Y-96415555D01*
X150899912Y-96402196D01*
X150911142Y-96398351D01*
X150945983Y-96388229D01*
X150945984Y-96388229D01*
X150953593Y-96386018D01*
X150960412Y-96381985D01*
X150960417Y-96381983D01*
X150971028Y-96375707D01*
X150988776Y-96367012D01*
X151007617Y-96359552D01*
X151043387Y-96333564D01*
X151053307Y-96327048D01*
X151084535Y-96308580D01*
X151084538Y-96308578D01*
X151091362Y-96304542D01*
X151105683Y-96290221D01*
X151120717Y-96277380D01*
X151130694Y-96270131D01*
X151137107Y-96265472D01*
X151142157Y-96259368D01*
X151142162Y-96259363D01*
X151165293Y-96231402D01*
X151173283Y-96222621D01*
X151836401Y-95559504D01*
X151898713Y-95525479D01*
X151969529Y-95530544D01*
X152000202Y-95547813D01*
X152001697Y-95549305D01*
X152007927Y-95553145D01*
X152145090Y-95637694D01*
X152152262Y-95642115D01*
X152232005Y-95668564D01*
X152313611Y-95695632D01*
X152313613Y-95695632D01*
X152320139Y-95697797D01*
X152326975Y-95698497D01*
X152326978Y-95698498D01*
X152370031Y-95702909D01*
X152424600Y-95708500D01*
X153775400Y-95708500D01*
X153778646Y-95708163D01*
X153778650Y-95708163D01*
X153874308Y-95698238D01*
X153874312Y-95698237D01*
X153881166Y-95697526D01*
X153887702Y-95695345D01*
X153887704Y-95695345D01*
X154019806Y-95651272D01*
X154048946Y-95641550D01*
X154199348Y-95548478D01*
X154207664Y-95540148D01*
X154266161Y-95481549D01*
X154324305Y-95423303D01*
X154377254Y-95337404D01*
X154413275Y-95278968D01*
X154413276Y-95278966D01*
X154417115Y-95272738D01*
X154472797Y-95104861D01*
X154477950Y-95054568D01*
X156637382Y-95054568D01*
X156637963Y-95059588D01*
X156637963Y-95059592D01*
X156650924Y-95171607D01*
X156666208Y-95303699D01*
X156667587Y-95308573D01*
X156667588Y-95308577D01*
X156733116Y-95540148D01*
X156734494Y-95545017D01*
X156736628Y-95549592D01*
X156736630Y-95549599D01*
X156810727Y-95708500D01*
X156840484Y-95772313D01*
X156843326Y-95776494D01*
X156843326Y-95776495D01*
X156978605Y-95975552D01*
X156978608Y-95975556D01*
X156981451Y-95979739D01*
X156984928Y-95983416D01*
X156984929Y-95983417D01*
X157083893Y-96088069D01*
X157153767Y-96161959D01*
X157157793Y-96165037D01*
X157157794Y-96165038D01*
X157348981Y-96311212D01*
X157348985Y-96311215D01*
X157353001Y-96314285D01*
X157357459Y-96316675D01*
X157357460Y-96316676D01*
X157467553Y-96375707D01*
X157574026Y-96432797D01*
X157578807Y-96434443D01*
X157578811Y-96434445D01*
X157781882Y-96504368D01*
X157811156Y-96514448D01*
X157914689Y-96532331D01*
X158054380Y-96556460D01*
X158054386Y-96556461D01*
X158058290Y-96557135D01*
X158062251Y-96557315D01*
X158062252Y-96557315D01*
X158086931Y-96558436D01*
X158086950Y-96558436D01*
X158088350Y-96558500D01*
X158263015Y-96558500D01*
X158265523Y-96558298D01*
X158265528Y-96558298D01*
X158444944Y-96543863D01*
X158444949Y-96543862D01*
X158449985Y-96543457D01*
X158454893Y-96542252D01*
X158454896Y-96542251D01*
X158688625Y-96484841D01*
X158693539Y-96483634D01*
X158698191Y-96481659D01*
X158698195Y-96481658D01*
X158919741Y-96387617D01*
X158919742Y-96387617D01*
X158924396Y-96385641D01*
X159136615Y-96252000D01*
X159324738Y-96086147D01*
X159483924Y-95892351D01*
X159610078Y-95675596D01*
X159622258Y-95643868D01*
X159698143Y-95446181D01*
X159699955Y-95441461D01*
X159702667Y-95428483D01*
X159750206Y-95200921D01*
X159751241Y-95195967D01*
X159762618Y-94945432D01*
X159733792Y-94696301D01*
X159724115Y-94662101D01*
X159666884Y-94459852D01*
X159666883Y-94459850D01*
X159665506Y-94454983D01*
X159663372Y-94450408D01*
X159663370Y-94450401D01*
X159561653Y-94232269D01*
X159561651Y-94232265D01*
X159559516Y-94227687D01*
X159548716Y-94211795D01*
X159421395Y-94024448D01*
X159421392Y-94024444D01*
X159418549Y-94020261D01*
X159375080Y-93974293D01*
X159246233Y-93838041D01*
X159222406Y-93819824D01*
X159051019Y-93688788D01*
X159051015Y-93688785D01*
X159046999Y-93685715D01*
X159030181Y-93676697D01*
X158830435Y-93569595D01*
X158825974Y-93567203D01*
X158821193Y-93565557D01*
X158821189Y-93565555D01*
X158593633Y-93487201D01*
X158588844Y-93485552D01*
X158478127Y-93466428D01*
X158345620Y-93443540D01*
X158345614Y-93443539D01*
X158341710Y-93442865D01*
X158337749Y-93442685D01*
X158337748Y-93442685D01*
X158313069Y-93441564D01*
X158313050Y-93441564D01*
X158311650Y-93441500D01*
X158136985Y-93441500D01*
X158134477Y-93441702D01*
X158134472Y-93441702D01*
X157955056Y-93456137D01*
X157955051Y-93456138D01*
X157950015Y-93456543D01*
X157945107Y-93457748D01*
X157945104Y-93457749D01*
X157768759Y-93501064D01*
X157706461Y-93516366D01*
X157701809Y-93518341D01*
X157701805Y-93518342D01*
X157525965Y-93592982D01*
X157475604Y-93614359D01*
X157263385Y-93748000D01*
X157075262Y-93913853D01*
X156916076Y-94107649D01*
X156789922Y-94324404D01*
X156700045Y-94558539D01*
X156699012Y-94563485D01*
X156699010Y-94563491D01*
X156655490Y-94771814D01*
X156648759Y-94804033D01*
X156648530Y-94809082D01*
X156648529Y-94809088D01*
X156644316Y-94901866D01*
X156637382Y-95054568D01*
X154477950Y-95054568D01*
X154483500Y-95000400D01*
X154483500Y-94099600D01*
X154480096Y-94066793D01*
X154473238Y-94000692D01*
X154473237Y-94000688D01*
X154472526Y-93993834D01*
X154468910Y-93982994D01*
X154418868Y-93833002D01*
X154416550Y-93826054D01*
X154323478Y-93675652D01*
X154198303Y-93550695D01*
X154192072Y-93546854D01*
X154053968Y-93461725D01*
X154053966Y-93461724D01*
X154047738Y-93457885D01*
X153908714Y-93411773D01*
X153886389Y-93404368D01*
X153886387Y-93404368D01*
X153879861Y-93402203D01*
X153873025Y-93401503D01*
X153873022Y-93401502D01*
X153829969Y-93397091D01*
X153775400Y-93391500D01*
X152424600Y-93391500D01*
X152421354Y-93391837D01*
X152421350Y-93391837D01*
X152325692Y-93401762D01*
X152325688Y-93401763D01*
X152318834Y-93402474D01*
X152312298Y-93404655D01*
X152312296Y-93404655D01*
X152191039Y-93445110D01*
X152151054Y-93458450D01*
X152000652Y-93551522D01*
X151875695Y-93676697D01*
X151782885Y-93827262D01*
X151764022Y-93884131D01*
X151761775Y-93890906D01*
X151721344Y-93949266D01*
X151697564Y-93963646D01*
X151696407Y-93963982D01*
X151689585Y-93968016D01*
X151689584Y-93968017D01*
X151678972Y-93974293D01*
X151661224Y-93982988D01*
X151642383Y-93990448D01*
X151635967Y-93995110D01*
X151635966Y-93995110D01*
X151606613Y-94016436D01*
X151596693Y-94022952D01*
X151565465Y-94041420D01*
X151565462Y-94041422D01*
X151558638Y-94045458D01*
X151544317Y-94059779D01*
X151529284Y-94072619D01*
X151512893Y-94084528D01*
X151507843Y-94090632D01*
X151507838Y-94090637D01*
X151484707Y-94118598D01*
X151476717Y-94127379D01*
X150681671Y-94922424D01*
X150619359Y-94956449D01*
X150548543Y-94951384D01*
X150499382Y-94918128D01*
X150398145Y-94806870D01*
X150394670Y-94803051D01*
X150390619Y-94799852D01*
X150390615Y-94799848D01*
X150223414Y-94667800D01*
X150223410Y-94667798D01*
X150219359Y-94664598D01*
X150023789Y-94556638D01*
X150018920Y-94554914D01*
X150018916Y-94554912D01*
X149818087Y-94483795D01*
X149818083Y-94483794D01*
X149813212Y-94482069D01*
X149808119Y-94481162D01*
X149808116Y-94481161D01*
X149598373Y-94443800D01*
X149598367Y-94443799D01*
X149593284Y-94442894D01*
X149519452Y-94441992D01*
X149375081Y-94440228D01*
X149375079Y-94440228D01*
X149369911Y-94440165D01*
X149149091Y-94473955D01*
X148936756Y-94543357D01*
X148917190Y-94553542D01*
X148847532Y-94567255D01*
X148781517Y-94541130D01*
X148740105Y-94483462D01*
X148733011Y-94441779D01*
X148733011Y-94429256D01*
X148733538Y-94418073D01*
X148735213Y-94410580D01*
X148733073Y-94342503D01*
X148733011Y-94338544D01*
X148733011Y-94310633D01*
X148732506Y-94306633D01*
X148731573Y-94294790D01*
X148730433Y-94258518D01*
X148730184Y-94250599D01*
X148724533Y-94231147D01*
X148720525Y-94211795D01*
X148718978Y-94199552D01*
X148717985Y-94191692D01*
X148715067Y-94184321D01*
X148701711Y-94150586D01*
X148697866Y-94139359D01*
X148688653Y-94107649D01*
X148685529Y-94096896D01*
X148681495Y-94090074D01*
X148681492Y-94090068D01*
X148675217Y-94079457D01*
X148666521Y-94061707D01*
X148661983Y-94050245D01*
X148661980Y-94050240D01*
X148659063Y-94042872D01*
X148639963Y-94016583D01*
X148633084Y-94007114D01*
X148626568Y-93997196D01*
X148609311Y-93968017D01*
X148604053Y-93959126D01*
X148589729Y-93944802D01*
X148576887Y-93929767D01*
X148564983Y-93913382D01*
X148530917Y-93885200D01*
X148522138Y-93877211D01*
X148252674Y-93607747D01*
X148245134Y-93599461D01*
X148241022Y-93592982D01*
X148191370Y-93546356D01*
X148188529Y-93543602D01*
X148168792Y-93523865D01*
X148165595Y-93521385D01*
X148156573Y-93513680D01*
X148143138Y-93501064D01*
X148124343Y-93483414D01*
X148117397Y-93479595D01*
X148117394Y-93479593D01*
X148106588Y-93473652D01*
X148090069Y-93462801D01*
X148083731Y-93457885D01*
X148074063Y-93450386D01*
X148066794Y-93447241D01*
X148066790Y-93447238D01*
X148033485Y-93432826D01*
X148022835Y-93427609D01*
X147984082Y-93406305D01*
X147964459Y-93401267D01*
X147945756Y-93394863D01*
X147934442Y-93389967D01*
X147934441Y-93389967D01*
X147927167Y-93386819D01*
X147919344Y-93385580D01*
X147919334Y-93385577D01*
X147883498Y-93379901D01*
X147871878Y-93377495D01*
X147836733Y-93368472D01*
X147836732Y-93368472D01*
X147829052Y-93366500D01*
X147808798Y-93366500D01*
X147789087Y-93364949D01*
X147786556Y-93364548D01*
X147769079Y-93361780D01*
X147761187Y-93362526D01*
X147725061Y-93365941D01*
X147713203Y-93366500D01*
X138153763Y-93366500D01*
X138142579Y-93365973D01*
X138135091Y-93364299D01*
X138127168Y-93364548D01*
X138067033Y-93366438D01*
X138063075Y-93366500D01*
X138035144Y-93366500D01*
X138031229Y-93366995D01*
X138031225Y-93366995D01*
X138031167Y-93367003D01*
X138031138Y-93367006D01*
X138019296Y-93367939D01*
X137975110Y-93369327D01*
X137957744Y-93374372D01*
X137955658Y-93374978D01*
X137936306Y-93378986D01*
X137924068Y-93380532D01*
X137924066Y-93380533D01*
X137916203Y-93381526D01*
X137875086Y-93397806D01*
X137863885Y-93401641D01*
X137821406Y-93413982D01*
X137814587Y-93418015D01*
X137814582Y-93418017D01*
X137803971Y-93424293D01*
X137786221Y-93432990D01*
X137767383Y-93440448D01*
X137760967Y-93445109D01*
X137760966Y-93445110D01*
X137731625Y-93466428D01*
X137721701Y-93472947D01*
X137690460Y-93491422D01*
X137690455Y-93491426D01*
X137683637Y-93495458D01*
X137669313Y-93509782D01*
X137654281Y-93522621D01*
X137637893Y-93534528D01*
X137612225Y-93565555D01*
X137609712Y-93568593D01*
X137601722Y-93577373D01*
X136774500Y-94404595D01*
X136712188Y-94438621D01*
X136685405Y-94441500D01*
X135376866Y-94441500D01*
X135314684Y-94448255D01*
X135178295Y-94499385D01*
X135061739Y-94586739D01*
X134974385Y-94703295D01*
X134923255Y-94839684D01*
X134916500Y-94901866D01*
X134916500Y-95585406D01*
X134896498Y-95653527D01*
X134879595Y-95674501D01*
X131774500Y-98779595D01*
X131712188Y-98813621D01*
X131685405Y-98816500D01*
X130814595Y-98816500D01*
X130746474Y-98796498D01*
X130725500Y-98779595D01*
X130529132Y-98583227D01*
X130521592Y-98574941D01*
X130517480Y-98568462D01*
X130491514Y-98544078D01*
X130467829Y-98521837D01*
X130464987Y-98519082D01*
X130445250Y-98499345D01*
X130442053Y-98496865D01*
X130433031Y-98489160D01*
X130419602Y-98476549D01*
X130400801Y-98458894D01*
X130393855Y-98455075D01*
X130393852Y-98455073D01*
X130383046Y-98449132D01*
X130366527Y-98438281D01*
X130366063Y-98437921D01*
X130350521Y-98425866D01*
X130343252Y-98422721D01*
X130343248Y-98422718D01*
X130309943Y-98408306D01*
X130299293Y-98403089D01*
X130260540Y-98381785D01*
X130240917Y-98376747D01*
X130222214Y-98370343D01*
X130210900Y-98365447D01*
X130210899Y-98365447D01*
X130203625Y-98362299D01*
X130195802Y-98361060D01*
X130195792Y-98361057D01*
X130159956Y-98355381D01*
X130148336Y-98352975D01*
X130113191Y-98343952D01*
X130113190Y-98343952D01*
X130105510Y-98341980D01*
X130085256Y-98341980D01*
X130065545Y-98340429D01*
X130053366Y-98338500D01*
X130045537Y-98337260D01*
X130016266Y-98340027D01*
X130001519Y-98341421D01*
X129989661Y-98341980D01*
X127528287Y-98341980D01*
X127517104Y-98341453D01*
X127509611Y-98339778D01*
X127501685Y-98340027D01*
X127501684Y-98340027D01*
X127441521Y-98341918D01*
X127437563Y-98341980D01*
X127409664Y-98341980D01*
X127405674Y-98342484D01*
X127393840Y-98343416D01*
X127349631Y-98344806D01*
X127342017Y-98347018D01*
X127342012Y-98347019D01*
X127330179Y-98350457D01*
X127310816Y-98354468D01*
X127290723Y-98357006D01*
X127283356Y-98359923D01*
X127283351Y-98359924D01*
X127249612Y-98373282D01*
X127238385Y-98377126D01*
X127195927Y-98389462D01*
X127189101Y-98393499D01*
X127178492Y-98399773D01*
X127160744Y-98408468D01*
X127141903Y-98415928D01*
X127135487Y-98420590D01*
X127135486Y-98420590D01*
X127106133Y-98441916D01*
X127096213Y-98448432D01*
X127064985Y-98466900D01*
X127064982Y-98466902D01*
X127058158Y-98470938D01*
X127043837Y-98485259D01*
X127028804Y-98498099D01*
X127012413Y-98510008D01*
X127007363Y-98516112D01*
X127007358Y-98516117D01*
X126984227Y-98544078D01*
X126976237Y-98552859D01*
X126767198Y-98761897D01*
X126704886Y-98795922D01*
X126665261Y-98798145D01*
X126603601Y-98791828D01*
X126603602Y-98791828D01*
X126600400Y-98791500D01*
X125849600Y-98791500D01*
X125846354Y-98791837D01*
X125846350Y-98791837D01*
X125750692Y-98801762D01*
X125750688Y-98801763D01*
X125743834Y-98802474D01*
X125737298Y-98804655D01*
X125737296Y-98804655D01*
X125674376Y-98825647D01*
X125603427Y-98828231D01*
X125542343Y-98792048D01*
X125510518Y-98728583D01*
X125508500Y-98706123D01*
X125508500Y-95054568D01*
X125937382Y-95054568D01*
X125937963Y-95059588D01*
X125937963Y-95059592D01*
X125950924Y-95171607D01*
X125966208Y-95303699D01*
X125967587Y-95308573D01*
X125967588Y-95308577D01*
X126033116Y-95540148D01*
X126034494Y-95545017D01*
X126036628Y-95549592D01*
X126036630Y-95549599D01*
X126110727Y-95708500D01*
X126140484Y-95772313D01*
X126143326Y-95776494D01*
X126143326Y-95776495D01*
X126278605Y-95975552D01*
X126278608Y-95975556D01*
X126281451Y-95979739D01*
X126284928Y-95983416D01*
X126284929Y-95983417D01*
X126383893Y-96088069D01*
X126453767Y-96161959D01*
X126457793Y-96165037D01*
X126457794Y-96165038D01*
X126648981Y-96311212D01*
X126648985Y-96311215D01*
X126653001Y-96314285D01*
X126657459Y-96316675D01*
X126657460Y-96316676D01*
X126767553Y-96375707D01*
X126874026Y-96432797D01*
X126878807Y-96434443D01*
X126878811Y-96434445D01*
X127081882Y-96504368D01*
X127111156Y-96514448D01*
X127214689Y-96532331D01*
X127354380Y-96556460D01*
X127354386Y-96556461D01*
X127358290Y-96557135D01*
X127362251Y-96557315D01*
X127362252Y-96557315D01*
X127386931Y-96558436D01*
X127386950Y-96558436D01*
X127388350Y-96558500D01*
X127563015Y-96558500D01*
X127565523Y-96558298D01*
X127565528Y-96558298D01*
X127744944Y-96543863D01*
X127744949Y-96543862D01*
X127749985Y-96543457D01*
X127754893Y-96542252D01*
X127754896Y-96542251D01*
X127988625Y-96484841D01*
X127993539Y-96483634D01*
X127998191Y-96481659D01*
X127998195Y-96481658D01*
X128219741Y-96387617D01*
X128219742Y-96387617D01*
X128224396Y-96385641D01*
X128436615Y-96252000D01*
X128624738Y-96086147D01*
X128783924Y-95892351D01*
X128910078Y-95675596D01*
X128922258Y-95643868D01*
X128998143Y-95446181D01*
X128999955Y-95441461D01*
X129002667Y-95428483D01*
X129050206Y-95200921D01*
X129051241Y-95195967D01*
X129062618Y-94945432D01*
X129033792Y-94696301D01*
X129024115Y-94662101D01*
X128966884Y-94459852D01*
X128966883Y-94459850D01*
X128965506Y-94454983D01*
X128963372Y-94450408D01*
X128963370Y-94450401D01*
X128861653Y-94232269D01*
X128861651Y-94232265D01*
X128859516Y-94227687D01*
X128848716Y-94211795D01*
X128721395Y-94024448D01*
X128721392Y-94024444D01*
X128718549Y-94020261D01*
X128675080Y-93974293D01*
X128546233Y-93838041D01*
X128522406Y-93819824D01*
X128351019Y-93688788D01*
X128351015Y-93688785D01*
X128346999Y-93685715D01*
X128330181Y-93676697D01*
X128130435Y-93569595D01*
X128125974Y-93567203D01*
X128121193Y-93565557D01*
X128121189Y-93565555D01*
X127893633Y-93487201D01*
X127888844Y-93485552D01*
X127778127Y-93466428D01*
X127645620Y-93443540D01*
X127645614Y-93443539D01*
X127641710Y-93442865D01*
X127637749Y-93442685D01*
X127637748Y-93442685D01*
X127613069Y-93441564D01*
X127613050Y-93441564D01*
X127611650Y-93441500D01*
X127436985Y-93441500D01*
X127434477Y-93441702D01*
X127434472Y-93441702D01*
X127255056Y-93456137D01*
X127255051Y-93456138D01*
X127250015Y-93456543D01*
X127245107Y-93457748D01*
X127245104Y-93457749D01*
X127068759Y-93501064D01*
X127006461Y-93516366D01*
X127001809Y-93518341D01*
X127001805Y-93518342D01*
X126825965Y-93592982D01*
X126775604Y-93614359D01*
X126563385Y-93748000D01*
X126375262Y-93913853D01*
X126216076Y-94107649D01*
X126089922Y-94324404D01*
X126000045Y-94558539D01*
X125999012Y-94563485D01*
X125999010Y-94563491D01*
X125955490Y-94771814D01*
X125948759Y-94804033D01*
X125948530Y-94809082D01*
X125948529Y-94809088D01*
X125944316Y-94901866D01*
X125937382Y-95054568D01*
X125508500Y-95054568D01*
X125508500Y-93034500D01*
X125528502Y-92966379D01*
X125582158Y-92919886D01*
X125634500Y-92908500D01*
X160165500Y-92908500D01*
X160233621Y-92928502D01*
G37*
%TD.AperFunction*%
%TA.AperFunction,Conductor*%
G36*
X145504016Y-95278991D02*
G01*
X145524990Y-95295894D01*
X145529595Y-95300499D01*
X145563621Y-95362811D01*
X145566500Y-95389594D01*
X145566500Y-96698134D01*
X145573255Y-96760316D01*
X145624385Y-96896705D01*
X145711739Y-97013261D01*
X145828295Y-97100615D01*
X145964684Y-97151745D01*
X146026866Y-97158500D01*
X147710405Y-97158500D01*
X147778526Y-97178502D01*
X147799500Y-97195405D01*
X148315000Y-97710905D01*
X148349026Y-97773217D01*
X148343961Y-97844032D01*
X148315000Y-97889095D01*
X147707747Y-98496348D01*
X147699461Y-98503888D01*
X147692982Y-98508000D01*
X147687557Y-98513777D01*
X147646357Y-98557651D01*
X147643602Y-98560493D01*
X147623865Y-98580230D01*
X147621385Y-98583427D01*
X147613682Y-98592447D01*
X147583414Y-98624679D01*
X147579595Y-98631625D01*
X147579593Y-98631628D01*
X147573652Y-98642434D01*
X147562801Y-98658953D01*
X147550386Y-98674959D01*
X147547241Y-98682228D01*
X147547238Y-98682232D01*
X147532826Y-98715537D01*
X147527609Y-98726187D01*
X147506305Y-98764940D01*
X147504334Y-98772615D01*
X147504334Y-98772616D01*
X147501267Y-98784562D01*
X147494863Y-98803266D01*
X147486819Y-98821855D01*
X147485580Y-98829678D01*
X147485577Y-98829688D01*
X147479901Y-98865524D01*
X147477495Y-98877144D01*
X147466500Y-98919970D01*
X147466500Y-98940224D01*
X147464949Y-98959934D01*
X147461780Y-98979943D01*
X147462526Y-98987835D01*
X147465941Y-99023961D01*
X147466500Y-99035819D01*
X147466500Y-101786477D01*
X147446498Y-101854598D01*
X147429595Y-101875572D01*
X147222654Y-102082513D01*
X147160342Y-102116539D01*
X147089527Y-102111474D01*
X147032691Y-102068927D01*
X147007880Y-102002407D01*
X147007947Y-101983537D01*
X147008306Y-101978971D01*
X147008307Y-101978958D01*
X147008500Y-101976502D01*
X147008500Y-101543498D01*
X147008053Y-101537816D01*
X147006067Y-101512579D01*
X147006066Y-101512574D01*
X147005562Y-101506169D01*
X146959145Y-101346399D01*
X146874453Y-101203193D01*
X146871771Y-101200511D01*
X146846498Y-101136139D01*
X146860400Y-101066516D01*
X146870572Y-101050688D01*
X146874453Y-101046807D01*
X146959145Y-100903601D01*
X147005562Y-100743831D01*
X147006721Y-100729115D01*
X147008307Y-100708958D01*
X147008307Y-100708950D01*
X147008500Y-100706502D01*
X147008500Y-100273498D01*
X147007512Y-100260939D01*
X147006067Y-100242579D01*
X147006066Y-100242574D01*
X147005562Y-100236169D01*
X146959145Y-100076399D01*
X146942107Y-100047589D01*
X146878491Y-99940020D01*
X146878489Y-99940017D01*
X146874453Y-99933193D01*
X146756807Y-99815547D01*
X146749983Y-99811511D01*
X146749980Y-99811509D01*
X146620427Y-99734892D01*
X146620428Y-99734892D01*
X146613601Y-99730855D01*
X146605990Y-99728644D01*
X146605988Y-99728643D01*
X146549193Y-99712143D01*
X146453831Y-99684438D01*
X146447426Y-99683934D01*
X146447421Y-99683933D01*
X146418958Y-99681693D01*
X146418950Y-99681693D01*
X146416502Y-99681500D01*
X144633498Y-99681500D01*
X144631050Y-99681693D01*
X144631042Y-99681693D01*
X144602579Y-99683933D01*
X144602574Y-99683934D01*
X144596169Y-99684438D01*
X144500807Y-99712143D01*
X144444012Y-99728643D01*
X144444010Y-99728644D01*
X144436399Y-99730855D01*
X144429572Y-99734892D01*
X144429573Y-99734892D01*
X144300020Y-99811509D01*
X144300017Y-99811511D01*
X144293193Y-99815547D01*
X144179145Y-99929595D01*
X144116833Y-99963621D01*
X144090050Y-99966500D01*
X143337516Y-99966500D01*
X143269395Y-99946498D01*
X143222902Y-99892842D01*
X143219863Y-99885126D01*
X143218868Y-99883003D01*
X143216550Y-99876054D01*
X143123478Y-99725652D01*
X143103658Y-99705866D01*
X143003483Y-99605866D01*
X142998303Y-99600695D01*
X142992072Y-99596854D01*
X142853968Y-99511725D01*
X142853966Y-99511724D01*
X142847738Y-99507885D01*
X142717349Y-99464637D01*
X142686389Y-99454368D01*
X142686387Y-99454368D01*
X142679861Y-99452203D01*
X142673025Y-99451503D01*
X142673022Y-99451502D01*
X142629969Y-99447091D01*
X142575400Y-99441500D01*
X141224600Y-99441500D01*
X141221354Y-99441837D01*
X141221350Y-99441837D01*
X141125692Y-99451762D01*
X141125688Y-99451763D01*
X141118834Y-99452474D01*
X141112298Y-99454655D01*
X141112296Y-99454655D01*
X141102615Y-99457885D01*
X140951054Y-99508450D01*
X140800652Y-99601522D01*
X140675695Y-99726697D01*
X140671855Y-99732927D01*
X140671854Y-99732928D01*
X140670589Y-99734980D01*
X140649659Y-99768936D01*
X140634947Y-99792803D01*
X140582175Y-99840296D01*
X140512104Y-99851720D01*
X140446980Y-99823446D01*
X140438669Y-99815860D01*
X140328483Y-99705866D01*
X140323303Y-99700695D01*
X140317072Y-99696854D01*
X140178968Y-99611725D01*
X140178966Y-99611724D01*
X140172738Y-99607885D01*
X140012254Y-99554655D01*
X140011389Y-99554368D01*
X140011387Y-99554368D01*
X140004861Y-99552203D01*
X139998025Y-99551503D01*
X139998022Y-99551502D01*
X139952655Y-99546854D01*
X139900400Y-99541500D01*
X138499600Y-99541500D01*
X138496354Y-99541837D01*
X138496350Y-99541837D01*
X138400692Y-99551762D01*
X138400688Y-99551763D01*
X138393834Y-99552474D01*
X138387298Y-99554655D01*
X138387296Y-99554655D01*
X138260811Y-99596854D01*
X138226054Y-99608450D01*
X138075652Y-99701522D01*
X138042375Y-99734857D01*
X137980095Y-99768936D01*
X137909275Y-99763934D01*
X137852402Y-99721437D01*
X137846059Y-99712143D01*
X137823478Y-99675652D01*
X137698303Y-99550695D01*
X137661188Y-99527817D01*
X137553968Y-99461725D01*
X137553966Y-99461724D01*
X137547738Y-99457885D01*
X137433937Y-99420139D01*
X137386389Y-99404368D01*
X137386387Y-99404368D01*
X137379861Y-99402203D01*
X137373025Y-99401503D01*
X137373022Y-99401502D01*
X137329969Y-99397091D01*
X137275400Y-99391500D01*
X136358594Y-99391500D01*
X136290473Y-99371498D01*
X136243980Y-99317842D01*
X136233876Y-99247568D01*
X136263370Y-99182988D01*
X136269499Y-99176405D01*
X137841758Y-97604146D01*
X137850048Y-97596602D01*
X137856529Y-97592489D01*
X137903170Y-97542821D01*
X137905924Y-97539980D01*
X137925645Y-97520259D01*
X137928123Y-97517064D01*
X137935829Y-97508042D01*
X137960669Y-97481590D01*
X137966097Y-97475810D01*
X137975857Y-97458057D01*
X137986710Y-97441534D01*
X137994264Y-97431795D01*
X137999124Y-97425530D01*
X138016687Y-97384946D01*
X138021894Y-97374316D01*
X138043206Y-97335549D01*
X138045177Y-97327872D01*
X138045179Y-97327867D01*
X138048243Y-97315931D01*
X138054649Y-97297219D01*
X138059545Y-97285906D01*
X138062692Y-97278634D01*
X138069608Y-97234970D01*
X138072015Y-97223349D01*
X138081039Y-97188200D01*
X138081039Y-97188199D01*
X138083011Y-97180519D01*
X138083011Y-97160258D01*
X138084559Y-97140567D01*
X138084937Y-97138178D01*
X138115339Y-97074020D01*
X138175602Y-97036484D01*
X138246591Y-97037486D01*
X138254331Y-97040156D01*
X138434692Y-97109030D01*
X138439760Y-97110061D01*
X138439763Y-97110062D01*
X138534862Y-97129410D01*
X138653597Y-97153567D01*
X138658772Y-97153757D01*
X138658774Y-97153757D01*
X138871673Y-97161564D01*
X138871677Y-97161564D01*
X138876837Y-97161753D01*
X138881957Y-97161097D01*
X138881959Y-97161097D01*
X139093288Y-97134025D01*
X139093289Y-97134025D01*
X139098416Y-97133368D01*
X139103366Y-97131883D01*
X139307429Y-97070661D01*
X139307434Y-97070659D01*
X139312384Y-97069174D01*
X139512994Y-96970896D01*
X139694860Y-96841173D01*
X139765802Y-96770479D01*
X139838400Y-96698134D01*
X139853096Y-96683489D01*
X139876067Y-96651522D01*
X139983453Y-96502077D01*
X139984640Y-96502930D01*
X140031960Y-96459362D01*
X140101897Y-96447145D01*
X140167338Y-96474678D01*
X140195166Y-96506511D01*
X140252694Y-96600388D01*
X140258777Y-96608699D01*
X140398213Y-96769667D01*
X140405580Y-96776883D01*
X140569434Y-96912916D01*
X140577881Y-96918831D01*
X140761756Y-97026279D01*
X140771042Y-97030729D01*
X140970001Y-97106703D01*
X140979899Y-97109579D01*
X141083250Y-97130606D01*
X141097299Y-97129410D01*
X141101000Y-97119065D01*
X141101000Y-97118517D01*
X141609000Y-97118517D01*
X141613064Y-97132359D01*
X141626478Y-97134393D01*
X141633184Y-97133534D01*
X141643262Y-97131392D01*
X141847255Y-97070191D01*
X141856842Y-97066433D01*
X142048095Y-96972739D01*
X142056945Y-96967464D01*
X142230328Y-96843792D01*
X142238200Y-96837139D01*
X142389052Y-96686812D01*
X142395730Y-96678965D01*
X142520003Y-96506020D01*
X142525313Y-96497183D01*
X142619670Y-96306267D01*
X142623469Y-96296672D01*
X142685377Y-96092910D01*
X142687555Y-96082837D01*
X142688986Y-96071962D01*
X142686775Y-96057778D01*
X142673617Y-96054000D01*
X141627115Y-96054000D01*
X141611876Y-96058475D01*
X141610671Y-96059865D01*
X141609000Y-96067548D01*
X141609000Y-97118517D01*
X141101000Y-97118517D01*
X141101000Y-95672000D01*
X141121002Y-95603879D01*
X141174658Y-95557386D01*
X141227000Y-95546000D01*
X142673344Y-95546000D01*
X142686875Y-95542027D01*
X142688180Y-95532947D01*
X142658726Y-95415685D01*
X142661530Y-95344743D01*
X142702243Y-95286580D01*
X142767938Y-95259661D01*
X142780930Y-95258989D01*
X145435895Y-95258989D01*
X145504016Y-95278991D01*
G37*
%TD.AperFunction*%
%TD*%
M02*
