<?xml version="1.0" encoding="utf-8"?>
<!-- Generator: Adobe Illustrator 26.0.0, SVG Export Plug-In . SVG Version: 6.00 Build 0)  -->
<svg version="1.1" id="Layer_1" xmlns="http://www.w3.org/2000/svg" xmlns:xlink="http://www.w3.org/1999/xlink" x="0px" y="0px"
	 viewBox="0 0 480.1 166.9" style="enable-background:new 0 0 480.1 166.9;" xml:space="preserve">
<style type="text/css">
	.st0{fill:#231F20;}
	.st1{fill:none;}
</style>
<g id="Layer_2_00000178898261318324208840000007121499657378302105_">
	<g>
		<g id="Layer_1-2">
			<g>
				<g>
					<path class="st0" d="M200.5,74.5c-10.4,0-18,7.3-18,18.1s8,18.1,19.5,18.1c3.2,0,6.3-0.5,9.2-1.7l4.9-8.2l-0.6-0.4
						c-3.9,2.1-8.3,3.3-12.7,3.3c-5.9,0-11.1-3-11.7-8.2h26.3v-2.4C217.4,81.3,210.1,74.5,200.5,74.5 M191.1,89.2
						c0.6-5,3.8-8.2,8.9-8.2c5.4,0,8.7,3.2,8.8,8.2H191.1z M379.8,74.5c-10.4,0-18,7.3-18,18.1s8,18.1,19.5,18.1
						c3.1,0,6.3-0.5,9.2-1.7l4.9-8.2l-0.6-0.3c-3.9,2.1-8.3,3.3-12.7,3.3c-5.9,0-11.1-3-11.7-8.2h26.3
						C397.8,82.2,390.6,74.5,379.8,74.5 M370.4,89.2c0.6-5,3.8-8.2,8.9-8.2c5.4,0,8.7,3.2,8.8,8.2H370.4z M259.2,74.5
						c-10.4,0-18,7.3-18,18.1s8,18.1,19.5,18.1c3.2,0,6.3-0.5,9.2-1.7l4.9-8.2l-0.7-0.3c-3.9,2.1-8.3,3.3-12.7,3.3
						c-6,0-11.1-3-11.7-8.2h26.3C277.3,82.2,270,74.5,259.2,74.5 M249.8,89.2c0.6-5,3.8-8.2,8.9-8.2c5.4,0,8.7,3.2,8.8,8.2H249.8z
						 M80.9,83.1V83c5.2-1.6,8.8-5.4,8.8-11.1c0-9.3-7.9-12.8-15.6-12.8h-26v0.8l2.6,2.2c3.1,2.6,3.5,3,3.5,5.4v42.6h18.3
						c9.6,0,19.3-3.4,19.3-14.5C92.1,89.1,87.3,83.7,80.9,83.1 M63.4,66.8h7.5c5.1,0,6.6,0.7,8.2,2.2c1.2,1.2,1.8,2.8,1.7,4.4
						c0,1.6-0.6,3.1-1.8,4.2c-1.5,1.4-3.6,2.1-7.3,2.1h-8.3V66.8z M71.7,102.2h-8.3V87.5h8.7c7.3,0,10.8,1.9,10.8,7.2
						C82.9,101.4,76.4,102.2,71.7,102.2 M109,63.7c0.2,3.1-2.1,5.7-5.2,5.9s-5.7-2.1-5.9-5.2c-0.2-3.1,2.1-5.7,5.2-5.9
						c0.1,0,0.2,0,0.3,0c2.9-0.2,5.4,2.1,5.6,5C109.1,63.6,109.1,63.6,109,63.7 M94.6,75.4h13.3v34.5h-8.6V82.8l0,0
						c0-2.8-0.2-3.3-3.3-5.7L94.6,76L94.6,75.4z M163.2,57.5l2.7,1.7c2.5,1.6,2.8,2.3,2.8,4.5v16h-0.2c-1.8-2.2-5.2-5.2-11.7-5.2
						c-9.9,0-16.7,7.9-16.7,18.1s6.4,18.1,17.1,18.1c4.8,0,9.4-1.9,11.9-6h0.1l0.9,5.2h7.3v-53h-14.2V57.5z M158.9,103
						c-6.3,0-10.1-5-10.1-10.3s3.8-10.3,10.1-10.3s10.1,5,10.1,10.3S165.3,103,158.9,103 M342.2,57.5l1.2,0.8
						c4.2,2.6,4.7,3.4,4.7,7.9v13.6h-0.2c-1.8-2.2-5.2-5.2-11.7-5.2c-9.9,0-16.7,7.9-16.7,18.1s6.4,18.1,17,18.1
						c4.8,0,9.4-1.9,11.9-6h0.1l0.9,5.2h7.3V56.9h-14.5L342.2,57.5z M338.2,103c-6.3,0-10.1-5-10.1-10.3s3.8-10.3,10.1-10.3
						s10.1,5,10.1,10.3S344.5,103,338.2,103 M424.3,75v8.3c-1.4-0.4-2.8-0.6-4.2-0.7c-8.1,0-9.3,6.8-9.3,8.7v18.5h-8.6V84.4
						c0-4.3-0.2-5-3.7-7.2l-2.2-1.4v-0.4h14.5v5.5h0.1c1.8-3.9,5.9-6.4,10.2-6.3C422.3,74.6,423.4,74.7,424.3,75 M232.8,75.3h8v7.4
						h-8v27.3h-8.7V85.6c0-2.9-0.6-3.5-4-6.2l-4.4-3.6v-0.5h8.4V69c0-9.4,6.1-15.3,19.3-12.7l2,7.3l-0.4,0.3c-6.9-2.7-12.3-1-12.3,5
						L232.8,75.3z M314.5,88.1v21.8h-8.6V90.7c0-3.8-1-8.4-7-8.4c-5.7,0-7.9,4.2-7.9,8.8v18.8h-8.6V84.4c0-4.3-0.2-5-3.7-7.2
						l-2.1-1.4v-0.4h6.8l0,0h7.4v5.2h0.1c2.4-3.7,6.5-6,11-6.1C309.9,74.5,314.6,80.1,314.5,88.1 M137.5,103l0.3,0.2
						c0,0-4.3,6.9-4.3,6.9c-7,1.9-14.9-0.1-14.9-11.4v-14c0-2.2-0.4-2.1-5.2-6.1l-3.1-2.7v-0.4h8.4l3.1-10h5.5v10h9.2v7.3h-9.2v15.7
						C127.2,104.6,131.5,104.8,137.5,103"/>
					<path class="st0" d="M426.4,58.2h-2.1v6.5h0.2v-3h1.9h0.1l0,0l0,0l2,3h0.3l-2-3.1h0.1c0.2,0,0.4,0,0.6-0.1
						c0.2-0.1,0.4-0.2,0.5-0.3c0.2-0.1,0.3-0.3,0.4-0.5c0.1-0.2,0.1-0.5,0.1-0.7c0-0.5-0.2-1-0.5-1.3
						C427.5,58.3,427,58.2,426.4,58.2 M428.3,60c0,0.5-0.3,1-0.8,1.3c-0.2,0.1-0.5,0.2-0.7,0.2c-0.2,0-0.5,0-0.7,0h-1.6v-3h1.9
						c0.2,0,0.5,0,0.7,0.1c0.2,0,0.4,0.1,0.6,0.2c0.2,0.1,0.3,0.3,0.4,0.5C428.3,59.4,428.3,59.7,428.3,60"/>
					<path class="st0" d="M431.4,63.6c1.2-2.9-0.1-6.2-3-7.5c-0.7-0.3-1.5-0.5-2.2-0.4c-0.8,0-1.5,0.1-2.2,0.4
						c-0.7,0.3-1.3,0.7-1.8,1.2c-0.5,0.5-0.9,1.1-1.2,1.8c-0.6,1.4-0.6,3,0,4.4c0.3,0.7,0.7,1.3,1.2,1.8c0.5,0.5,1.1,0.9,1.8,1.2
						c0.7,0.3,1.5,0.4,2.2,0.4c1.5,0,2.9-0.6,4-1.7C430.7,64.8,431.1,64.2,431.4,63.6 M428.3,66.4c-1.4,0.6-2.9,0.6-4.3,0
						c-2-0.9-3.4-2.9-3.3-5.1c0-1.4,0.6-2.8,1.6-3.8c0.5-0.5,1.1-0.9,1.7-1.2c1.4-0.6,2.9-0.6,4.3,0c0.6,0.3,1.2,0.7,1.7,1.2
						c0.5,0.5,0.9,1.1,1.2,1.7c0.3,0.7,0.4,1.4,0.4,2.1c0,0.7-0.1,1.5-0.4,2.1c-0.3,0.6-0.7,1.2-1.2,1.7
						C429.5,65.7,428.9,66.1,428.3,66.4"/>
				</g>
			</g>
		</g>
		<rect class="st1" width="480" height="166.1"/>
	</g>
</g>
</svg>
